<svg width="96" height="40" viewBox="0 0 96 40" fill="none" xmlns="http://www.w3.org/2000/svg">
<g opacity="0.5">
<path d="M20.0002 19.5626C24.4475 19.5626 28.0531 15.1834 28.0531 9.78137C28.0531 4.3792 26.8693 0 20.0002 0C13.131 0 11.947 4.3792 11.947 9.78137C11.947 15.1834 15.5526 19.5626 20.0002 19.5626Z" fill="#240046"/>
<path d="M4.78967 34.4974C4.7883 34.168 4.78693 34.4046 4.78967 34.4974V34.4974Z" fill="#240046"/>
<path d="M35.2097 34.7548C35.214 34.6646 35.2112 34.1292 35.2097 34.7548V34.7548Z" fill="#240046"/>
<path d="M35.1926 34.1024C35.0435 24.6918 33.8145 22.0104 24.4096 20.313C24.4096 20.313 23.0857 22 20 22C16.9142 22 15.5901 20.313 15.5901 20.313C6.28784 21.9918 4.98407 24.6336 4.81264 33.7966C4.79858 34.5449 4.79207 34.5842 4.78955 34.4973C4.79012 34.6601 4.79081 34.9611 4.79081 35.486C4.79081 35.486 7.02989 39.9998 20 39.9998C32.9698 39.9998 35.2091 35.486 35.2091 35.486C35.2091 35.1488 35.2093 34.9142 35.2097 34.7547C35.2072 34.8084 35.2021 34.7043 35.1926 34.1024Z" fill="#240046"/>
</g>
<g opacity="0.5">
<path d="M55.9999 23.6501C59.5577 23.6501 62.4422 20.1467 62.4422 15.8251C62.4422 11.5034 61.4952 8 55.9999 8C50.5046 8 49.5574 11.5034 49.5574 15.8251C49.5574 20.1467 52.4419 23.6501 55.9999 23.6501Z" fill="#240046"/>
<path d="M43.8316 35.5981C43.8305 35.3346 43.8294 35.5238 43.8316 35.5981V35.5981Z" fill="#240046"/>
<path d="M68.1677 35.8038C68.1712 35.7317 68.1689 35.3033 68.1677 35.8038V35.8038Z" fill="#240046"/>
<path d="M68.154 35.282C68.0347 27.7536 67.0515 25.6084 59.5275 24.2505C59.5275 24.2505 58.4684 25.6001 55.9999 25.6001C53.5313 25.6001 52.472 24.2505 52.472 24.2505C45.0302 25.5936 43.9872 27.7069 43.85 35.0374C43.8388 35.636 43.8336 35.6674 43.8315 35.598C43.832 35.7282 43.8325 35.969 43.8325 36.3889C43.8325 36.3889 45.6238 40 55.9999 40C66.3757 40 68.1672 36.3889 68.1672 36.3889C68.1672 36.1191 68.1674 35.9315 68.1676 35.8039C68.1656 35.8468 68.1616 35.7635 68.154 35.282Z" fill="#240046"/>
</g>
<g clip-path="url(#clip0)">
<path d="M84.0001 27.7376C86.6685 27.7376 88.8318 25.1101 88.8318 21.8688C88.8318 18.6275 88.1216 16 84.0001 16C79.8786 16 79.1682 18.6275 79.1682 21.8688C79.1682 25.1101 81.3316 27.7376 84.0001 27.7376Z" fill="#240046"/>
<path d="M74.8738 36.6985C74.8729 36.5009 74.8721 36.6428 74.8738 36.6985V36.6985Z" fill="#240046"/>
<path d="M93.1257 36.8529C93.1283 36.7987 93.1266 36.4775 93.1257 36.8529V36.8529Z" fill="#240046"/>
<path d="M93.1154 36.4616C93.0259 30.8153 92.2885 29.2064 86.6455 28.188C86.6455 28.188 85.8512 29.2002 83.9998 29.2002C82.1483 29.2002 81.3539 28.188 81.3539 28.188C75.7725 29.1953 74.9902 30.7803 74.8874 36.2782C74.879 36.7271 74.875 36.7507 74.8735 36.6986C74.8739 36.7962 74.8743 36.9769 74.8743 37.2918C74.8743 37.2918 76.2177 40.0001 83.9998 40.0001C91.7817 40.0001 93.1253 37.2918 93.1253 37.2918C93.1253 37.0895 93.1254 36.9487 93.1256 36.853C93.1241 36.8852 93.1211 36.8228 93.1154 36.4616Z" fill="#240046"/>
</g>
<defs>
<clipPath id="clip0">
<rect width="24" height="24" fill="white" transform="translate(72 16)"/>
</clipPath>
</defs>
</svg>
