<svg width="64" height="64" viewBox="0 0 64 64" fill="none" xmlns="http://www.w3.org/2000/svg">
<g clip-path="url(#clip0)">
<path d="M56.6665 24H42.6665V29H55.9998C57.4718 29 58.6665 30.12 58.6665 31.5013V32.752C58.6665 34.1333 57.4718 35.2533 55.9998 35.2533C54.5278 35.2533 53.3332 36.3733 53.3332 37.7547V50.256C53.3332 51.6373 54.5278 52.7573 55.9998 52.7573C57.4718 52.7573 58.6665 53.8773 58.6665 55.2587V56.5093C58.6665 57.8907 57.4718 59.008 55.9998 59.008H42.3785C41.9278 60.9653 40.9332 62.688 39.5625 64.008H56.6665C60.7118 64.008 63.9998 60.9253 63.9998 57.1333C63.9998 51.688 63.9998 36.9093 63.9998 30.8827C63.9998 27.0827 60.7118 24 56.6665 24Z" fill="#240046"/>
<path d="M33.1253 0C27.68 0 12.9013 0 6.87467 0C3.08267 0 0 3.288 0 7.33333V56.6667C0 60.712 3.08267 64 6.87467 64H33.1253C36.9173 64 40 60.712 40 56.6667V7.33333C40 3.288 36.9173 0 33.1253 0ZM35 56C35 57.472 33.88 58.6667 32.4987 58.6667H7.50133C6.12 58.6667 5 57.472 5 56V8C5 6.528 6.12 5.33333 7.50133 5.33333H8.752C10.1333 5.33333 11.2533 6.528 11.2533 8C11.2533 9.472 12.3733 10.6667 13.7547 10.6667H26.256C27.6373 10.6667 28.7573 9.472 28.7573 8C28.7573 6.528 29.8773 5.33333 31.2587 5.33333H32.5093C33.8907 5.33333 35.0107 6.528 35.0107 8V56H35Z" fill="#240046"/>
<path d="M62.4217 10.8855C61.987 9.94149 61.043 9.3335 60.0003 9.3335H58.019C56.5257 4.59216 52.4483 1.3335 47.3337 1.3335C45.859 1.3335 44.667 2.52816 44.667 4.00016C44.667 5.47216 45.859 6.66683 47.3337 6.66683C49.5843 6.66683 51.1977 7.77883 52.1897 9.3335H52.0003C50.9577 9.3335 50.0137 9.94149 49.579 10.8855C49.1443 11.8322 49.299 12.9442 49.9763 13.7362L53.9763 18.4028C53.9977 18.4268 54.0297 18.4348 54.051 18.4588C55.1497 19.6562 56.9097 19.5922 57.9497 18.4588C57.971 18.4348 58.003 18.4268 58.0243 18.4028L62.0243 13.7362C62.7043 12.9442 62.8563 11.8322 62.4217 10.8855Z" fill="#240046"/>
</g>
<defs>
<clipPath id="clip0">
<rect width="64" height="64" fill="white"/>
</clipPath>
</defs>
</svg>
