<svg width="40" height="40" viewBox="0 0 40 40" fill="none" xmlns="http://www.w3.org/2000/svg">
<g clip-path="url(#clip0)">
<path d="M31.2903 35.2277H8.70968C7.9971 35.2277 7.41935 34.65 7.41935 33.9374V30.1172C7.41935 28.2974 8.49306 26.642 10.1548 25.9C14.9879 23.742 14.723 23.815 15.0996 23.815H16.6332C17.2271 23.815 17.7443 24.2203 17.8862 24.797C18.4271 26.995 21.5727 26.9961 22.1139 24.797C22.2558 24.2204 22.773 23.815 23.3669 23.815C25.0173 23.815 25.1021 23.7822 25.4265 23.9271L29.8452 25.9C31.5069 26.642 32.5807 28.2974 32.5807 30.1172V33.9374C32.5806 34.65 32.0029 35.2277 31.2903 35.2277ZM20.0315 4.77222C15.6856 4.77222 12.1499 8.30786 12.1499 12.6538C12.1499 16.9998 15.6856 20.5354 20.0315 20.5354C24.3775 20.5354 27.9131 16.9998 27.9131 12.6538C27.9131 8.30786 24.3775 4.77222 20.0315 4.77222ZM7.59823 13.2025C4.86186 13.2025 2.63564 15.4287 2.63564 18.1652C2.63564 20.9016 4.86186 23.1278 7.59823 23.1278C10.3347 23.1278 12.5609 20.9016 12.5609 18.1652C12.5608 15.4287 10.3346 13.2025 7.59823 13.2025ZM32.4018 13.2025C29.6653 13.2025 27.4391 15.4287 27.4391 18.1652C27.4391 20.9016 29.6653 23.1278 32.4018 23.1278C35.1381 23.1278 37.3644 20.9016 37.3644 18.1652C37.3644 15.4287 35.1381 13.2025 32.4018 13.2025ZM38.1371 25.0233C35.4523 23.8243 35.5165 23.8121 35.1492 23.8121C33.2272 23.8121 31.9698 23.7986 31.1194 23.7944C30.274 23.7902 29.994 24.924 30.7431 25.3158C31.3564 25.6366 31.7287 25.9102 32.171 26.3928C33.4615 27.7945 33.5818 29.2779 33.5815 30.5079C33.5815 30.9533 33.9423 31.3137 34.3877 31.3137H38.7097C39.4226 31.3137 40 30.7355 40 30.0234V27.8951C40 26.6556 39.2685 25.529 38.1371 25.0233ZM4.85081 23.8121C4.48516 23.8121 4.5571 23.8201 1.8629 25.0233C0.731452 25.529 0 26.6556 0 27.8951V30.0233C0 30.7354 0.577419 31.3137 1.29032 31.3137H5.61194C6.05758 31.3137 6.41871 30.9527 6.41814 30.5071C6.41669 29.2729 6.53339 27.8 7.82903 26.3927C8.26911 25.9125 8.6446 25.6364 9.24435 25.3213C9.99185 24.9287 9.71564 23.7982 8.87129 23.7996C8.01573 23.8011 6.75855 23.8121 4.85081 23.8121Z" fill="#240046"/>
</g>
<defs>
<clipPath id="clip0">
<rect width="40" height="40" fill="white"/>
</clipPath>
</defs>
</svg>
