<svg width="64" height="64" fill="none" xmlns="http://www.w3.org/2000/svg"><path fill-rule="evenodd" clip-rule="evenodd" d="M43.454 25.615l-12.18 16a2.666 2.666 0 01-2.105 1.053h-.019a2.67 2.67 0 01-2.098-1.024l-6.486-8.285a2.665 2.665 0 01.456-3.742 2.663 2.663 0 013.744.456l4.355 5.563 10.09-13.25a2.665 2.665 0 114.243 3.23zM32.001 5.335C17.273 5.335 5.334 17.273 5.334 32c0 14.726 11.94 26.667 26.667 26.667 14.728 0 26.667-11.941 26.667-26.667C58.668 17.273 46.729 5.335 32 5.335z" fill="#231F20"/><mask id="a" maskUnits="userSpaceOnUse" x="5" y="5" width="54" height="54"><path fill-rule="evenodd" clip-rule="evenodd" d="M43.454 25.615l-12.18 16a2.666 2.666 0 01-2.105 1.053h-.019a2.67 2.67 0 01-2.098-1.024l-6.486-8.285a2.665 2.665 0 01.456-3.742 2.663 2.663 0 013.744.456l4.355 5.563 10.09-13.25a2.665 2.665 0 114.243 3.23zM32.001 5.335C17.273 5.335 5.334 17.273 5.334 32c0 14.726 11.94 26.667 26.667 26.667 14.728 0 26.667-11.941 26.667-26.667C58.668 17.273 46.729 5.335 32 5.335z" fill="#fff"/></mask><g mask="url(#a)"><path fill="#fff" d="M0 0h64v64H0z"/></g></svg>