<svg width="64" height="64" fill="none" xmlns="http://www.w3.org/2000/svg"><path fill-rule="evenodd" clip-rule="evenodd" d="M39.219 35.448a2.664 2.664 0 010 3.77 2.66 2.66 0 01-1.886.782 2.66 2.66 0 01-1.885-.781L32 35.77l-3.448 3.448a2.66 2.66 0 01-1.885.78 2.66 2.66 0 01-1.886-.78 2.664 2.664 0 010-3.771L28.23 32l-3.448-3.448a2.664 2.664 0 010-3.77 2.664 2.664 0 013.771 0L32 28.228l3.448-3.448a2.664 2.664 0 013.77 0 2.664 2.664 0 010 3.77L35.772 32l3.448 3.448zM32 5.333C17.296 5.333 5.333 17.296 5.333 32c0 14.704 11.963 26.667 26.667 26.667 14.704 0 26.667-11.963 26.667-26.667C58.667 17.296 46.704 5.333 32 5.333z" fill="#fff"/><mask id="a" maskUnits="userSpaceOnUse" x="5" y="5" width="54" height="54"><path fill-rule="evenodd" clip-rule="evenodd" d="M39.219 35.448a2.664 2.664 0 010 3.77 2.66 2.66 0 01-1.886.782 2.66 2.66 0 01-1.885-.781L32 35.77l-3.448 3.448a2.66 2.66 0 01-1.885.78 2.66 2.66 0 01-1.886-.78 2.664 2.664 0 010-3.771L28.23 32l-3.448-3.448a2.664 2.664 0 010-3.77 2.664 2.664 0 013.771 0L32 28.228l3.448-3.448a2.664 2.664 0 013.77 0 2.664 2.664 0 010 3.77L35.772 32l3.448 3.448zM32 5.333C17.296 5.333 5.333 17.296 5.333 32c0 14.704 11.963 26.667 26.667 26.667 14.704 0 26.667-11.963 26.667-26.667C58.667 17.296 46.704 5.333 32 5.333z" fill="#fff"/></mask><g mask="url(#a)"><path fill="#fff" d="M0 0h64v64H0z"/></g></svg>