<svg width="36" height="36" fill="none" xmlns="http://www.w3.org/2000/svg"><path fill-rule="evenodd" clip-rule="evenodd" d="M22.5 19.5h-3v3c0 .825-.675 1.5-1.5 1.5s-1.5-.675-1.5-1.5v-3h-3c-.825 0-1.5-.675-1.5-1.5s.675-1.5 1.5-1.5h3v-3c0-.825.675-1.5 1.5-1.5s1.5.675 1.5 1.5v3h3c.825 0 1.5.675 1.5 1.5s-.675 1.5-1.5 1.5zM18 3C9.729 3 3 9.729 3 18s6.729 15 15 15 15-6.729 15-15S26.271 3 18 3z" fill="#231F20"/><mask id="a" maskUnits="userSpaceOnUse" x="3" y="3" width="30" height="30"><path fill-rule="evenodd" clip-rule="evenodd" d="M22.5 19.5h-3v3c0 .825-.675 1.5-1.5 1.5s-1.5-.675-1.5-1.5v-3h-3c-.825 0-1.5-.675-1.5-1.5s.675-1.5 1.5-1.5h3v-3c0-.825.675-1.5 1.5-1.5s1.5.675 1.5 1.5v3h3c.825 0 1.5.675 1.5 1.5s-.675 1.5-1.5 1.5zM18 3C9.729 3 3 9.729 3 18s6.729 15 15 15 15-6.729 15-15S26.271 3 18 3z" fill="#fff"/></mask><g mask="url(#a)"><path fill="#fff" d="M0 0h36v36H0z"/></g></svg>