<svg width="24" height="24" viewBox="0 0 24 24" fill="none" xmlns="http://www.w3.org/2000/svg">
<path d="M12 0C18.629 0 24 5.37097 24 12C24 18.629 18.629 24 12 24C5.37097 24 0 18.629 0 12C0 5.37097 5.37097 0 12 0ZM10.6016 6.94839L14.2549 10.4516H5.41936C4.7758 10.4516 4.25807 10.9693 4.25807 11.6129V12.3871C4.25807 13.0307 4.7758 13.5484 5.41936 13.5484H14.2549L10.6016 17.0516C10.1323 17.5016 10.1226 18.2516 10.5823 18.7113L11.1145 19.2387C11.5694 19.6936 12.3049 19.6936 12.7549 19.2387L19.1758 12.8226C19.6306 12.3677 19.6306 11.6323 19.1758 11.1823L12.7549 4.75645C12.3 4.30161 11.5645 4.30161 11.1145 4.75645L10.5823 5.28387C10.1226 5.74839 10.1323 6.49839 10.6016 6.94839Z" fill="#240046"/>
</svg>
