<svg width="31" height="43" viewBox="0 0 31 43" fill="none" xmlns="http://www.w3.org/2000/svg">
<path d="M28.3694 13.9354C27.9642 9.35668 24.1392 7.84929 19.2191 7.24666L19.282 0.930004L15.4809 0.938297L15.3704 7.04863C14.3943 7.05666 13.3151 7.0885 12.3152 6.99337L12.4019 0.779876L8.57703 0.68501L8.51414 7.00166C7.64123 6.98588 0.761148 6.83575 0.761148 6.83575L0.713913 10.867C0.713913 10.867 3.53895 10.8667 3.43579 10.8905C4.97528 10.9697 5.4991 11.8267 5.56266 12.5727L5.3024 29.8006C5.19135 30.2609 4.94543 31.0783 3.84239 31.007C3.8662 31.1101 1.01735 31.0072 1.01735 31.0072L0.216297 35.5385C0.216297 35.5385 7.09638 35.6886 7.96928 35.7044L7.80324 42.0448L11.6281 42.1397L11.691 35.8231C12.7941 35.8944 13.7701 35.8864 14.7462 35.8783L14.6595 42.0918L18.4844 42.1867L18.6505 35.8462C25.102 35.552 29.6489 34.0676 30.3228 28.0445C30.8223 23.1483 28.5764 20.9504 24.9974 20.0381C27.2192 19.3078 28.6157 17.3556 28.3694 13.9354ZM22.8079 27.4977C22.721 32.2987 14.6188 31.5614 12.0001 31.5141L12.1263 23.1183C14.745 23.1657 22.8471 22.4904 22.8079 27.4977ZM21.2514 15.5787C21.1725 19.9433 14.4034 19.3329 12.2212 19.2934L12.3077 11.6674C14.4662 11.6037 21.2827 11.0079 21.2514 15.5787Z" fill="white"/>
</svg>
