<svg width="32" height="26" viewBox="0 0 32 26" fill="none" xmlns="http://www.w3.org/2000/svg">
<path d="M20.9573 0H9.30847L8.34241 5.39748L18.8569 5.40994C24.0362 5.40994 25.5632 7.2922 25.5196 10.4085C25.4947 12.0041 24.8028 14.7091 24.5037 15.5879C23.7059 17.9251 22.0667 20.5864 15.9213 20.5802L5.69976 20.574L4.73682 25.9777H16.3607C20.4618 25.9777 22.2007 25.4978 24.0518 24.6501C28.1467 22.7492 30.5836 18.7104 31.5621 13.4376C33.0112 5.58446 31.2038 0 20.9573 0Z" fill="white"/>
<path d="M4.28183 10.2776C1.22783 10.2776 0.791547 12.2658 0.504845 13.4687C0.124653 15.0393 0 15.6813 0 15.6813H11.9293C14.9833 15.6813 15.4196 13.6931 15.7063 12.4902C16.0865 10.9196 16.2111 10.2776 16.2111 10.2776H4.28183Z" fill="white"/>
</svg>
