<svg width="21" height="30" viewBox="0 0 21 30" fill="none" xmlns="http://www.w3.org/2000/svg">
<path d="M10.2574 16.6587L8.13707 24.7078H19.4783C19.7988 24.7078 20.0601 25.0018 20.0601 25.3624C20.0601 25.4234 20.0503 25.4845 20.0355 25.5455L19.0493 29.3676C18.9507 29.7448 18.645 30 18.2998 30H0.977307L3.9063 18.872L0.666656 19.9815L1.38165 17.3798L4.62622 16.2703L8.73865 0.637944C8.83234 0.260725 9.13806 0 9.48322 0L13.8718 0C14.1923 0 14.4536 0.288461 14.4536 0.654586C14.4536 0.715606 14.4487 0.776627 14.4339 0.832101L10.9822 14.0514L14.2219 12.9419L13.5266 15.588L10.2574 16.6587Z" fill="white"/>
</svg>
