<svg width="16" height="20" viewBox="0 0 16 20" fill="none" xmlns="http://www.w3.org/2000/svg">
<path fill-rule="evenodd" clip-rule="evenodd" d="M7.99999 12C7.44799 12 6.99999 12.448 6.99999 13C6.99999 13.552 7.44799 14 7.99999 14C8.55199 14 8.99999 13.552 8.99999 13C8.99999 12.448 8.55199 12 7.99999 12ZM8.00001 16C6.34601 16 5.00001 14.654 5.00001 13C5.00001 11.346 6.34601 10 8.00001 10C9.65401 10 11 11.346 11 13C11 14.654 9.65401 16 8.00001 16ZM6 4.111C6 2.947 6.897 2 8 2C9.103 2 10 2.947 10 4.111V6H6V4.111ZM13 6H12V4.111C12 1.845 10.206 0 8 0C5.794 0 4 1.845 4 4.111V6H3C1.346 6 0 7.346 0 9V17C0 18.654 1.346 20 3 20H13C14.654 20 16 18.654 16 17V9C16 7.346 14.654 6 13 6Z" fill="#231F20"/>
<mask id="mask0" mask-type="alpha" maskUnits="userSpaceOnUse" x="0" y="0" width="16" height="20">
<path fill-rule="evenodd" clip-rule="evenodd" d="M7.99999 12C7.44799 12 6.99999 12.448 6.99999 13C6.99999 13.552 7.44799 14 7.99999 14C8.55199 14 8.99999 13.552 8.99999 13C8.99999 12.448 8.55199 12 7.99999 12ZM8.00001 16C6.34601 16 5.00001 14.654 5.00001 13C5.00001 11.346 6.34601 10 8.00001 10C9.65401 10 11 11.346 11 13C11 14.654 9.65401 16 8.00001 16ZM6 4.111C6 2.947 6.897 2 8 2C9.103 2 10 2.947 10 4.111V6H6V4.111ZM13 6H12V4.111C12 1.845 10.206 0 8 0C5.794 0 4 1.845 4 4.111V6H3C1.346 6 0 7.346 0 9V17C0 18.654 1.346 20 3 20H13C14.654 20 16 18.654 16 17V9C16 7.346 14.654 6 13 6Z" fill="white"/>
</mask>
<g mask="url(#mask0)">
<rect x="-4" y="-2" width="24" height="24" fill="#240046"/>
</g>
</svg>
