<svg width="32" height="32" viewBox="0 0 32 32" fill="none" xmlns="http://www.w3.org/2000/svg">
<path d="M30.9091 5.33325C30.9091 7.72656 28.7928 9.66674 26.1819 9.66674C23.571 9.66674 21.4547 7.72656 21.4547 5.33325C21.4547 2.94018 23.571 1 26.1819 1C28.7928 1 30.9091 2.94018 30.9091 5.33325Z" fill="white"/>
<path d="M26.1819 10.6667C22.9731 10.6667 20.3638 8.27465 20.3638 5.33324C20.3638 2.39209 22.9731 0 26.1819 0C29.3907 0 32 2.39209 32 5.33324C32 8.27465 29.3907 10.6667 26.1819 10.6667ZM26.1819 2C24.1761 2 22.5456 3.49609 22.5456 5.33324C22.5456 7.17064 24.1761 8.66673 26.1819 8.66673C28.1877 8.66673 29.8182 7.17064 29.8182 5.33324C29.8182 3.49609 28.1877 2 26.1819 2Z" fill="white"/>
<path d="M30.9091 26.6667C30.9091 29.0598 28.7928 31 26.1819 31C23.571 31 21.4547 29.0598 21.4547 26.6667C21.4547 24.2734 23.571 22.3333 26.1819 22.3333C28.7928 22.3333 30.9091 24.2734 30.9091 26.6667Z" fill="white"/>
<path d="M26.1819 32C22.9731 32 20.3638 29.6079 20.3638 26.6668C20.3638 23.7254 22.9731 21.3333 26.1819 21.3333C29.3907 21.3333 32 23.7254 32 26.6668C32 29.6079 29.3907 32 26.1819 32ZM26.1819 23.3333C24.1761 23.3333 22.5456 24.8294 22.5456 26.6668C22.5456 28.5039 24.1761 30 26.1819 30C28.1877 30 29.8182 28.5039 29.8182 26.6668C29.8182 24.8294 28.1877 23.3333 26.1819 23.3333Z" fill="white"/>
<path d="M10.5456 16C10.5456 18.3933 8.42903 20.3333 5.81814 20.3333C3.20751 20.3333 1.09094 18.3933 1.09094 16C1.09094 13.6067 3.20751 11.6667 5.81814 11.6667C8.42903 11.6667 10.5456 13.6067 10.5456 16Z" fill="white"/>
<path d="M5.81811 21.3333C2.60956 21.3333 0 18.9414 0 16C0 13.0586 2.60956 10.6667 5.81811 10.6667C9.02693 10.6667 11.6365 13.0586 11.6365 16C11.6365 18.9414 9.02693 21.3333 5.81811 21.3333ZM5.81811 12.6668C3.81233 12.6668 2.18182 14.1626 2.18182 16C2.18182 17.8374 3.81233 19.3333 5.81811 19.3333C7.82415 19.3333 9.45466 17.8374 9.45466 16C9.45466 14.1626 7.82415 12.6668 5.81811 12.6668Z" fill="white"/>
<path d="M9.25251 15.3601C8.7462 15.3601 8.25455 15.1187 7.98688 14.6868C7.58977 14.0481 7.83427 13.2334 8.531 12.8679L22.0276 5.81471C22.7243 5.44801 23.6131 5.67213 24.0118 6.31325C24.4089 6.95192 24.1644 7.76661 23.4676 8.13209L9.97081 15.1853C9.7439 15.304 9.49674 15.3601 9.25251 15.3601Z" fill="white"/>
<path d="M22.7478 26.3601C22.5033 26.3601 22.2561 26.304 22.0292 26.1853L8.53239 19.1321C7.83566 18.7681 7.59143 17.9534 7.98853 17.3132C8.38404 16.6733 9.27414 16.448 9.97247 16.8147L23.4693 23.8679C24.166 24.2319 24.4103 25.0466 24.0132 25.6868C23.7442 26.1187 23.2525 26.3601 22.7478 26.3601Z" fill="white"/>
</svg>
