<svg width="16" height="20" viewBox="0 0 16 20" fill="none" xmlns="http://www.w3.org/2000/svg">
<path fill-rule="evenodd" clip-rule="evenodd" d="M8 12C7.448 12 7 12.448 7 13C7 13.552 7.448 14 8 14C8.552 14 9 13.552 9 13C9 12.448 8.552 12 8 12ZM8 16C6.346 16 5 14.654 5 13C5 11.346 6.346 10 8 10C9.654 10 11 11.346 11 13C11 14.654 9.654 16 8 16ZM13 6H6V4C6 2.897 6.897 2 8 2C9.103 2 10 2.897 10 4C10 4.553 10.447 5 11 5C11.553 5 12 4.553 12 4C12 1.794 10.206 0 8 0C5.794 0 4 1.794 4 4V6H3C1.346 6 0 7.346 0 9V17C0 18.654 1.346 20 3 20H13C14.654 20 16 18.654 16 17V9C16 7.346 14.654 6 13 6Z" fill="#231F20"/>
<mask id="mask0" mask-type="alpha" maskUnits="userSpaceOnUse" x="0" y="0" width="16" height="20">
<path fill-rule="evenodd" clip-rule="evenodd" d="M8 12C7.448 12 7 12.448 7 13C7 13.552 7.448 14 8 14C8.552 14 9 13.552 9 13C9 12.448 8.552 12 8 12ZM8 16C6.346 16 5 14.654 5 13C5 11.346 6.346 10 8 10C9.654 10 11 11.346 11 13C11 14.654 9.654 16 8 16ZM13 6H6V4C6 2.897 6.897 2 8 2C9.103 2 10 2.897 10 4C10 4.553 10.447 5 11 5C11.553 5 12 4.553 12 4C12 1.794 10.206 0 8 0C5.794 0 4 1.794 4 4V6H3C1.346 6 0 7.346 0 9V17C0 18.654 1.346 20 3 20H13C14.654 20 16 18.654 16 17V9C16 7.346 14.654 6 13 6Z" fill="white"/>
</mask>
<g mask="url(#mask0)">
<rect x="-4" y="-2" width="24" height="24" fill="#240046"/>
</g>
</svg>
