<svg width="96" height="96" fill="none" xmlns="http://www.w3.org/2000/svg"><rect width="96" height="96" rx="48" fill="#F7931A"/><path d="M70.064 42.844c.953-6.828-4.13-10.322-11.117-12.863l2.224-9.211-5.559-1.27-2.223 8.893c-1.43-.318-3.017-.635-4.447-1.112l2.224-9.052-5.559-1.43-2.223 9.212c-1.27-.318-11.275-2.859-11.275-2.859l-1.43 5.876s4.13.953 3.97.953c2.224.635 2.7 2.064 2.541 3.176L30.997 58.25c-.318.635-.953 1.747-2.541 1.27 0 .16-4.13-.952-4.13-.952l-2.699 6.352s10.005 2.54 11.276 2.859l-2.383 9.21 5.559 1.43 2.223-9.211c1.588.476 3.017.794 4.447 1.111l-2.224 9.053 5.559 1.429 2.382-9.211c9.528 1.747 16.675 1.112 19.692-7.464 2.382-6.988-.159-10.958-5.082-13.499 3.494-.317 6.194-2.7 6.988-7.782zM57.359 60.79c-1.747 6.988-13.34 3.176-17.151 2.223l3.017-12.228c3.812.953 15.881 2.7 14.134 10.005zm1.747-17.946c-1.588 6.353-11.275 3.177-14.452 2.383l2.7-11.117c3.176.635 13.34 2.065 11.752 8.734z" fill="#fff"/></svg>