<svg width="96" height="62" fill="none" xmlns="http://www.w3.org/2000/svg"><rect width="96" height="62" rx="3" fill="#0F3560"/><path d="M56.398 46.234H39.6V15.77h16.798v30.465z" fill="#6C6BBD"/><path d="M40.676 31c0-6.18 2.867-11.685 7.332-15.233a19.007 19.007 0 00-11.864-4.143C25.54 11.624 16.946 20.3 16.946 31c0 10.701 8.595 19.375 19.198 19.375 4.478 0 8.6-1.548 11.864-4.142A19.406 19.406 0 0140.676 31z" fill="#EB001B"/><path d="M79.054 31c0 10.7-8.595 19.374-19.198 19.374-4.478 0-8.6-1.548-11.866-4.142A19.404 19.404 0 0055.324 31c0-6.18-2.867-11.685-7.334-15.233a19.013 19.013 0 0111.866-4.143C70.46 11.624 79.054 20.3 79.054 31z" fill="#0099DF"/><path d="M65.31 27.688c.274 0 .67.053.971.172l-.42 1.298a2.194 2.194 0 00-.854-.16c-.892 0-1.338.583-1.338 1.629v3.55h-1.365v-6.33h1.352v.768c.354-.556.866-.927 1.653-.927zm-5.045 1.417h-2.23v2.86c0 .635.222 1.06.905 1.06.355 0 .8-.12 1.207-.358l.393 1.178c-.433.305-1.114.491-1.705.491-1.615 0-2.178-.875-2.178-2.345v-2.886h-1.274v-1.258h1.274v-1.92h1.378v1.92h2.23v1.258zm-17.468 1.35c.145-.914.695-1.537 1.667-1.537.879 0 1.444.557 1.588 1.537h-3.255zm4.673.557c-.014-1.974-1.221-3.325-2.98-3.325-1.838 0-3.123 1.351-3.123 3.325 0 2.011 1.338 3.322 3.216 3.322.945 0 1.81-.238 2.571-.886l-.67-1.02a2.966 2.966 0 01-1.823.662c-.879 0-1.68-.41-1.876-1.55h4.658c.013-.172.027-.343.027-.528zm5.996-1.55c-.38-.239-1.153-.544-1.954-.544-.748 0-1.194.28-1.194.743 0 .423.472.543 1.062.622l.643.092c1.365.2 2.191.782 2.191 1.895 0 1.205-1.05 2.066-2.86 2.066-1.024 0-1.969-.265-2.717-.822l.643-1.073c.46.358 1.143.663 2.088.663.931 0 1.43-.278 1.43-.769 0-.356-.355-.556-1.103-.66l-.642-.093c-1.405-.2-2.167-.836-2.167-1.868 0-1.258 1.025-2.026 2.613-2.026.997 0 1.903.225 2.558.662l-.59 1.112zm16.832-.466c-.28 0-.54.05-.783.148-.24.1-.449.24-.624.419a1.943 1.943 0 00-.415.644c-.1.25-.15.526-.15.826 0 .302.05.576.15.826a1.879 1.879 0 001.04 1.063c.241.1.501.148.782.148s.542-.048.783-.148a1.876 1.876 0 001.047-1.063c.1-.25.15-.524.15-.826 0-.3-.05-.576-.15-.826a1.875 1.875 0 00-1.047-1.063 2.046 2.046 0 00-.783-.148zm0-1.308c.487 0 .937.084 1.352.256a3.22 3.22 0 011.786 1.761c.171.408.257.85.257 1.328 0 .477-.086.92-.257 1.328a3.227 3.227 0 01-.71 1.06 3.306 3.306 0 01-1.076.703 3.53 3.53 0 01-1.352.254 3.53 3.53 0 01-1.352-.254 3.267 3.267 0 01-1.07-.704 3.266 3.266 0 01-.708-1.06 3.393 3.393 0 01-.257-1.327c0-.478.085-.92.257-1.328a3.26 3.26 0 01.707-1.058c.3-.299.656-.534 1.071-.703a3.506 3.506 0 011.352-.256zm-35.475 3.324c0-1.113.723-2.027 1.903-2.027 1.129 0 1.89.875 1.89 2.027 0 1.152-.761 2.025-1.89 2.025-1.18 0-1.903-.913-1.903-2.025zm5.079 0v-3.165h-1.364v.768c-.434-.57-1.09-.927-1.981-.927-1.76 0-3.137 1.39-3.137 3.324 0 1.932 1.378 3.324 3.137 3.324.892 0 1.547-.358 1.981-.928v.769h1.364v-3.165zm-7.69 3.165v-3.973c0-1.496-.944-2.503-2.466-2.517-.8-.013-1.628.238-2.205 1.127-.433-.702-1.116-1.127-2.075-1.127-.668 0-1.325.199-1.837.94v-.78h-1.364v6.33h1.378v-3.51c0-1.098.604-1.682 1.535-1.682.906 0 1.365.596 1.365 1.669v3.523h1.378v-3.51c0-1.098.63-1.682 1.535-1.682.933 0 1.379.596 1.379 1.669v3.523h1.377z" fill="#fff"/></svg>