<svg width="96" height="62" fill="none" xmlns="http://www.w3.org/2000/svg"><rect width="96" height="62" rx="3" fill="#0F3560"/><path d="M56.377 46.237H39.58V15.772h16.798v30.465z" fill="#FF5F00"/><path d="M40.655 31.003c0-6.18 2.867-11.685 7.333-15.232a19.007 19.007 0 00-11.865-4.143c-10.603 0-19.198 8.674-19.198 19.375 0 10.7 8.595 19.375 19.198 19.375 4.478 0 8.6-1.548 11.865-4.143a19.406 19.406 0 01-7.333-15.232z" fill="#EB001B"/><path d="M79.033 31.003c0 10.7-8.595 19.375-19.197 19.375-4.48 0-8.6-1.548-11.867-4.143a19.403 19.403 0 007.334-15.232 19.4 19.4 0 00-7.334-15.232 19.013 19.013 0 0111.867-4.143c10.602 0 19.197 8.674 19.197 19.375z" fill="#F79E1B"/><path d="M31.371 31.125c0-.846.55-1.541 1.448-1.541.858 0 1.437.665 1.437 1.541 0 .877-.58 1.542-1.437 1.542-.898 0-1.448-.695-1.448-1.542zm3.863 0v-2.407h-1.037v.584c-.33-.433-.829-.705-1.507-.705-1.338 0-2.387 1.058-2.387 2.528 0 1.471 1.049 2.529 2.387 2.529.678 0 1.178-.272 1.507-.706v.585h1.037v-2.408zm35.06 0c0-.846.549-1.541 1.447-1.541.859 0 1.437.665 1.437 1.541 0 .877-.578 1.542-1.437 1.542-.898 0-1.448-.695-1.448-1.542zm3.863 0v-4.34H73.12v2.517c-.33-.433-.829-.705-1.507-.705-1.338 0-2.387 1.058-2.387 2.528 0 1.471 1.049 2.529 2.387 2.529.678 0 1.178-.272 1.507-.706v.585h1.038v-2.408zm-26.045-1.59c.669 0 1.098.422 1.208 1.167h-2.476c.11-.695.529-1.168 1.268-1.168zm.02-.938c-1.398 0-2.376 1.027-2.376 2.528 0 1.532 1.018 2.529 2.447 2.529.718 0 1.376-.181 1.956-.675l-.509-.776c-.4.322-.91.504-1.388.504-.669 0-1.278-.312-1.427-1.18h3.543c.01-.13.02-.261.02-.402-.01-1.5-.928-2.528-2.265-2.528zm12.528 2.528c0-.846.55-1.541 1.448-1.541.858 0 1.437.665 1.437 1.541 0 .877-.58 1.542-1.437 1.542-.898 0-1.448-.695-1.448-1.542zm3.863 0v-2.407h-1.037v.584c-.33-.433-.829-.705-1.508-.705-1.337 0-2.386 1.058-2.386 2.528 0 1.471 1.049 2.529 2.386 2.529.68 0 1.177-.272 1.508-.706v.585h1.037v-2.408zm-9.722 0c0 1.461 1.008 2.529 2.545 2.529.72 0 1.198-.162 1.717-.574l-.498-.847c-.39.283-.8.434-1.25.434-.828-.01-1.437-.615-1.437-1.542s.61-1.53 1.438-1.541c.45 0 .859.15 1.248.433l.499-.846c-.52-.413-.998-.574-1.717-.574-1.537 0-2.545 1.067-2.545 2.528zm13.376-2.528c-.599 0-.988.282-1.258.705v-.584h-1.028v4.815h1.038v-2.7c0-.796.34-1.239 1.018-1.239.21 0 .43.03.65.121l.32-.987a2.192 2.192 0 00-.74-.131zm-27.811.504c-.5-.332-1.188-.504-1.946-.504-1.21 0-1.987.584-1.987 1.541 0 .785.58 1.27 1.646 1.42l.49.071c.57.08.838.232.838.504 0 .372-.38.585-1.088.585-.719 0-1.237-.232-1.587-.504l-.489.815c.57.423 1.288.625 2.066.625 1.378 0 2.177-.655 2.177-1.572 0-.846-.629-1.289-1.667-1.44l-.49-.071c-.449-.06-.808-.15-.808-.473 0-.353.339-.564.908-.564.609 0 1.198.232 1.487.413l.45-.846zm13.386-.504c-.599 0-.988.282-1.257.705v-.584h-1.028v4.815h1.037v-2.7c0-.796.34-1.239 1.018-1.239.21 0 .43.03.65.121l.32-.987a2.19 2.19 0 00-.74-.131zm-8.854.12h-1.697v-1.46h-1.048v1.46h-.968v.958h.968v2.196c0 1.118.43 1.783 1.656 1.783.45 0 .97-.14 1.298-.373l-.3-.897a1.905 1.905 0 01-.918.273c-.519 0-.688-.323-.688-.806v-2.176h1.697v-.957zm-15.513 4.816V30.51c0-1.138-.718-1.904-1.877-1.914-.609-.01-1.237.18-1.677.856-.33-.533-.848-.856-1.577-.856-.51 0-1.008.15-1.397.715v-.594h-1.039v4.815h1.048v-2.67c0-.835.46-1.28 1.169-1.28.689 0 1.037.454 1.037 1.27v2.68h1.05v-2.67c0-.835.478-1.28 1.167-1.28.708 0 1.047.454 1.047 1.27v2.68h1.05z" fill="#fff"/></svg>