<svg width="32" height="32" viewBox="0 0 32 32" fill="none" xmlns="http://www.w3.org/2000/svg">
<path d="M3.42856 14.1707L12.988 21.4221L15.6571 19.397C15.7564 19.3217 15.8777 19.281 16.0023 19.281C16.1269 19.281 16.2481 19.3217 16.3474 19.397L19.0143 21.4199L28.5714 14.1707V3.28271H3.42856V14.1707ZM16 6.13986C17.3635 6.14137 18.6707 6.68369 19.6349 7.64784C20.599 8.61198 21.1413 9.91921 21.1428 11.2827V12.4256C21.1435 12.7974 21.0229 13.1593 20.7995 13.4565C20.576 13.7537 20.2618 13.97 19.9044 14.0727C19.5471 14.1754 19.1659 14.1589 18.8188 14.0256C18.4717 13.8923 18.1774 13.6496 17.9806 13.3341C17.5063 13.7895 16.8893 14.0669 16.234 14.1196C15.5787 14.1722 14.9253 13.9968 14.3845 13.623C13.8436 13.2492 13.4486 12.7 13.2662 12.0683C13.0838 11.4367 13.1253 10.7614 13.3836 10.1569C13.6419 9.55233 14.1012 9.05561 14.6838 8.75082C15.2663 8.44603 15.9362 8.35189 16.5802 8.48434C17.2241 8.61679 17.8025 8.9677 18.2175 9.47765C18.6324 9.98761 18.8584 10.6253 18.8571 11.2827V12.4256C18.8571 12.5771 18.9173 12.7225 19.0245 12.8296C19.1317 12.9368 19.277 12.997 19.4286 12.997C19.5801 12.997 19.7255 12.9368 19.8326 12.8296C19.9398 12.7225 20 12.5771 20 12.4256V11.2827C20 10.4916 19.7654 9.71823 19.3259 9.06043C18.8863 8.40264 18.2616 7.88995 17.5307 7.5872C16.7998 7.28445 15.9955 7.20523 15.2196 7.35957C14.4437 7.51391 13.731 7.89488 13.1716 8.45429C12.6121 9.0137 12.2312 9.72643 12.0768 10.5024C11.9225 11.2783 12.0017 12.0825 12.3045 12.8134C12.6072 13.5444 13.1199 14.1691 13.7777 14.6086C14.4355 15.0481 15.2089 15.2827 16 15.2827H17.7143C17.8658 15.2827 18.0112 15.3429 18.1183 15.4501C18.2255 15.5572 18.2857 15.7026 18.2857 15.8541C18.2857 16.0057 18.2255 16.151 18.1183 16.2582C18.0112 16.3654 17.8658 16.4256 17.7143 16.4256H16C14.636 16.4256 13.3279 15.8837 12.3634 14.9193C11.399 13.9548 10.8571 12.6467 10.8571 11.2827C10.8571 9.91874 11.399 8.61064 12.3634 7.64617C13.3279 6.68169 14.636 6.13986 16 6.13986Z" fill="#008CC9"/>
<path d="M16 12.9969C16.9468 12.9969 17.7143 12.2294 17.7143 11.2826C17.7143 10.3359 16.9468 9.56836 16 9.56836C15.0532 9.56836 14.2857 10.3359 14.2857 11.2826C14.2857 12.2294 15.0532 12.9969 16 12.9969Z" fill="#008CC9"/>
<path d="M0.374298 11.8545L2.28573 13.3042V10.4048L0.374298 11.8545Z" fill="#008CC9"/>
<path d="M0 31.2746L12.0423 22.1392L0 13.0049V31.2746Z" fill="#008CC9"/>
<path d="M29.7143 13.3041L31.6257 11.8544L29.7143 10.4053V13.3041Z" fill="#008CC9"/>
<path d="M32 13.0049L19.9577 22.1392L32 31.2746V13.0049Z" fill="#008CC9"/>
<path d="M16 20.5713L1.12744 31.8541H30.8726L16 20.5713Z" fill="#008CC9"/>
<path d="M13.1789 2.14H18.8211L16 0L13.1789 2.14Z" fill="#008CC9"/>
</svg>
