<svg width="32" height="32" viewBox="0 0 32 32" fill="none" xmlns="http://www.w3.org/2000/svg">
<path d="M16 4.6875C14.4492 4.6875 13.1875 5.94922 13.1875 7.5C13.1875 9.05078 14.4492 10.3125 16 10.3125C17.5508 10.3125 18.8125 9.05078 18.8125 7.5C18.8125 5.94922 17.5508 4.6875 16 4.6875Z" fill="#008CC9"/>
<path d="M16 0C11.8645 0 8.5 3.3645 8.5 7.5C8.5 8.91821 8.89819 10.2998 9.65186 11.4954L16 21.625L22.3481 11.4954C23.1018 10.2998 23.5 8.91821 23.5 7.5C23.5 3.3645 20.1355 0 16 0ZM16 12.1875C13.4155 12.1875 11.3125 10.0845 11.3125 7.5C11.3125 4.91553 13.4155 2.8125 16 2.8125C18.5845 2.8125 20.6875 4.91553 20.6875 7.5C20.6875 10.0845 18.5845 12.1875 16 12.1875Z" fill="#008CC9"/>
<path d="M11.4373 32H20.5596L19.8386 26.3125H12.1401L11.4373 32Z" fill="#008CC9"/>
<path d="M12.3745 24.4373H15.5566L12.9011 20.2256L12.3745 24.4373Z" fill="#008CC9"/>
<path d="M21.4893 24.4375H28.8752L26.5315 18.8125H20.7678L21.4893 24.4375Z" fill="#008CC9"/>
<path d="M3.12476 24.4375H10.4851L11.1882 18.8125H5.46851L3.12476 24.4375Z" fill="#008CC9"/>
<path d="M16.4434 24.4375H19.5981L19.0652 20.2798L16.4434 24.4375Z" fill="#008CC9"/>
<path d="M10.2507 26.3125H2.34351L0 32H9.54785L10.2507 26.3125Z" fill="#008CC9"/>
<path d="M29.6565 26.3125H21.7295L22.4507 32H32L29.6565 26.3125Z" fill="#008CC9"/>
</svg>
