<svg width="96" height="96" viewBox="0 0 96 96" fill="none" xmlns="http://www.w3.org/2000/svg">
<rect width="96" height="96" rx="48" fill="#F7931A"/>
<path d="M70.0639 42.8445C71.0167 36.0157 65.9349 32.5219 58.9473 29.9809L61.1706 20.77L55.6123 19.4996L53.389 28.3929C51.9597 28.0752 50.3716 27.7576 48.9423 27.2812L51.1656 18.2291L45.6073 16.7998L43.384 26.0107C42.1135 25.6931 32.1086 23.1522 32.1086 23.1522L30.6793 29.0281C30.6793 29.0281 34.8083 29.9809 34.6495 29.9809C36.8728 30.6162 37.3492 32.0455 37.1904 33.1571L30.9969 58.2489C30.6793 58.8842 30.044 59.9958 28.4559 59.5194C28.4559 59.6782 24.3269 58.5666 24.3269 58.5666L21.6272 64.9189C21.6272 64.9189 31.6321 67.4599 32.9026 67.7775L30.5205 76.9884L36.0788 78.4177L38.3021 69.2068C39.8902 69.6832 41.3195 70.0008 42.7488 70.3184L40.5254 79.3705L46.0837 80.7998L48.4659 71.5889C57.9944 73.3358 65.1408 72.7006 68.1582 64.1249C70.5403 57.1373 67.9994 53.167 63.0763 50.6261C66.5701 50.3085 69.2698 47.9264 70.0639 42.8445ZM57.3592 60.7899C55.6123 67.7775 44.0192 63.9661 40.2078 63.0132L43.2252 50.7849C47.0366 51.7378 59.1061 53.4847 57.3592 60.7899ZM59.1061 42.8445C57.518 49.1968 47.8306 46.0206 44.6545 45.2266L47.3542 34.11C50.5304 34.7452 60.6942 36.1745 59.1061 42.8445Z" fill="white"/>
</svg>
