<svg width="96" height="96" viewBox="0 0 96 96" fill="none" xmlns="http://www.w3.org/2000/svg">
<path d="M48 96C74.5097 96 96 74.5097 96 48C96 21.4903 74.5097 0 48 0C21.4903 0 0 21.4903 0 48C0 74.5097 21.4903 96 48 96Z" fill="#008CE7"/>
<path d="M57.258 24.0117H35.43L33.624 34.1127L53.31 34.1427C63.003 34.1427 65.88 37.6617 65.787 43.5027C65.745 46.4967 64.44 51.5607 63.888 53.1927C62.397 57.5727 59.325 62.5587 47.811 62.5437L28.677 62.5317L26.871 72.6447H48.642C56.319 72.6447 59.589 71.7477 63.042 70.1547C70.704 66.6207 75.267 59.0517 77.1 49.1727C79.818 34.4727 76.428 24.0117 57.255 24.0117H57.258Z" fill="white"/>
<path d="M47.421 47.3939C48.132 44.4389 48.357 43.2539 48.357 43.2539H26.019C20.307 43.2539 19.491 46.9739 18.948 49.2239C18.237 52.1669 18.012 53.3669 18.012 53.3669H40.353C46.062 53.3669 46.878 49.6469 47.421 47.3939Z" fill="white"/>
</svg>
