<svg width="96" height="96" viewBox="0 0 96 96" fill="none" xmlns="http://www.w3.org/2000/svg">
<rect width="96" height="96" rx="48" fill="#A5A8A9"/>
<path d="M47.7615 49.3173L42.9907 65.4157H68.5085C69.2297 65.4157 69.8177 66.0037 69.8177 66.7248C69.8177 66.8469 69.7955 66.9689 69.7622 67.091L67.5433 74.7352C67.3214 75.4896 66.6335 76 65.8569 76H26.8813L33.4715 53.7441L26.1823 55.963L27.791 50.7596L35.0913 48.5407L44.3443 17.2759C44.5551 16.5214 45.243 16 46.0196 16H55.8939C56.615 16 57.203 16.5769 57.203 17.3092C57.203 17.4312 57.1919 17.5533 57.1586 17.6642L49.3924 44.1028L56.6816 41.8839L55.1172 47.176L47.7615 49.3173Z" fill="white"/>
</svg>
