<svg width="96" height="62" viewBox="0 0 96 62" fill="none" xmlns="http://www.w3.org/2000/svg">
<rect width="96" height="62" rx="3" fill="#0F3560"/>
<path d="M56.3983 46.2344H39.5998V15.7695H56.3983V46.2344Z" fill="#6C6BBD"/>
<path d="M40.6759 30.9995C40.6759 24.8196 43.5433 19.3146 48.0085 15.7671C44.7432 13.1729 40.6222 11.6245 36.1436 11.6245C25.5408 11.6245 16.946 20.2989 16.946 30.9995C16.946 41.7002 25.5408 50.3745 36.1436 50.3745C40.6222 50.3745 44.7432 48.8261 48.0085 46.232C43.5433 42.6844 40.6759 37.1795 40.6759 30.9995Z" fill="#EB001B"/>
<path d="M79.0539 30.9995C79.0539 41.7002 70.4591 50.3745 59.8563 50.3745C55.3777 50.3745 51.2567 48.8261 47.9902 46.232C52.4566 42.6844 55.324 37.1795 55.324 30.9995C55.324 24.8196 52.4566 19.3146 47.9902 15.7671C51.2567 13.1729 55.3777 11.6245 59.8563 11.6245C70.4591 11.6245 79.0539 20.2989 79.0539 30.9995Z" fill="#0099DF"/>
<path d="M65.3094 27.6875C65.5843 27.6875 65.9794 27.7405 66.2813 27.8603L65.8607 29.1578C65.5723 29.0381 65.2839 28.9987 65.0075 28.9987C64.1152 28.9987 63.6691 29.5808 63.6691 30.6267V34.1768H62.3036V27.8466H63.6555V28.6152C64.01 28.0589 64.5223 27.6875 65.3094 27.6875ZM60.2652 29.1048H58.0345V31.9652C58.0345 32.6003 58.2568 33.0248 58.9403 33.0248C59.2948 33.0248 59.7409 32.905 60.1465 32.667L60.5401 33.8448C60.1074 34.1495 59.4255 34.336 58.8351 34.336C57.2203 34.336 56.657 33.4613 56.657 31.991V29.1048H55.3832V27.8466H56.657V25.9261H58.0345V27.8466H60.2652V29.1048ZM42.7966 30.4554C42.9423 29.5414 43.4921 28.9183 44.464 28.9183C45.3428 28.9183 45.9076 29.4747 46.0518 30.4554H42.7966ZM47.4698 31.0117C47.4563 29.0381 46.2486 27.6875 44.4895 27.6875C42.6524 27.6875 41.3666 29.0381 41.3666 31.0117C41.3666 33.0233 42.705 34.3345 44.5827 34.3345C45.5275 34.3345 46.3928 34.0965 47.1544 33.4477L46.4844 32.4275C45.9601 32.852 45.2902 33.0899 44.6608 33.0899C43.782 33.0899 42.9814 32.6792 42.7846 31.5408H47.4428C47.4563 31.3679 47.4698 31.1967 47.4698 31.0117ZM53.4664 29.4625C53.0864 29.223 52.3128 28.9183 51.5121 28.9183C50.764 28.9183 50.3179 29.1973 50.3179 29.6611C50.3179 30.084 50.7896 30.2038 51.3799 30.2826L52.0228 30.3751C53.3883 30.5752 54.2145 31.1572 54.2145 32.2699C54.2145 33.475 53.1645 34.336 51.3544 34.336C50.3299 34.336 49.3851 34.0707 48.637 33.5144L49.2799 32.4412C49.7396 32.7989 50.4231 33.1036 51.3679 33.1036C52.2992 33.1036 52.798 32.8262 52.798 32.3351C52.798 31.9788 52.4435 31.7787 51.6954 31.6741L51.0525 31.5817C49.6479 31.3816 48.8863 30.7464 48.8863 29.7142C48.8863 28.456 49.9108 27.6875 51.4986 27.6875C52.496 27.6875 53.4018 27.9133 54.0568 28.3499L53.4664 29.4625ZM70.2981 28.9956C70.0172 28.9956 69.7573 29.0457 69.5154 29.1442C69.2751 29.2442 69.0663 29.3837 68.8905 29.5626C68.7148 29.7414 68.5766 29.9567 68.4759 30.2068C68.3753 30.4569 68.3257 30.7328 68.3257 31.0329C68.3257 31.3346 68.3753 31.609 68.4759 31.8591C68.5766 32.1092 68.7148 32.3244 68.8905 32.5033C69.0663 32.6822 69.2751 32.8216 69.5154 32.9217C69.7573 33.0217 70.0172 33.0702 70.2981 33.0702C70.579 33.0702 70.8403 33.0217 71.0807 32.9217C71.3225 32.8216 71.5328 32.6822 71.7086 32.5033C71.8873 32.3244 72.0255 32.1092 72.1277 31.8591C72.2283 31.609 72.2779 31.3346 72.2779 31.0329C72.2779 30.7328 72.2283 30.4569 72.1277 30.2068C72.0255 29.9567 71.8873 29.7414 71.7086 29.5626C71.5328 29.3837 71.3225 29.2442 71.0807 29.1442C70.8403 29.0457 70.579 28.9956 70.2981 28.9956ZM70.2981 27.6875C70.7848 27.6875 71.2354 27.7724 71.65 27.9437C72.0646 28.1134 72.4236 28.3484 72.7255 28.647C73.029 28.9456 73.2648 29.2988 73.4361 29.7051C73.6073 30.1128 73.6929 30.5555 73.6929 31.0329C73.6929 31.5104 73.6073 31.9531 73.4361 32.3608C73.2648 32.7671 73.029 33.1218 72.7255 33.4204C72.4236 33.719 72.0646 33.9525 71.65 34.1238C71.2354 34.2935 70.7848 34.3784 70.2981 34.3784C69.8114 34.3784 69.3607 34.2935 68.9461 34.1238C68.5315 33.9525 68.1755 33.719 67.8751 33.4204C67.5747 33.1218 67.3388 32.7671 67.1676 32.3608C66.9963 31.9531 66.9107 31.5104 66.9107 31.0329C66.9107 30.5555 66.9963 30.1128 67.1676 29.7051C67.3388 29.2988 67.5747 28.9456 67.8751 28.647C68.1755 28.3484 68.5315 28.1134 68.9461 27.9437C69.3607 27.7724 69.8114 27.6875 70.2981 27.6875ZM34.8232 31.0117C34.8232 29.8991 35.5457 28.985 36.7264 28.985C37.8545 28.985 38.6161 29.8597 38.6161 31.0117C38.6161 32.1638 37.8545 33.0369 36.7264 33.0369C35.5457 33.0369 34.8232 32.1244 34.8232 31.0117ZM39.902 31.0117V27.8466H38.538V28.6152C38.1039 28.0452 37.4489 27.6875 36.5567 27.6875C34.7976 27.6875 33.4202 29.0775 33.4202 31.0117C33.4202 32.9444 34.7976 34.336 36.5567 34.336C37.4489 34.336 38.1039 33.9782 38.538 33.4083V34.1768H39.902V31.0117ZM32.2124 34.1768V30.2038C32.2124 28.7076 31.2676 27.7011 29.7459 27.6875C28.9452 27.6738 28.1176 27.9255 27.5407 28.8137C27.1081 28.1119 26.4246 27.6875 25.4663 27.6875C24.7978 27.6875 24.1414 27.886 23.6291 28.6273V27.8466H22.2652V34.1768H23.6426V30.6676C23.6426 29.5686 24.2465 28.985 25.1778 28.985C26.0836 28.985 26.5433 29.5808 26.5433 30.654V34.1768H27.9208V30.6676C27.9208 29.5686 28.5517 28.985 29.456 28.985C30.3888 28.985 30.835 29.5808 30.835 30.654V34.1768H32.2124Z" fill="white"/>
</svg>
