<svg width="96" height="62" viewBox="0 0 96 62" fill="none" xmlns="http://www.w3.org/2000/svg">
<rect width="96" height="62" rx="3" fill="#0F3560"/>
<path d="M56.3774 46.2373H39.5789V15.7725H56.3774V46.2373Z" fill="#FF5F00"/>
<path d="M40.6551 31.0029C40.6551 24.823 43.5224 19.3181 47.9877 15.7705C44.7224 13.1763 40.6014 11.6279 36.1227 11.6279C25.5199 11.6279 16.9252 20.3023 16.9252 31.0029C16.9252 41.7036 25.5199 50.3779 36.1227 50.3779C40.6014 50.3779 44.7224 48.8296 47.9877 46.2354C43.5224 42.6878 40.6551 37.1829 40.6551 31.0029Z" fill="#EB001B"/>
<path d="M79.0332 31.0029C79.0332 41.7036 70.4384 50.3779 59.8356 50.3779C55.3569 50.3779 51.2359 48.8296 47.9694 46.2354C52.4359 42.6878 55.3032 37.1829 55.3032 31.0029C55.3032 24.823 52.4359 19.3181 47.9694 15.7705C51.2359 13.1763 55.3569 11.6279 59.8356 11.6279C70.4384 11.6279 79.0332 20.3023 79.0332 31.0029Z" fill="#F79E1B"/>
<path d="M31.3712 31.1253C31.3712 30.279 31.9208 29.5838 32.8188 29.5838C33.6769 29.5838 34.2562 30.249 34.2562 31.1253C34.2562 32.0016 33.6769 32.6668 32.8188 32.6668C31.9208 32.6668 31.3712 31.9716 31.3712 31.1253ZM35.2343 31.1253V28.7179H34.1968V29.3024C33.8677 28.8689 33.3684 28.5968 32.6897 28.5968C31.3518 28.5968 30.3029 29.6552 30.3029 31.1253C30.3029 32.5965 31.3518 33.6538 32.6897 33.6538C33.3684 33.6538 33.8677 33.3817 34.1968 32.9482V33.5327H35.2343V31.1253ZM70.2931 31.1253C70.2931 30.279 70.8426 29.5838 71.7407 29.5838C72.5999 29.5838 73.1781 30.249 73.1781 31.1253C73.1781 32.0016 72.5999 32.6668 71.7407 32.6668C70.8426 32.6668 70.2931 31.9716 70.2931 31.1253ZM74.1572 31.1253V26.7843H73.1186V29.3024C72.7896 28.8689 72.2903 28.5968 71.6116 28.5968C70.2736 28.5968 69.2247 29.6552 69.2247 31.1253C69.2247 32.5965 70.2736 33.6538 71.6116 33.6538C72.2903 33.6538 72.7896 33.3817 73.1186 32.9482V33.5327H74.1572V31.1253ZM48.1122 29.5342C48.7806 29.5342 49.2102 29.9573 49.3199 30.7022H46.844C46.9548 30.0069 47.373 29.5342 48.1122 29.5342ZM48.1328 28.5968C46.7343 28.5968 45.7562 29.6241 45.7562 31.1253C45.7562 32.6565 46.7743 33.6538 48.2025 33.6538C48.9212 33.6538 49.5793 33.4728 50.1586 32.9793L49.6501 32.2033C49.2502 32.525 48.7406 32.7072 48.2619 32.7072C47.5935 32.7072 46.9845 32.3947 46.8348 31.5277H50.378C50.3882 31.3974 50.3985 31.266 50.3985 31.1253C50.3882 29.6241 49.4696 28.5968 48.1328 28.5968ZM60.66 31.1253C60.66 30.279 61.2096 29.5838 62.1076 29.5838C62.9657 29.5838 63.545 30.249 63.545 31.1253C63.545 32.0016 62.9657 32.6668 62.1076 32.6668C61.2096 32.6668 60.66 31.9716 60.66 31.1253ZM64.523 31.1253V28.7179H63.4856V29.3024C63.1554 28.8689 62.6572 28.5968 61.9785 28.5968C60.6406 28.5968 59.5917 29.6552 59.5917 31.1253C59.5917 32.5965 60.6406 33.6538 61.9785 33.6538C62.6572 33.6538 63.1554 33.3817 63.4856 32.9482V33.5327H64.523V31.1253ZM54.8009 31.1253C54.8009 32.5861 55.8086 33.6538 57.3465 33.6538C58.0652 33.6538 58.5439 33.4924 59.0627 33.0796L58.5645 32.2333C58.1749 32.5158 57.7659 32.6668 57.3157 32.6668C56.4873 32.6565 55.8783 32.0523 55.8783 31.1253C55.8783 30.1983 56.4873 29.5941 57.3157 29.5838C57.7659 29.5838 58.1749 29.7348 58.5645 30.0173L59.0627 29.171C58.5439 28.7582 58.0652 28.5968 57.3465 28.5968C55.8086 28.5968 54.8009 29.6645 54.8009 31.1253ZM68.177 28.5968C67.5783 28.5968 67.1887 28.8793 66.919 29.3024V28.7179H65.8907V33.5327H66.9293V30.8336C66.9293 30.0369 67.2687 29.5941 67.9473 29.5941C68.1576 29.5941 68.377 29.6241 68.5963 29.7152L68.9163 28.7282C68.6866 28.6371 68.3872 28.5968 68.177 28.5968ZM40.3656 29.1006C39.8663 28.7686 39.1784 28.5968 38.4198 28.5968C37.2109 28.5968 36.4328 29.1814 36.4328 30.1383C36.4328 30.9235 37.0121 31.4078 38.0793 31.5588L38.5694 31.6292C39.1384 31.7099 39.4069 31.8609 39.4069 32.133C39.4069 32.5054 39.0276 32.7176 38.3192 32.7176C37.6005 32.7176 37.0818 32.4858 36.7322 32.2137L36.2432 33.0289C36.8122 33.452 37.5308 33.6538 38.3089 33.6538C39.6869 33.6538 40.4855 32.9989 40.4855 32.0823C40.4855 31.236 39.8571 30.7932 38.8185 30.6422L38.3295 30.5707C37.8805 30.5108 37.5206 30.4208 37.5206 30.098C37.5206 29.7452 37.8599 29.5342 38.4289 29.5342C39.0379 29.5342 39.6275 29.7659 39.9165 29.9469L40.3656 29.1006ZM53.752 28.5968C53.1533 28.5968 52.7637 28.8793 52.4951 29.3024V28.7179H51.4668V33.5327H52.5043V30.8336C52.5043 30.0369 52.8436 29.5941 53.5223 29.5941C53.7326 29.5941 53.9519 29.6241 54.1713 29.7152L54.4912 28.7282C54.2616 28.6371 53.9622 28.5968 53.752 28.5968ZM44.8982 28.7179H43.2014V27.257H42.1526V28.7179H41.1848V29.6748H42.1526V31.8713C42.1526 32.9885 42.5822 33.6538 43.8093 33.6538C44.2595 33.6538 44.7782 33.5131 45.1073 33.2814L44.8079 32.3844C44.4983 32.5654 44.1589 32.6565 43.8893 32.6565C43.3705 32.6565 43.2014 32.3336 43.2014 31.8505V29.6748H44.8982V28.7179ZM29.3854 33.5327V30.5108C29.3854 29.3728 28.6667 28.6072 27.5082 28.5968C26.8992 28.5864 26.2708 28.7778 25.8309 29.4535C25.5018 28.9196 24.9831 28.5968 24.2541 28.5968C23.7445 28.5968 23.2464 28.7478 22.8567 29.3116V28.7179H21.8181V33.5327H22.8659V30.8636C22.8659 30.0277 23.3252 29.5838 24.0347 29.5838C24.7237 29.5838 25.0722 30.0369 25.0722 30.8532V33.5327H26.1211V30.8636C26.1211 30.0277 26.5998 29.5838 27.2888 29.5838C27.9972 29.5838 28.3365 30.0369 28.3365 30.8532V33.5327H29.3854Z" fill="white"/>
</svg>
