<svg width="32" height="32" fill="none" xmlns="http://www.w3.org/2000/svg"><g clip-path="url(#clip0)"><path d="M25.667 0H6.333a3.67 3.67 0 00-3.666 3.667v24.666A3.67 3.67 0 006.333 32h19.334a3.67 3.67 0 003.666-3.667V3.667A3.67 3.67 0 0025.667 0zM13.04 24.96a1 1 0 01-1.413 1.413l-.96-.958-.96.96a.997.997 0 01-1.414-.002 1 1 0 010-1.414l.96-.959-.96-.96a1 1 0 111.414-1.415l.96.96.96-.96a1 1 0 011.414 1.415l-.96.96.96.96zM12.333 17h-.666v.667a1 1 0 01-2 0V17H9a1 1 0 010-2h.667v-.667a1 1 0 012 0V15h.666a1 1 0 010 2zM23 26.667h-3.333a1 1 0 010-2H23a1 1 0 010 2zm0-3.334h-3.333a1 1 0 010-2H23a1 1 0 010 2zm0-6h-3.333a1 1 0 010-2H23a1 1 0 010 2zm2.333-9A2.336 2.336 0 0123 10.667H9a2.336 2.336 0 01-2.333-2.334v-2A2.336 2.336 0 019 4h14a2.336 2.336 0 012.333 2.333v2z" fill="#fff"/></g><defs><clipPath id="clip0"><path fill="#fff" d="M0 0h32v32H0z"/></clipPath></defs></svg>