<svg width="32" height="32" fill="none" xmlns="http://www.w3.org/2000/svg"><path d="M12.333 0h-10A2.336 2.336 0 000 2.333v6a2.336 2.336 0 002.333 2.334h10a2.336 2.336 0 002.334-2.334v-6A2.336 2.336 0 0012.333 0zm0 13.333h-10A2.336 2.336 0 000 15.667v14A2.336 2.336 0 002.333 32h10a2.336 2.336 0 002.334-2.333v-14a2.336 2.336 0 00-2.334-2.334zm17.334 8h-10a2.336 2.336 0 00-2.334 2.334v6A2.336 2.336 0 0019.667 32h10A2.336 2.336 0 0032 29.667v-6a2.336 2.336 0 00-2.333-2.334zm0-21.333h-10a2.336 2.336 0 00-2.334 2.333v14a2.336 2.336 0 002.334 2.334h10A2.336 2.336 0 0032 16.333v-14A2.336 2.336 0 0029.667 0z" fill="#fff"/></svg>