<svg width="32" height="32" fill="none" xmlns="http://www.w3.org/2000/svg"><path d="M6.656 6h10.688l2.307-1.845a2.306 2.306 0 00.746-2.594A2.302 2.302 0 0018.2 0H5.8a2.303 2.303 0 00-2.197 1.561 2.305 2.305 0 00.745 2.592L6.656 6zm16.011 10.24l-.88.88c-.56.573-1.32.88-2.12.88s-1.56-.307-2.12-.88a2.994 2.994 0 010-4.24l2.2-2.2c-.68-1-1.427-1.907-2.227-2.68H6.48C2.827 11.573 0 17.853 0 23c0 4.48 2.373 9 7.667 9h9C21.187 32 24 28.547 24 23c0-2.147-.493-4.493-1.333-6.76zM11.493 19h1.014a2.828 2.828 0 012.826 2.827c0 1.4-1.013 2.56-2.333 2.786v1.054c0 .546-.453 1-1 1-.547 0-1-.454-1-1v-1H9.667c-.547 0-1-.454-1-1 0-.547.453-1 1-1h2.84a.834.834 0 000-1.667h-1.014a2.828 2.828 0 01-2.826-2.827c0-1.4 1.013-2.56 2.333-2.786v-1.054c0-.546.453-1 1-1 .547 0 1 .454 1 1v1h1.333c.547 0 1 .454 1 1 0 .547-.453 1-1 1h-2.84a.834.834 0 000 1.667z" fill="#fff"/><path d="M29.667 8h-3.334a1.001 1.001 0 00-.706 1.707l.864.864-1.298 1.197-1.697-.97a.997.997 0 00-1.203.162l-3.333 3.333a1 1 0 001.413 1.415l2.794-2.793 1.669.954a.998.998 0 001.175-.133l1.894-1.748 1.054 1.053a1.005 1.005 0 001.09.216 1 1 0 00.618-.924V9a1 1 0 00-1-1z" fill="#fff"/></svg>