<svg width="32" height="32" fill="none" xmlns="http://www.w3.org/2000/svg"><path d="M32 21.656c0-3.97-2.278-7.515-5.69-9.238-.106 7.613-6.279 13.786-13.892 13.892A10.37 10.37 0 0021.655 32c1.862 0 3.673-.496 5.263-1.438l5.036 1.393-1.393-5.036A10.306 10.306 0 0032 21.656z" fill="#fff"/><path d="M24.438 12.219C24.438 5.48 18.956 0 12.217 0 5.482 0 0 5.481 0 12.219c0 2.196.584 4.333 1.694 6.21l-1.65 5.963 5.964-1.649a12.181 12.181 0 006.21 1.695c6.738 0 12.22-5.482 12.22-12.22zM10.344 9.375H8.469a3.754 3.754 0 013.75-3.75 3.754 3.754 0 013.75 3.75 3.76 3.76 0 01-1.22 2.767L13.156 13.6v1.463h-1.875v-2.288l2.202-2.016A1.877 1.877 0 0012.218 7.5a1.877 1.877 0 00-1.874 1.875zm.937 7.563h1.875v1.875h-1.875v-1.875z" fill="#fff"/></svg>