<svg xmlns="http://www.w3.org/2000/svg" width="32" height="32" viewBox="0 0 24 24"><g xmlns="http://www.w3.org/2000/svg" fill="#fff"><path d="M15 13a1 1 0 00-1 1v4c0 .551-.448 1-1 1h-3V4c0-.854-.544-1.617-1.362-1.901L8.342 2H13c.552 0 1 .449 1 1v3a1 1 0 102 0V3c0-1.654-1.346-3-3-3H2.25c-.038 0-.07.017-.107.022C2.095.018 2.049 0 2 0 .897 0 0 .897 0 2v18c0 .854.544 1.617 1.362 1.901l6.018 2.006c.204.063.407.093.62.093 1.103 0 2-.897 2-2v-1h3c1.654 0 3-1.346 3-3v-4a1 1 0 00-1-1z" data-original="#000000"/><path d="M23.707 9.293l-4-4A1 1 0 0018 6v3h-4a1 1 0 000 2h4v3a1.002 1.002 0 001.707.707l4-4a.999.999 0 000-1.414z" data-original="#000000"/></g></svg>