<svg width="32" height="32" fill="none" xmlns="http://www.w3.org/2000/svg"><g clip-path="url(#clip0)" fill="#fff"><path d="M31.366 16.695a15.465 15.465 0 00-3.727-6.366l.514-.514a.923.923 0 000-1.305L23.49 3.847a.923.923 0 00-1.305 0l-.514.514A15.466 15.466 0 0015.305.634a15.46 15.46 0 00-7.581-.3.923.923 0 00-.022 1.802l.904.215a13.561 13.561 0 016.457 3.606l2.506 2.506-.28.28a.923.923 0 000 1.305l4.663 4.663c.36.36.945.36 1.305 0l.28-.28 2.506 2.506a13.562 13.562 0 013.607 6.457l.214.904c.1.416.471.71.898.71h.012a.923.923 0 00.891-.732 15.462 15.462 0 00-.299-7.581zm-5.518 7.074a2.657 2.657 0 00-2.654-2.654h-.116V19.96a.923.923 0 00-1.846 0v1.154h-1.846a.923.923 0 00-.924.923v6.923c0 .51.414.924.924.924h1.846v1.153a.923.923 0 001.846 0v-1.154h.116a2.657 2.657 0 002.654-2.654c0-.66-.244-1.265-.645-1.73.401-.465.645-1.07.645-1.731zm-2.654 4.27h-2.885v-1.616h2.884a.809.809 0 010 1.615zm0-3.462h-2.885V22.96h2.884a.809.809 0 010 1.616zm-6.931-12.943L.27 27.627a.923.923 0 000 1.305l2.798 2.798a.92.92 0 001.305 0l15.993-15.993-4.103-4.103z"/></g><defs><clipPath id="clip0"><path fill="#fff" d="M0 0h32v32H0z"/></clipPath></defs></svg>