<svg width="32" height="32" fill="none" xmlns="http://www.w3.org/2000/svg"><path d="M26.253 0H5.747A5.754 5.754 0 000 5.747v20.506A5.754 5.754 0 005.747 32h20.506A5.754 5.754 0 0032 26.253V5.747A5.754 5.754 0 0026.253 0zm.79 24.973H16.787c-.9 2.668-4.687 2.672-5.59 0h-6.24c-1.245 0-1.246-1.883 0-1.883h6.24c.901-2.668 4.688-2.672 5.59 0h10.256c1.245 0 1.246 1.883 0 1.883zm0-8.032H24.82c-.902 2.668-4.688 2.672-5.59 0H4.956c-1.245 0-1.246-1.882 0-1.882h14.271c.902-2.668 4.688-2.672 5.59 0h2.225c1.245 0 1.246 1.882 0 1.882zm0-8.031H12.772c-.902 2.668-4.688 2.672-5.59 0H4.956c-1.245 0-1.246-1.883 0-1.883H7.18c.901-2.668 4.688-2.672 5.59 0h14.272c1.245 0 1.246 1.883 0 1.883z" fill="#fff"/><path d="M13.992 22.965c-1.411 0-1.41 2.133 0 2.133 1.411 0 1.41-2.133 0-2.133zM9.976 6.902c-1.41 0-1.41 2.133 0 2.133 1.412 0 1.41-2.133 0-2.133zm12.047 8.031c-1.41 0-1.41 2.133 0 2.133 1.412 0 1.411-2.133 0-2.133z" fill="#fff"/></svg>