<svg width="32" height="32" fill="none" xmlns="http://www.w3.org/2000/svg"><path d="M24.832 0H4.216A4.12 4.12 0 001.28 1.217a4.153 4.153 0 00.63 6.389V4.308a2.772 2.772 0 012.769-2.77H24.37a2.772 2.772 0 012.77 2.77v3.3c.223-.15.434-.322.629-.517a4.126 4.126 0 001.217-2.937A4.159 4.159 0 0024.832 0z" fill="#fff"/><path d="M24.37 3.385h-2.769v6.461a.923.923 0 01-1.846 0V3.385H9.293v6.461a.923.923 0 01-1.846 0V3.385H4.678a.923.923 0 00-.923.923v26.769c0 .51.413.923.923.923H24.37c.51 0 .923-.413.923-.923V4.307a.923.923 0 00-.923-.922zM8.986 15.077h1.538v-1.538a.923.923 0 111.846 0v3.384a.616.616 0 001.231 0v-1.846a2.464 2.464 0 012.461-2.461 2.464 2.464 0 012.462 2.46h1.538a.923.923 0 010 1.847h-1.538v1.538a.923.923 0 11-1.846 0v-3.384a.616.616 0 00-1.231 0v1.846a2.464 2.464 0 01-2.461 2.462 2.464 2.464 0 01-2.462-2.462H8.986a.923.923 0 010-1.846zM21.6 25.23c0 .51-.413.923-.923.923-.679 0-1.231.552-1.231 1.23 0 .51-.413.924-.923.924h-8a.923.923 0 01-.923-.924c0-.678-.552-1.23-1.23-1.23a.923.923 0 01-.924-.923v-3.077a.923.923 0 011.846 0v2.295a3.09 3.09 0 012.013 2.012h6.436a3.09 3.09 0 012.013-2.012v-2.295a.923.923 0 011.846 0v3.077z" fill="#fff"/></svg>