<svg width="96" height="96" fill="none" xmlns="http://www.w3.org/2000/svg"><path d="M96 48C96 21.49 74.51 0 48 0S0 21.49 0 48s21.49 48 48 48 48-21.49 48-48z" fill="#000A09"/><g style="mix-blend-mode:luminosity"><path d="M48 96c26.51 0 48-21.49 48-48S74.51 0 48 0 0 21.49 0 48s21.49 48 48 48z" fill="#00B4A1"/><path d="M57.258 24.012H35.43l-1.806 10.1 19.686.03c9.693 0 12.57 3.52 12.477 9.36-.042 2.995-1.347 8.059-1.899 9.69-1.49 4.38-4.563 9.367-16.077 9.352l-19.134-.012-1.806 10.113h21.771c7.677 0 10.947-.897 14.4-2.49C70.704 66.62 75.267 59.052 77.1 49.173c2.718-14.7-.672-25.161-19.845-25.161h.003z" fill="#fff"/><path d="M47.42 47.394c.712-2.955.937-4.14.937-4.14H26.019c-5.712 0-6.528 3.72-7.071 5.97-.711 2.943-.936 4.143-.936 4.143h22.34c5.71 0 6.526-3.72 7.069-5.973z" fill="#fff"/></g></svg>