<svg width="96" height="96" fill="none" xmlns="http://www.w3.org/2000/svg"><path d="M96 48C96 21.49 74.51 0 48 0S0 21.49 0 48s21.49 48 48 48 48-21.49 48-48z" fill="#000A09"/><g style="mix-blend-mode:luminosity"><path d="M96 48C96 21.49 74.51 0 48 0S0 21.49 0 48s21.49 48 48 48 48-21.49 48-48z" fill="#008CC9"/><path d="M47.762 49.317L42.99 65.416h25.518c.721 0 1.309.588 1.309 1.309 0 .122-.022.244-.055.366l-2.22 7.644A1.757 1.757 0 0165.858 76H26.882l6.59-22.256-7.29 2.219 1.61-5.203 7.3-2.22 9.253-31.264A1.744 1.744 0 0146.02 16h9.874c.721 0 1.31.577 1.31 1.31 0 .121-.012.243-.045.354l-7.766 26.439 7.289-2.22-1.565 5.293-7.355 2.141z" fill="#fff"/></g></svg>