<svg width="73" height="42" fill="none" xmlns="http://www.w3.org/2000/svg"><path d="M32.562 24.805l1.94-12.402h3.048l-1.94 12.402h-3.048zm-9.007-12.402h4.85c3.048 0 3.88 1.832 3.463 3.946-.277 1.832-1.524 2.96-3.186 3.383l3.048 5.073h-4.018l-2.356-4.933-.693 4.933h-3.186l2.078-12.402zm2.771 2.396l-.554 3.1h.97c.831 0 1.662-.704 1.801-1.55.139-.846-.416-1.55-1.386-1.55h-.83zm20.507 10.006l1.94-12.402h3.187l-1.94 12.402h-3.187zm10.254-9.725l-.416 2.115h3.603l-.416 2.677h-3.602l-.278 2.256h3.742l-.416 2.677h-6.928l1.94-12.402h6.928l-.416 2.678h-3.741zm-39.629 0l-.277 2.115h3.602l-.415 2.677h-3.603l-.415 2.256h3.74l-.415 2.677h-6.928l1.94-12.402h6.928l-.416 2.678h-3.74zm25.218 0l-.277 2.115h3.464l-.416 2.677h-3.464l-.831 4.933h-3.187l1.94-12.402h7.066l-.415 2.678h-3.88zm24.525-2.677h-4.157l-1.94 12.402h4.157c3.88 0 7.067-2.677 7.621-6.2.277-2.397-.831-6.202-5.68-6.202zm2.356 6.06c-.416 2.255-1.94 3.665-4.019 3.665h-.831l1.109-7.047h.692c2.356 0 3.326 1.69 3.049 3.382zM0 10.711h5.82l.692 9.02A668.056 668.056 0 0118.29 0h1.94c-4.157 8.175-8.314 16.49-12.332 24.805H3.603L2.494 14.8c-.277-2.396-.693-3.524-2.494-3.665v-.423z" fill="#777"/><path d="M7.898 13.39l4.572-7.893v-.282H2.217v.282l4.988 2.255.416 5.637h.277zM26.05 31.712c-.832 0-1.524.422-2.079.986l.693-4.933h-2.078l-1.524 10.852h2.078l.139-.845c.415.564.97.986 1.8.986 1.663 0 3.188-1.55 3.465-3.523.277-1.973-.832-3.523-2.494-3.523zm.277 3.523c-.139.846-.832 1.55-1.524 1.55-.693 0-1.247-.704-1.109-1.55.139-.846.832-1.55 1.524-1.55.693 0 1.247.704 1.109 1.55z" fill="#777"/><path d="M34.363 31.852h2.356L30.483 42h-2.355l2.633-4.228-2.079-5.92h2.356l1.108 3.524 2.217-3.524zm16.349 6.765h-2.91l3.326-10.852h2.91l-3.325 10.852zm-4.156-10.852l-3.88 7.047-.277-7.047h-4.988v.423c1.663 0 1.94.282 2.217 1.55l.97 8.88h3.048l6.097-10.853h-3.187zm18.983 9.302l-.693 1.55h-3.187l5.82-10.852h3.88l.97 10.852H69.14l-.138-1.55h-3.464zm.97-2.114h2.494l-.277-5.074-2.217 5.074zM57.086 38.9c-2.078 0-3.464-.705-4.434-1.27l1.386-2.113c.831.563 1.524 1.127 3.187 1.127.554 0 .97-.14 1.247-.563.416-.705-.139-1.128-1.247-1.692l-.554-.564c-1.663-1.127-2.495-2.255-1.663-4.228.554-1.268 1.801-2.114 4.018-2.114 1.524 0 2.91.705 3.741 1.269l-1.663 1.832c-.83-.705-1.524-.987-2.216-.987-.555 0-1.109.282-1.247.564-.278.564.138.987.97 1.55l.692.423c2.079 1.269 2.494 2.678 2.079 3.947-.693 2.395-2.494 2.818-4.296 2.818z" fill="#777"/><g style="mix-blend-mode:color" opacity=".1"><path d="M32.562 24.805l1.94-12.402h3.048l-1.94 12.402h-3.048zm-9.007-12.402h4.85c3.048 0 3.88 1.832 3.463 3.946-.277 1.832-1.524 2.96-3.186 3.383l3.048 5.073h-4.018l-2.356-4.933-.693 4.933h-3.186l2.078-12.402zm2.771 2.396l-.554 3.1h.97c.831 0 1.662-.704 1.801-1.55.139-.846-.416-1.55-1.386-1.55h-.83zm20.507 10.006l1.94-12.402h3.187l-1.94 12.402h-3.187zm10.254-9.725l-.416 2.115h3.603l-.416 2.677h-3.602l-.278 2.256h3.742l-.416 2.677h-6.928l1.94-12.402h6.928l-.416 2.678h-3.741zm-39.629 0l-.277 2.115h3.602l-.415 2.677h-3.603l-.415 2.256h3.74l-.415 2.677h-6.928l1.94-12.402h6.928l-.416 2.678h-3.74zm25.218 0l-.277 2.115h3.464l-.416 2.677h-3.464l-.831 4.933h-3.187l1.94-12.402h7.066l-.415 2.678h-3.88zm24.525-2.677h-4.157l-1.94 12.402h4.157c3.88 0 7.067-2.677 7.621-6.2.277-2.397-.831-6.202-5.68-6.202zm2.356 6.06c-.416 2.255-1.94 3.665-4.019 3.665h-.831l1.109-7.047h.692c2.356 0 3.326 1.69 3.049 3.382zM0 10.711h5.82l.692 9.02A668.056 668.056 0 0118.29 0h1.94c-4.157 8.175-8.314 16.49-12.332 24.805H3.603L2.494 14.8c-.277-2.396-.693-3.524-2.494-3.665v-.423z" fill="#074784"/><path d="M7.898 13.39l4.572-7.893v-.282H2.217v.282l4.988 2.255.416 5.637h.277z" fill="#F09C11"/><path d="M26.05 31.712c-.832 0-1.524.422-2.079.986l.693-4.933h-2.078l-1.524 10.852h2.078l.139-.845c.415.564.97.986 1.8.986 1.663 0 3.188-1.55 3.465-3.523.277-1.973-.832-3.523-2.494-3.523zm.277 3.523c-.139.846-.832 1.55-1.524 1.55-.693 0-1.247-.704-1.109-1.55.139-.846.832-1.55 1.524-1.55.693 0 1.247.704 1.109 1.55z" fill="#074784"/><path d="M34.363 31.852h2.356L30.483 42h-2.355l2.633-4.228-2.079-5.92h2.356l1.108 3.524 2.217-3.524zm16.349 6.765h-2.91l3.326-10.852h2.91l-3.325 10.852zm-4.156-10.852l-3.88 7.047-.277-7.047h-4.988v.423c1.663 0 1.94.282 2.217 1.55l.97 8.88h3.048l6.097-10.853h-3.187zm18.983 9.302l-.693 1.55h-3.187l5.82-10.852h3.88l.97 10.852H69.14l-.138-1.55h-3.464zm.97-2.114h2.494l-.277-5.074-2.217 5.074zM57.086 38.9c-2.078 0-3.464-.705-4.434-1.27l1.386-2.113c.831.563 1.524 1.127 3.187 1.127.554 0 .97-.14 1.247-.563.416-.705-.139-1.128-1.247-1.692l-.554-.564c-1.663-1.127-2.495-2.255-1.663-4.228.554-1.268 1.801-2.114 4.018-2.114 1.524 0 2.91.705 3.741 1.269l-1.663 1.832c-.83-.705-1.524-.987-2.216-.987-.555 0-1.109.282-1.247.564-.278.564.138.987.97 1.55l.692.423c2.079 1.269 2.494 2.678 2.079 3.947-.693 2.395-2.494 2.818-4.296 2.818z" fill="#074784"/></g></svg>