<svg width="64" height="64" viewBox="0 0 64 64" fill="none" xmlns="http://www.w3.org/2000/svg">
<g id="Icon/Fill/checkmark-circle">
<path id="Mask" fill-rule="evenodd" clip-rule="evenodd" d="M43.4544 25.6146L31.2731 41.6146C30.7717 42.2733 29.9957 42.6626 29.1691 42.668H29.1504C28.3317 42.668 27.5584 42.2893 27.0517 41.644L20.5664 33.3586C19.6597 32.2013 19.8624 30.524 21.0224 29.6173C22.1797 28.708 23.8597 28.9106 24.7664 30.0733L29.1211 35.636L39.2117 22.3853C40.1024 21.2146 41.7744 20.9853 42.9504 21.8786C44.1211 22.772 44.3477 24.444 43.4544 25.6146ZM32.0011 5.33472C17.2731 5.33472 5.3344 17.2734 5.3344 32.0014C5.3344 46.7267 17.2731 58.668 32.0011 58.668C46.7291 58.668 58.6677 46.7267 58.6677 32.0014C58.6677 17.2734 46.7291 5.33472 32.0011 5.33472Z" fill="#231F20"/>
<mask id="mask0" mask-type="alpha" maskUnits="userSpaceOnUse" x="5" y="5" width="54" height="54">
<path id="Mask_2" fill-rule="evenodd" clip-rule="evenodd" d="M43.4544 25.6146L31.2731 41.6146C30.7717 42.2733 29.9957 42.6626 29.1691 42.668H29.1504C28.3317 42.668 27.5584 42.2893 27.0517 41.644L20.5664 33.3586C19.6597 32.2013 19.8624 30.524 21.0224 29.6173C22.1797 28.708 23.8597 28.9106 24.7664 30.0733L29.1211 35.636L39.2117 22.3853C40.1024 21.2146 41.7744 20.9853 42.9504 21.8786C44.1211 22.772 44.3477 24.444 43.4544 25.6146ZM32.0011 5.33472C17.2731 5.33472 5.3344 17.2734 5.3344 32.0014C5.3344 46.7267 17.2731 58.668 32.0011 58.668C46.7291 58.668 58.6677 46.7267 58.6677 32.0014C58.6677 17.2734 46.7291 5.33472 32.0011 5.33472Z" fill="white"/>
</mask>
<g mask="url(#mask0)">
<g id="&#240;&#159;&#142;&#168; Color">
<rect id="Base" width="64" height="64" fill="white"/>
</g>
</g>
</g>
</svg>
