<svg width="64" height="64" viewBox="0 0 64 64" fill="none" xmlns="http://www.w3.org/2000/svg">
<g id="Icon/Fill/close-circle">
<path id="Mask" fill-rule="evenodd" clip-rule="evenodd" d="M39.2187 35.4479C40.2613 36.4906 40.2613 38.1759 39.2187 39.2186C38.6987 39.7386 38.016 39.9999 37.3333 39.9999C36.6507 39.9999 35.968 39.7386 35.448 39.2186L32 35.7706L28.552 39.2186C28.032 39.7386 27.3493 39.9999 26.6667 39.9999C25.984 39.9999 25.3013 39.7386 24.7813 39.2186C23.7387 38.1759 23.7387 36.4906 24.7813 35.4479L28.2293 31.9999L24.7813 28.5519C23.7387 27.5093 23.7387 25.8239 24.7813 24.7813C25.824 23.7386 27.5093 23.7386 28.552 24.7813L32 28.2293L35.448 24.7813C36.4907 23.7386 38.176 23.7386 39.2187 24.7813C40.2613 25.8239 40.2613 27.5093 39.2187 28.5519L35.7707 31.9999L39.2187 35.4479ZM32 5.33325C17.296 5.33325 5.33331 17.2959 5.33331 31.9999C5.33331 46.7039 17.296 58.6666 32 58.6666C46.704 58.6666 58.6666 46.7039 58.6666 31.9999C58.6666 17.2959 46.704 5.33325 32 5.33325Z" fill="white"/>
<mask id="mask0" mask-type="alpha" maskUnits="userSpaceOnUse" x="5" y="5" width="54" height="54">
<path id="Mask_2" fill-rule="evenodd" clip-rule="evenodd" d="M39.2187 35.4479C40.2613 36.4906 40.2613 38.1759 39.2187 39.2186C38.6987 39.7386 38.016 39.9999 37.3333 39.9999C36.6507 39.9999 35.968 39.7386 35.448 39.2186L32 35.7706L28.552 39.2186C28.032 39.7386 27.3493 39.9999 26.6667 39.9999C25.984 39.9999 25.3013 39.7386 24.7813 39.2186C23.7387 38.1759 23.7387 36.4906 24.7813 35.4479L28.2293 31.9999L24.7813 28.5519C23.7387 27.5093 23.7387 25.8239 24.7813 24.7813C25.824 23.7386 27.5093 23.7386 28.552 24.7813L32 28.2293L35.448 24.7813C36.4907 23.7386 38.176 23.7386 39.2187 24.7813C40.2613 25.8239 40.2613 27.5093 39.2187 28.5519L35.7707 31.9999L39.2187 35.4479ZM32 5.33325C17.296 5.33325 5.33331 17.2959 5.33331 31.9999C5.33331 46.7039 17.296 58.6666 32 58.6666C46.704 58.6666 58.6666 46.7039 58.6666 31.9999C58.6666 17.2959 46.704 5.33325 32 5.33325Z" fill="white"/>
</mask>
<g mask="url(#mask0)">
<g id="&#240;&#159;&#142;&#168; Color">
<rect id="Base" width="64" height="64" fill="white"/>
</g>
</g>
</g>
</svg>
