<svg width="36" height="36" viewBox="0 0 36 36" fill="none" xmlns="http://www.w3.org/2000/svg">
<path fill-rule="evenodd" clip-rule="evenodd" d="M22.5 19.5H19.5V22.5C19.5 23.325 18.825 24 18 24C17.175 24 16.5 23.325 16.5 22.5V19.5H13.5C12.675 19.5 12 18.825 12 18C12 17.175 12.675 16.5 13.5 16.5H16.5V13.5C16.5 12.675 17.175 12 18 12C18.825 12 19.5 12.675 19.5 13.5V16.5H22.5C23.325 16.5 24 17.175 24 18C24 18.825 23.325 19.5 22.5 19.5ZM18 3C9.729 3 3 9.729 3 18C3 26.271 9.729 33 18 33C26.271 33 33 26.271 33 18C33 9.729 26.271 3 18 3Z" fill="#231F20"/>
<mask id="mask0" mask-type="alpha" maskUnits="userSpaceOnUse" x="3" y="3" width="30" height="30">
<path fill-rule="evenodd" clip-rule="evenodd" d="M22.5 19.5H19.5V22.5C19.5 23.325 18.825 24 18 24C17.175 24 16.5 23.325 16.5 22.5V19.5H13.5C12.675 19.5 12 18.825 12 18C12 17.175 12.675 16.5 13.5 16.5H16.5V13.5C16.5 12.675 17.175 12 18 12C18.825 12 19.5 12.675 19.5 13.5V16.5H22.5C23.325 16.5 24 17.175 24 18C24 18.825 23.325 19.5 22.5 19.5ZM18 3C9.729 3 3 9.729 3 18C3 26.271 9.729 33 18 33C26.271 33 33 26.271 33 18C33 9.729 26.271 3 18 3Z" fill="white"/>
</mask>
<g mask="url(#mask0)">
<rect width="36" height="36" fill="white"/>
</g>
</svg>
