<svg width="32" height="32" fill="none" xmlns="http://www.w3.org/2000/svg"><path d="M29.096.02C29.063.017 29.035 0 29 0H14.667c-2.206 0-4 1.795-4 4v1.333a1.334 1.334 0 002.666 0V4c0-.735.599-1.333 1.334-1.333h6.212l-.407.136a2.68 2.68 0 00-1.805 2.53v20h-4A1.335 1.335 0 0113.333 24v-2.667a1.334 1.334 0 00-2.666 0V24c0 2.205 1.794 4 4 4h4v1.333A2.67 2.67 0 0021.333 32c.286 0 .556-.041.85-.132l8.01-2.67A2.68 2.68 0 0032 26.666v-24C32 1.112 30.66-.107 29.096.02z" fill="#fff"/><path d="M14.276 12.39L8.943 7.058A1.333 1.333 0 006.667 8v4H1.333a1.334 1.334 0 000 2.667h5.334v4a1.333 1.333 0 002.276.943l5.333-5.334a1.332 1.332 0 000-1.885z" fill="#fff"/></svg>