<svg width="192" height="91" fill="none" xmlns="http://www.w3.org/2000/svg"><path d="M20.23 75.144c-1.866 0-2.8.437-2.8 1.312v5.696c0 1.003 1.025 1.504 3.073 1.504h6.144c.405 0 .608.224.608.672 0 .448-.203.672-.608.672h-6.368c-2.998 0-4.496-.933-4.496-2.8v-5.744c0-1.76 1.466-2.64 4.4-2.64h6.464c.405 0 .608.224.608.672 0 .437-.203.656-.608.656H20.23zM41.719 76.6c0-.97-.912-1.456-2.736-1.456h-7.184v4.096h7.472c1.632 0 2.448-.395 2.448-1.184V76.6zm1.648 1.296c0 1.781-1.418 2.672-4.256 2.672h-4.08l7.056 3.088a.63.63 0 01.336.272.577.577 0 01.112.336c0 .203-.069.39-.208.56a.651.651 0 01-.528.256.68.68 0 01-.32-.096l-9.68-4.528v3.92c0 .47-.272.704-.816.704-.576 0-.864-.235-.864-.704V74.36c0-.363.182-.544.544-.544h8.064c3.094 0 4.64.96 4.64 2.88v1.2zm7.87 1.056l4.945-4.96a.76.76 0 01.56-.224c.213 0 .41.075.592.224.18.15.272.32.272.512 0 .15-.07.299-.208.448l-5.312 5.328-.016 4.112c-.054.459-.326.688-.816.688-.555 0-.832-.235-.832-.704V80.28l-5.312-5.328c-.15-.15-.224-.299-.224-.448 0-.192.085-.357.256-.496a.852.852 0 01.864-.176.479.479 0 01.272.16l4.96 4.96zm20.594-2.496c0-.875-.864-1.312-2.592-1.312h-7.44v4.384h7.328c1.802 0 2.704-.453 2.704-1.36v-1.712zm1.648 1.808c0 1.75-1.515 2.624-4.544 2.624h-7.136v3.488c0 .47-.283.704-.848.704-.555 0-.832-.235-.832-.704V74.36c0-.363.181-.544.544-.544h8.336c2.986 0 4.48.832 4.48 2.496v1.952zm7.948-3.12v9.232c0 .47-.283.704-.848.704-.555 0-.832-.235-.832-.704v-9.232h-4.592c-.416 0-.624-.23-.624-.688 0-.427.208-.64.624-.64h10.864c.394 0 .592.213.592.64 0 .459-.198.688-.592.688h-4.592zm18.55 1.68c0-1.12-.907-1.68-2.72-1.68h-4c-1.931 0-2.896.56-2.896 1.68v5.232c0 1.067.965 1.6 2.896 1.6h3.904c1.877 0 2.816-.533 2.816-1.6v-5.232zm1.664 5.248c0 1.952-1.643 2.928-4.928 2.928h-3.12c-3.275 0-4.912-.965-4.912-2.896v-5.36c0-1.952 1.637-2.928 4.912-2.928h3.12c3.285 0 4.928.976 4.928 2.928v5.328zM110.262 85c-3.456 0-5.184-.955-5.184-2.864v-7.712c0-.459.277-.688.832-.688.565 0 .848.23.848.688v7.712c0 1.013 1.141 1.52 3.424 1.52h6.512c.426 0 .64.24.64.72 0 .416-.214.624-.64.624h-6.432zm12.963-4.4h6.768l-3.344-5.344-3.424 5.344zm7.696 1.36h-8.576l-1.856 2.768a.91.91 0 01-.304.272.782.782 0 01-.32.08.912.912 0 01-.592-.208.7.7 0 01-.256-.544c0-.139.038-.277.112-.416l6.416-9.616c.139-.203.299-.352.48-.448.192-.096.39-.144.592-.144.203 0 .395.048.576.144a1.2 1.2 0 01.48.448l6.448 9.6a.447.447 0 01.112.24.692.692 0 01.032.192c0 .224-.085.4-.256.528a.893.893 0 01-.928.112 1.094 1.094 0 01-.32-.272l-1.84-2.736zm8.829-3.008l4.944-4.96a.761.761 0 01.56-.224.91.91 0 01.592.224c.182.15.272.32.272.512 0 .15-.069.299-.208.448l-5.312 5.328-.016 4.112c-.053.459-.325.688-.816.688-.554 0-.832-.235-.832-.704V80.28l-5.312-5.328c-.149-.15-.224-.299-.224-.448 0-.192.086-.357.256-.496a.853.853 0 01.864-.176.475.475 0 01.272.16l4.96 4.96zm10.561-.176h9.84c.384 0 .576.23.576.688 0 .448-.192.672-.576.672h-9.84v2.096c0 .95.907 1.424 2.72 1.424h7.12c.406 0 .608.224.608.672 0 .448-.202.672-.608.672h-7.184c-2.89 0-4.336-.896-4.336-2.688v-5.728c0-.917.374-1.605 1.12-2.064.747-.47 1.872-.704 3.376-.704h1.952c.384 0 .576.23.576.688 0 .427-.192.64-.576.64h-1.312c-2.304 0-3.456.48-3.456 1.44v2.192zm24.756-2.176c0-.97-.912-1.456-2.736-1.456h-7.184v4.096h7.472c1.632 0 2.448-.395 2.448-1.184V76.6zm1.648 1.296c0 1.781-1.419 2.672-4.256 2.672h-4.08l7.056 3.088a.63.63 0 01.336.272.575.575 0 01.112.336c0 .203-.069.39-.208.56a.652.652 0 01-.528.256.679.679 0 01-.32-.096l-9.68-4.528v3.92c0 .47-.272.704-.816.704-.576 0-.864-.235-.864-.704V74.36c0-.363.181-.544.544-.544h8.064c3.093 0 4.64.96 4.64 2.88v1.2z" fill="#fff"/><path d="M55.174 48.88c15.129-16.364 15.23-42.552 15.23-42.552s-24.429.341-39.558 16.705c-15.13 16.364-15.23 42.553-15.23 42.553s24.428-.342 39.558-16.706z" fill="#FF8500"/><path d="M90.5 48.88c15.13-16.363 15.23-42.552 15.23-42.552s-24.428.342-39.557 16.705c-15.13 16.364-15.23 42.553-15.23 42.553S75.37 65.244 90.5 48.88z" fill="#7B2CBF"/><path d="M125.827 48.88c15.129-16.364 15.23-42.552 15.23-42.552s-24.428.341-39.557 16.705C86.37 39.397 86.27 65.586 86.27 65.586s24.428-.342 39.557-16.706z" fill="#008CC9"/><path d="M161.154 48.88c15.129-16.364 15.23-42.552 15.23-42.552s-24.428.341-39.558 16.705c-15.129 16.364-15.23 42.553-15.23 42.553s24.429-.342 39.558-16.706z" fill="#00B4A1"/><path d="M49.399 31.876c-.244-2.758-2.547-3.665-5.51-4.028l.038-3.804-2.289.005-.066 3.68c-.588.005-1.238.024-1.84-.034l.052-3.741-2.303-.057-.038 3.803c-.526-.01-4.669-.1-4.669-.1l-.028 2.428s1.701 0 1.639.014c.927.048 1.242.564 1.28 1.013L35.51 41.43c-.067.277-.215.77-.88.727.015.062-1.7 0-1.7 0l-.483 2.728s4.143.09 4.669.1l-.1 3.818 2.303.057.038-3.803c.664.043 1.252.038 1.84.033l-.053 3.741 2.304.058.1-3.819c3.885-.177 6.622-1.07 7.028-4.697.301-2.949-1.051-4.272-3.207-4.822 1.338-.44 2.18-1.615 2.031-3.674zm-3.349 8.166c-.052 2.891-4.931 2.447-6.508 2.419l.076-5.056c1.577.029 6.456-.378 6.432 2.637zm-.937-7.177c-.048 2.628-4.124 2.26-5.438 2.237l.052-4.592c1.3-.038 5.405-.397 5.386 2.355zm32.764 8.165l-7.885-4.662 7.885-13.084 7.886 13.084-7.886 4.661z" fill="#fff"/><path d="M77.877 48.976l7.89-11.113-7.89 4.66-7.885-4.66 7.885 11.113zm33.628-12.719l-1.915 6.463h10.244a.526.526 0 01.503.672l-.891 3.069a.705.705 0 01-.677.508h-15.646l2.645-8.935-2.926.89.646-2.088 2.931-.89 3.714-12.552a.701.701 0 01.673-.512h3.964a.524.524 0 01.507.668l-3.117 10.614 2.926-.891-.628 2.124-2.953.86zm41.811-10.565h-9.352l-.776 4.334 8.442.01c4.158 0 5.384 1.511 5.349 4.013-.02 1.281-.575 3.453-.815 4.159-.641 1.876-1.957 4.013-6.891 4.008l-8.207-.005-.773 4.338h9.333c3.292 0 4.688-.385 6.175-1.066 3.287-1.526 5.244-4.768 6.03-9.002 1.163-6.305-.288-10.789-8.515-10.789z" fill="#fff"/><path d="M139.928 33.944c-2.452 0-2.803 1.596-3.033 2.562-.305 1.261-.405 1.776-.405 1.776h9.578c2.452 0 2.802-1.596 3.032-2.562.305-1.26.406-1.776.406-1.776h-9.578z" fill="#fff"/></svg>