<svg width="1200" height="810" fill="none" xmlns="http://www.w3.org/2000/svg"><path d="M775.915 183.421c22.723 0 41.144-18.42 41.144-41.143s-18.421-41.144-41.144-41.144-41.143 18.421-41.143 41.144 18.42 41.143 41.143 41.143zm128.726 293.323L226.289 61.715 24.986 390.74l678.353 415.028 201.302-329.023z" fill="#F2F2F2"/><path d="M871.702 550.112c-6.428-14.786-16.329-27.772-36.129-38.701a126.214 126.214 0 00-32.657-12.857 80.022 80.022 0 0020.957-14.143 72.462 72.462 0 0020.057-29.958 99.124 99.124 0 004.501-36.257c-1.415-21.601-5.658-42.558-16.972-57.601-11.315-15.043-27.258-26.615-48.344-34.715-16.2-6.171-32.786-10.028-58.5-11.443v-82.158l-51.43 32.143v50.144h-41.143v-52.715l-52.715-29.572v82.287H467.34l36 61.715c11.122.013 18.656 1.041 22.501 2.957a17.01 17.01 0 018.357 7.714c1.671 3.215 2.443 10.801 2.443 22.501v222.688c0 11.572-.772 19.029-2.443 22.372-1.672 3.343-2.572 6.3-6.557 8.1-3.986 1.8-4.115 1.672-15.172 1.672h-.128L467.34 726h111.859v82.287h52.714V726h41.144v82.287h51.429v-82.801c33.429-1.672 57.215-6.043 76.372-13.244 24.815-9.257 43.844-22.757 57.473-40.5 13.628-17.743 19.157-44.872 20.314-65.829.9-18.644-1.157-42.687-6.943-55.801zM631.913 383.995h.013v-1.71h35.949c20.225 0 87.623-6.737 88.742 48.305 1.131 55.042-88.742 52.792-88.742 52.792h-35.949v-4.243h-.013v-95.144zm0 156.859h41.144c8.357 0 37.106 1.273 47.572 1.749 4.267.155 8.491.908 12.549 2.237 1.478.502 2.88 1.067 4.397 1.697a63.96 63.96 0 0117.73 8.975 37.033 37.033 0 019.167 8.614 48.919 48.919 0 013.035 4.745 48.168 48.168 0 015.361 13.23 53.624 53.624 0 011.89 13.783c0 10.016-1.851 18.309-6.416 25.329-6.184 10.363-16.328 17.704-27.746 22.886-29.52 13.423-67.539 12.471-67.539 12.471h-41.144V540.854z" fill="#00B4A1"/><path d="M1026.18 611.741c8.33 0 15.08-6.752 15.08-15.081 0-8.328-6.75-15.08-15.08-15.08s-15.08 6.752-15.08 15.08c0 8.329 6.75 15.081 15.08 15.081z" fill="#FF8500"/><path d="M1145.07 760.823V589.115" stroke="#3F3D56" stroke-width="2" stroke-miterlimit="10"/><path d="M1145.07 613.397c13.41 0 24.28-10.872 24.28-24.282 0-13.411-10.87-24.282-24.28-24.282-13.41 0-24.29 10.871-24.29 24.282 0 13.41 10.88 24.282 24.29 24.282zm-47.83 71.859c-35.07 53.788-25.46 122.199-25.46 122.199s66.48-18.796 101.55-72.584c35.08-53.788 25.47-122.199 25.47-122.199s-66.48 18.796-101.56 72.584z" fill="#3F3D56"/><path d="M1071.59 806.83s-.85-.137-2.42-.455c-1.26-.254-2.98-.617-5.09-1.117-18.84-4.442-68.924-19.457-101.67-58.934-40.984-49.432-39.258-118.494-39.258-118.494s62.667 10.183 103.958 54.574c1.79 1.907 3.53 3.885 5.23 5.931 35.66 43.011 38.98 100.882 39.24 115.188.04 2.144.01 3.307.01 3.307z" fill="#7B2CBF"/><path d="M1046.32 685.256c35.07 53.788 25.46 122.199 25.46 122.199s-66.48-18.796-101.551-72.584c-35.074-53.788-25.464-122.199-25.464-122.199s66.475 18.796 101.555 72.584z" stroke="#3F3D56" stroke-width="2" stroke-miterlimit="10"/><path opacity=".1" d="M1071.58 803.523c-.92 1.117-1.74 2.071-2.41 2.852a91.717 91.717 0 01-2.34 2.589s-1.02-1.29-2.75-3.706c-9.47-13.207-39.95-60.169-37.59-114.415.12-2.844.33-5.656.62-8.439 1.79 1.908 3.53 3.885 5.23 5.932 35.66 43.01 38.98 100.881 39.24 115.187z" fill="#000"/><path d="M1123.59 694.766c-2.77 64.153-50.39 114.199-50.39 114.199s-43.13-53.968-40.36-118.121c2.77-64.154 50.4-114.199 50.4-114.199s43.12 53.967 40.35 118.121z" fill="#7B2CBF"/><path d="M1073.2 807.148l10.47-227.887M73.893 807.398H1161.65" stroke="#3F3D56" stroke-width="2" stroke-miterlimit="10"/><path d="M304.918 529.482c30.342 0 54.939-24.597 54.939-54.939s-24.597-54.939-54.939-54.939-54.939 24.597-54.939 54.939 24.597 54.939 54.939 54.939zm-93.382 129.299c30.342 0 54.939-24.597 54.939-54.939s-24.597-54.939-54.939-54.939-54.939 24.597-54.939 54.939 24.597 54.939 54.939 54.939zM96.604 762.04c30.342 0 54.939-24.597 54.939-54.939s-24.597-54.939-54.939-54.939-54.939 24.597-54.939 54.939 24.597 54.939 54.94 54.939z" fill="#7B2CBF"/><path d="M96.555 806.456v-99.657" stroke="#3F3D56" stroke-width="2" stroke-miterlimit="10"/><path d="M96.555 720.891c7.784 0 14.093-6.309 14.093-14.093 0-7.783-6.309-14.092-14.093-14.092-7.783 0-14.093 6.309-14.093 14.092 0 7.784 6.31 14.093 14.093 14.093zm0 47.328s-2.013-43.301-43.285-38.268l43.285 38.268z" fill="#3F3D56"/><path d="M304.953 807.155v-332.41" stroke="#3F3D56" stroke-width="2" stroke-miterlimit="10"/><path d="M304.953 488.68c7.783 0 14.093-6.309 14.093-14.092 0-7.784-6.31-14.093-14.093-14.093-7.784 0-14.093 6.309-14.093 14.093 0 7.783 6.309 14.092 14.093 14.092zm-43.286 240.501c7.784 0 14.093-6.31 14.093-14.093s-6.309-14.093-14.093-14.093c-7.783 0-14.093 6.31-14.093 14.093s6.31 14.093 14.093 14.093zm43.286-182.606s-2.014-43.301-43.286-38.268l43.286 38.268zm0 122.754s-2.014-43.301-43.286-38.268l43.286 38.268z" fill="#3F3D56"/><path d="M304.953 803.281s9.059-84.167-43.286-88.193" stroke="#3F3D56" stroke-width="2" stroke-miterlimit="10"/><path d="M348.244 729.181c7.784 0 14.093-6.31 14.093-14.093s-6.309-14.093-14.093-14.093c-7.783 0-14.093 6.31-14.093 14.093s6.31 14.093 14.093 14.093z" fill="#3F3D56"/><path d="M304.959 803.281s-9.06-84.167 43.285-88.193" stroke="#3F3D56" stroke-width="2" stroke-miterlimit="10"/><path d="M349.103 596.984c7.783 0 14.093-6.31 14.093-14.093 0-7.784-6.31-14.093-14.093-14.093-7.784 0-14.093 6.309-14.093 14.093 0 7.783 6.309 14.093 14.093 14.093z" fill="#3F3D56"/><path d="M305.817 666.594s-9.059-79.677 43.286-83.703M211.586 806.686V603.78" stroke="#3F3D56" stroke-width="2" stroke-miterlimit="10"/><path d="M211.586 617.873c7.784 0 14.093-6.31 14.093-14.093s-6.309-14.093-14.093-14.093c-7.783 0-14.093 6.31-14.093 14.093s6.31 14.093 14.093 14.093zm0 43.301s-2.013-43.301-43.285-38.268l43.285 38.268z" fill="#3F3D56"/><path d="M211.586 802.812s9.06-83.269-43.285-87.295" stroke="#3F3D56" stroke-width="2" stroke-miterlimit="10"/><path d="M168.301 729.61c7.783 0 14.093-6.31 14.093-14.093s-6.31-14.093-14.093-14.093c-7.784 0-14.093 6.31-14.093 14.093s6.309 14.093 14.093 14.093z" fill="#3F3D56"/><path d="M985.489 498.425c12.782 0 23.141-10.361 23.141-23.143s-10.359-23.143-23.141-23.143c-12.781 0-23.143 10.361-23.143 23.143s10.362 23.143 23.143 23.143z" fill="#F2F2F2"/><path opacity=".1" d="M740.596 644.099c-29.52 13.423-67.539 12.471-67.539 12.471h-41.143v-7.856c16.765-4.68 39.947-7.573 65.572-7.573 14.422-.05 28.83.938 43.11 2.958z" fill="#000"/><path opacity=".1" d="M790.058 666.856c0 14.207-41.452 25.715-92.572 25.715-51.121 0-92.573-11.508-92.573-25.715 0-7.084 10.312-13.5 27-18.142v7.856h41.144s38.019.952 67.539-12.471c29.405 4.294 49.462 12.87 49.462 22.757z" fill="#000"/><path d="M709.31 506.744h-39.389v39.458h39.389v-39.458z" fill="#2F2E41"/><path d="M684.569 534.648s3.26 11.411-2.445 12.226a22.278 22.278 0 00-9.781 4.075l10.596 13.856H702.5l12.226-12.226s-16.301-12.226-13.041-19.561c3.26-7.336-17.116 1.63-17.116 1.63z" fill="#FFB9B9"/><path opacity=".1" d="M684.569 534.648s3.26 11.411-2.445 12.226a22.278 22.278 0 00-9.781 4.075l10.596 13.856H702.5l12.226-12.226s-16.301-12.226-13.041-19.561c3.26-7.336-17.116 1.63-17.116 1.63z" fill="#000"/><path d="M689.459 676.469l18.747 6.52 13.04.816-.815-11.411-26.896-7.955-4.076 12.03z" fill="#FFB9B9"/><path d="M713.504 674.024s0 11.411 1.63 11.411 23.637-2.445 30.157 0c6.521 2.445 16.302-6.521 11.411-11.411-4.89-4.89-12.867-12.226-17.845-10.596-4.977 1.63-25.354 5.705-25.354 5.705l.001 4.891zm-59.908-10.596s-9.781 19.562-3.26 21.192c6.52 1.63 13.856-.815 14.671-1.63.815-.815 12.226-4.076 13.856-2.446 1.63 1.631 1.63-6.52 1.63-6.52l-26.897-10.596z" fill="#240046"/><path d="M661.747 636.531s-15.486 21.192-4.076 26.897c11.411 5.706 66.021 5.706 70.096 0 4.075-5.705 5.706-23.637 0-25.267-5.705-1.63-66.02-1.63-66.02-1.63z" fill="#240046"/><path opacity=".3" d="M661.747 636.531s-15.486 21.192-4.076 26.897c11.411 5.706 66.021 5.706 70.096 0 4.075-5.705 5.706-23.637 0-25.267-5.705-1.63-66.02-1.63-66.02-1.63z" fill="#000"/><path d="M691.089 540.353c10.354 0 18.747-8.393 18.747-18.746 0-10.354-8.393-18.747-18.747-18.747-10.353 0-18.746 8.393-18.746 18.747 0 10.353 8.393 18.746 18.746 18.746z" fill="#FFB9B9"/><path d="M661.747 550.949l16.301-3.26s4.076 13.041 17.117 10.596c13.041-2.446 16.301-10.596 16.301-10.596s9.781 4.075 10.596 4.075c.815 0 11.411 4.075 11.411 6.521 0 2.445-12.226 26.897-12.226 26.897l1.63 44.013-60.315-1.63 4.075-43.198-4.89-33.418z" fill="#7B2CBF"/><path d="M652.781 572.141s-4.89 43.198-1.63 46.458c3.26 3.261 16.301 12.226 16.301 12.226v-9.78l-6.52-12.226 6.52-28.528-14.671-8.15zm84.36-1.223s-2.853 44.421-2.853 46.051c0 1.63-7.336 7.336-9.781 7.336-2.445 0-4.075-4.075-4.075-4.075l5.705-6.521-4.075-33.418 15.079-9.373z" fill="#FFB9B9"/><path d="M729.397 633.271s36.678-20.377 37.493 0c.816 20.376-18.746 28.527-18.746 28.527s-50.534 15.153-52.572 9.614c-2.038-5.539-6.113-14.504-2.853-15.319 3.261-.816 7.336-2.446 8.966-.816 1.63 1.631 22.007-12.226 22.007-12.226l5.705-9.78z" fill="#240046"/><path opacity=".2" d="M746.514 630.826s-7.336 3.26-9.781 5.705c-2.445 2.445-13.041 6.52-13.041 6.52" stroke="#000" stroke-width="2" stroke-miterlimit="10"/><path d="M666.637 552.579l-4.89-1.63s-17.932 18.747-12.226 23.637c5.705 4.89 8.966 6.52 10.596 8.151 1.63 1.63 9.781 2.445 9.781 2.445l-3.261-32.603zm59.5 4.075l7.336 1.631s5.705 12.226 7.335 13.856c1.63 1.63-2.445.815-4.89 4.075-2.445 3.26-4.89 8.966-9.781 8.966-4.89 0-11.411-8.151-11.411-8.151l11.411-20.377z" fill="#7B2CBF"/><path d="M663.377 640.606s-30.973-22.006-41.568-5.705c-10.596 16.301 45.643 38.308 53.794 41.568a504.648 504.648 0 0115.486 6.521s7.336-17.932 7.336-21.192c0-3.26-5.706-3.26-7.336-3.26s-8.965-1.63-10.596-4.076c-1.63-2.445-17.116-13.856-17.116-13.856z" fill="#240046"/><path opacity=".2" d="M646.26 634.901s8.151 6.52 15.487 8.15c7.335 1.631 9.781 5.706 9.781 5.706" stroke="#000" stroke-width="2" stroke-miterlimit="10"/><path d="M657.755 604.255l.651 34.51a4.318 4.318 0 004.368 4.238l64.221-.721a4.322 4.322 0 004.265-4.071l1.949-33.789a4.31 4.31 0 00-1.171-3.214 4.323 4.323 0 00-3.142-1.355h-66.822a4.313 4.313 0 00-4.319 4.402z" fill="#575A89"/><path d="M650.326 551.154c1.749-3.859 4.1-7.482 5.22-11.568 1.342-4.899.82-10.082.66-15.158a47.592 47.592 0 011.136-13.376 22.987 22.987 0 016.612-11.51c8.541-7.625 24.174-8.173 34.604-4.999 4.111 1.252 8.491 3.635 9.511 7.81.154.631.223 1.28.395 1.906.854 3.108 4.034 5.075 5.181 8.088 1.485 3.897-.804 8.135-1.103 12.294-.349 4.855 2.038 9.443 4.39 13.704 1.399 2.534 2.853 5.233 2.714 8.124a10.255 10.255 0 01-1.404 4.477 17.072 17.072 0 01-14.344 8.222 9 9 0 01-5.373-1.268c-2.545-1.753-3.29-5.282-2.76-8.327.53-3.044 2.076-5.798 3.286-8.641.372-.873.707-1.76 1.017-2.656a18.238 18.238 0 00.363-31.643 18.239 18.239 0 10-12.394 33.683c.913 4.6.498 9.365-1.197 13.738a51.922 51.922 0 01-5.768 10.059 13.892 13.892 0 01-3.676 4.112c-.98.581-2.033 1.03-3.13 1.337-4.604 1.481-9.452 2.672-14.242 2.006-4.79-.666-9.534-3.555-11.166-8.107-1.43-3.989-.281-8.447 1.468-12.307z" fill="#240046"/><path d="M690.181 522.354c10.988 0 19.895-5.047 19.895-11.273 0-6.227-8.907-11.274-19.895-11.274s-19.895 5.047-19.895 11.274c0 6.226 8.907 11.273 19.895 11.273z" fill="#240046"/><path d="M82.906 579.426c12.782 0 23.144-10.361 23.144-23.143 0-12.781-10.362-23.143-23.144-23.143-12.781 0-23.143 10.362-23.143 23.143 0 12.782 10.362 23.143 23.143 23.143z" fill="#F2F2F2"/><path d="M775.292 150.562l-12.628-7.464 12.628-20.953 12.628 20.953-12.628 7.464z" fill="#7B2CBF"/><path d="M775.292 163.288l12.636-17.795-12.636 7.46-12.628-7.461 12.628 17.796zm209.476 312.568l-2.045 6.9h10.936a.562.562 0 01.538.718l-.951 3.276a.754.754 0 01-.723.542h-16.704l2.824-9.538-3.124.951.69-2.23 3.128-.951 3.966-13.4a.748.748 0 01.718-.547h4.232a.56.56 0 01.561.561.549.549 0 01-.019.153l-3.328 11.331 3.124-.951-.671 2.268-3.152.917zM87.499 543.934H76.041l-.95 5.309 10.342.013c5.094 0 6.596 1.851 6.553 4.916-.024 1.57-.705 4.23-.999 5.095-.784 2.299-2.397 4.916-8.441 4.91l-10.054-.006-.948 5.315h11.434c4.034 0 5.744-.472 7.565-1.306 4.027-1.869 6.424-5.842 7.387-11.028 1.425-7.725-.353-13.218-10.431-13.218z" fill="#7B2CBF"/><path d="M71.097 554.044c-3.004 0-3.433 1.955-3.715 3.138-.374 1.545-.497 2.177-.497 2.177H78.62c3.004 0 3.433-1.956 3.715-3.139.374-1.545.497-2.176.497-2.176H71.097z" fill="#7B2CBF"/></svg>