<svg width="24" height="24" fill="none" xmlns="http://www.w3.org/2000/svg"><path fill-rule="evenodd" clip-rule="evenodd" d="M15 17.838l-1.856-5.567 5.568-5.57L15 17.839zm2.298-12.55l-5.568 5.568L6.162 9l11.136-3.712zm4.692-2.34a.951.951 0 00-.088-.361.967.967 0 00-.195-.294.96.96 0 00-.384-.23.987.987 0 00-.275-.054c-.022-.001-.042-.006-.065-.006-.1.002-.201.016-.299.048l-18 6a1 1 0 000 1.898l8.525 2.842 2.843 8.526a.998.998 0 001.896 0l6-18a1 1 0 00.048-.3c.001-.023-.005-.045-.006-.07z" fill="#240046"/><mask id="a" style="mask-type:alpha" maskUnits="userSpaceOnUse" x="2" y="2" width="20" height="20"><path fill-rule="evenodd" clip-rule="evenodd" d="M15 17.838l-1.856-5.567 5.568-5.57L15 17.839zm2.298-12.55l-5.568 5.568L6.162 9l11.136-3.712zm4.692-2.34a.951.951 0 00-.088-.361.967.967 0 00-.195-.294.96.96 0 00-.384-.23.987.987 0 00-.275-.054c-.022-.001-.042-.006-.065-.006-.1.002-.201.016-.299.048l-18 6a1 1 0 000 1.898l8.525 2.842 2.843 8.526a.998.998 0 001.896 0l6-18a1 1 0 00.048-.3c.001-.023-.005-.045-.006-.07z" fill="#fff"/></mask><g mask="url(#a)"><path fill="#240046" d="M0 0h24v24H0z"/></g></svg>