<svg width="32" height="32" fill="none" xmlns="http://www.w3.org/2000/svg"><path d="M14.08 16.22c4.506 0 6.127-4.512 6.551-8.218C21.154 3.436 18.995 0 14.08 0S7.005 3.436 7.528 8.002c.425 3.706 2.045 8.218 6.552 8.217z" fill="#fff"/><path d="M23.932 18.098c.145 0 .29.004.433.012a3.443 3.443 0 00-.754-.793c-.865-.646-1.987-.858-2.978-1.248-.483-.19-.915-.377-1.32-.592-1.37 1.502-3.155 2.287-5.234 2.287-2.078 0-3.864-.785-5.232-2.287-.406.215-.838.403-1.32.592-.992.39-2.113.602-2.98 1.248-1.497 1.118-1.884 3.632-2.188 5.347a30.7 30.7 0 00-.468 4.299c-.039 1.114.511 1.27 1.443 1.606 1.167.42 2.372.733 3.585.99 2.342.494 4.756.874 7.16.891a28.776 28.776 0 003.493-.253 7.679 7.679 0 01-1.363-4.376c0-4.259 3.465-7.724 7.723-7.724z" fill="#fff"/><path d="M23.932 19.642a6.179 6.179 0 100 12.358 6.179 6.179 0 000-12.358zm2.704 7.24h-1.643v1.642a1.06 1.06 0 11-2.12 0v-1.643h-1.644a1.06 1.06 0 110-2.12h1.643v-1.643a1.06 1.06 0 012.12 0v1.643h1.644a1.06 1.06 0 110 2.12z" fill="#fff"/></svg>