<svg width="72" height="72" fill="none" xmlns="http://www.w3.org/2000/svg"><path d="M62.272 49.583c-2.123-3.997-7.03-5.638-11.13-3.639l-4.34 2.117c.634.78 1.198 1.623 1.597 2.58.741 1.775.978 3.67.717 5.522l13.156-6.58zM33.89 17.016c0 8.597 6.453 15.826 14.766 16.875v-6.717c-2.45-.873-4.218-3.193-4.218-5.94h4.218a2.11 2.11 0 002.11 2.11 2.11 2.11 0 002.109-2.11 2.11 2.11 0 00-2.11-2.109 6.335 6.335 0 01-6.328-6.328c0-2.746 1.77-5.066 4.22-5.94V0C40.342 1.05 33.89 8.418 33.89 17.016z" fill="#240046"/><path d="M48.656 12.797a2.11 2.11 0 002.11 2.11 6.335 6.335 0 016.328 6.328c0 2.746-1.769 5.066-4.219 5.94v6.716c8.313-1.049 14.766-8.278 14.766-16.875C67.64 8.418 61.188 1.049 52.875 0v6.858c2.45.873 4.219 3.193 4.219 5.94h-4.219a2.11 2.11 0 00-2.11-2.11 2.11 2.11 0 00-2.109 2.11zm-29.531 4.219c0 9.32 7.555 16.875 16.875 16.875.684 0 1.334-.122 1.996-.201-5.025-3.86-8.324-9.863-8.324-16.674S32.97 4.06 37.996.2C37.334.121 36.684 0 36 0c-9.32 0-16.875 7.695-16.875 17.015z" fill="#240046"/><path d="M23.23.201c-.662-.079-1.312-.2-1.996-.2C11.914 0 4.36 7.695 4.36 17.015S11.915 33.89 21.234 33.89c.684 0 1.334-.122 1.997-.201-5.026-3.86-8.325-9.863-8.325-16.674S18.206 4.06 23.231.2zM0 42.328h8.438v25.313H0V42.328zm64.644 10.787L44.014 63.43l-14.68-5.644 1.511-3.939 12.947 4.977.7-1.658a6.328 6.328 0 00-3.478-8.34l-13.682-5.473c-3.8-1.52-8.21-1.343-11.871.487l-2.806 1.403v17.499L31.24 70.26c4.207 1.683 8.737 2.155 13.328 1.373 2.447-.417 4.798-1.305 7.018-2.415L72 58.94v-1.382c-.012-3.7-4.048-6.098-7.356-4.443z" fill="#240046"/></svg>