<svg width="72" height="72" fill="none" xmlns="http://www.w3.org/2000/svg"><circle cx="36" cy="36" r="36" fill="#240046"/><path d="M48.281 30.221c-.352-4.006-3.68-5.325-7.961-5.852l.055-5.528-3.307.008-.097 5.346c-.849.007-1.788.035-2.658-.048l.076-5.437-3.328-.083-.055 5.527c-.76-.014-6.746-.145-6.746-.145l-.04 3.527s2.457 0 2.367.02c1.34.07 1.796.82 1.851 1.473l-.226 15.074c-.097.403-.311 1.118-1.27 1.056.02.09-2.459 0-2.459 0l-.697 3.965s5.986.131 6.746.145l-.145 5.548 3.328.083.055-5.527c.96.062 1.809.055 2.658.048l-.075 5.437 3.328.083.144-5.548c5.613-.257 9.57-1.556 10.156-6.826.434-4.285-1.52-6.208-4.634-7.006 1.934-.639 3.148-2.347 2.934-5.34zm-4.839 11.867c-.075 4.201-7.125 3.556-9.403 3.514l.11-7.346c2.278.042 9.328-.55 9.293 3.832zM42.088 31.66c-.069 3.819-5.958 3.285-7.857 3.25l.076-6.672c1.878-.056 7.808-.577 7.781 3.422z" fill="#fff"/></svg>