<svg width="72" height="72" fill="none" xmlns="http://www.w3.org/2000/svg"><g clip-path="url(#clip0)" fill="#240046"><path d="M13.188 13.547H30.93c.14-.595.107-.452 2.338-8.131C34.06 2.7 32.025 0 29.207 0h-14.29c-2.816 0-4.853 2.698-4.065 5.416 2.242 7.713 2.193 7.507 2.337 8.13zm.508 4.233c.008 1.62-.194 3.24-.597 4.798H31.02a18.843 18.843 0 01-.596-4.798h-16.73zm26.087 45.156H38.09a2.117 2.117 0 00-2.117 2.116v6.915H41.9v-6.915a2.117 2.117 0 00-2.117-2.116z"/><path d="M32.705 26.811h-21.29a17.64 17.64 0 01-3.824 4.747c-11.257 9.957-9.792 28.33 3.254 36.175H2.133a2.117 2.117 0 000 4.234H31.74v-9.031a4.24 4.24 0 014.233-4.234H41.9V38.68c-3.226-6.735-6.272-6.581-9.195-11.869zM14.502 39.534c0-1.901 1.493-3.448 3.326-3.448 1.834 0 3.327 1.547 3.327 3.448 0 1.9-1.493 3.446-3.327 3.446-1.833 0-3.326-1.546-3.326-3.446zM19 55.18c-1.513 0-2.558-1.566-1.933-2.974l7.074-15.952a2.117 2.117 0 013.87 1.716l-7.075 15.951A2.117 2.117 0 0119 55.181zm9.009-1.053c-1.835 0-3.326-1.545-3.326-3.446 0-1.9 1.491-3.447 3.326-3.447 1.834 0 3.326 1.547 3.326 3.447 0 1.901-1.492 3.446-3.326 3.446zm21.628-14.594h-1.388a2.117 2.117 0 00-2.116 2.117V72h5.62V41.65a2.117 2.117 0 00-2.116-2.117zM59.869 29.28h-1.387a2.117 2.117 0 00-2.117 2.116V72h5.62V31.396a2.117 2.117 0 00-2.116-2.117zm9.998-10.089H68.48a2.117 2.117 0 00-2.117 2.117v50.659h5.62v-50.66a2.117 2.117 0 00-2.116-2.116z"/></g><defs><clipPath id="clip0"><path fill="#fff" d="M0 0h72v72H0z"/></clipPath></defs></svg>