<svg width="72" height="72" fill="none" xmlns="http://www.w3.org/2000/svg"><path d="M4.934 17.972c0 4.444 2.382 8.609 6.215 10.869 2.46 1.451 2.464 5.028 0 6.481a12.674 12.674 0 00-6.215 10.87v8.72H28.99a23.66 23.66 0 01-.117-2.358c0-3.939.966-7.654 2.675-10.925a12.666 12.666 0 00-5.352-6.307c-2.462-1.452-2.463-5.028 0-6.481a12.672 12.672 0 006.215-10.87V9.254H4.934v8.719zM12.8 48.898a2.118 2.118 0 11.002-4.237 2.118 2.118 0 01-.002 4.237zm11.265-31.062a2.118 2.118 0 110 4.235 2.118 2.118 0 010-4.235zm-.389 29.365a2.118 2.118 0 11-4.237-.002 2.118 2.118 0 014.237.002zm-5.003-11.658a2.117 2.117 0 110 4.235 2.117 2.117 0 010-4.235zM14.605 14.44a2.118 2.118 0 11-.002 4.237 2.118 2.118 0 01.002-4.237zM.936 5.017h35.472a.94.94 0 00.936-.936V.936A.938.938 0 0036.408 0H.936A.938.938 0 000 .936v3.145a.94.94 0 00.936.936zm28.869 54.13H.936a.938.938 0 00-.936.936v3.144c0 .517.42.938.936.938H31.92a23.529 23.529 0 01-2.115-5.018zm22.749-26.04c-10.73 0-19.447 8.73-19.447 19.447C33.107 63.285 41.84 72 52.554 72 63.277 72 72 63.277 72 52.554c0-10.724-8.723-19.447-19.446-19.447zm2.118 29.455v2.26a2.118 2.118 0 01-4.235 0v-2.26c-1.514 0-2.851-.3-4.267-1.282a2.118 2.118 0 012.416-3.478c.44.307.999.52 1.546.525h4.59l.03.001a1.828 1.828 0 000-3.656h-4.394a6.07 6.07 0 01-6.064-6.064c0-3.257 2.584-6.063 6.143-6.063v-2.259a2.118 2.118 0 114.235 0v2.26c1.87.029 3.688.843 4.998 2.24a2.117 2.117 0 01-2.876 3.097c-.25-.202-.92-1.09-2.201-1.103h-4.237c-.994 0-1.827.801-1.827 1.828a1.83 1.83 0 001.829 1.829h4.393a6.07 6.07 0 016.064 6.063c0 3.225-2.552 6.062-6.143 6.062z" fill="#240046"/></svg>