<svg width="32" height="32" viewBox="0 0 32 32" fill="none" xmlns="http://www.w3.org/2000/svg">
<g clip-path="url(#clip0)">
<path d="M25.6667 0H6.33341C4.31075 0 2.66675 1.644 2.66675 3.66667V28.3333C2.66675 30.356 4.31075 32 6.33341 32H25.6667C27.6894 32 29.3334 30.356 29.3334 28.3333V3.66667C29.3334 1.644 27.6894 0 25.6667 0ZM13.0401 24.96C13.4307 25.3507 13.4307 25.984 13.0401 26.3747C12.8454 26.5693 12.5894 26.6667 12.3334 26.6667C12.0774 26.6667 11.8214 26.5693 11.6267 26.3733L10.6667 25.4147L9.70675 26.3747C9.51208 26.5693 9.25608 26.6667 9.00008 26.6667C8.74408 26.6667 8.48808 26.5693 8.29341 26.3733C7.90275 25.9827 7.90275 25.3493 8.29341 24.9587L9.25208 24L8.29208 23.04C7.90141 22.6493 7.90141 22.016 8.29208 21.6253C8.68275 21.2347 9.31608 21.2347 9.70675 21.6253L10.6667 22.5853L11.6267 21.6253C12.0174 21.2347 12.6507 21.2347 13.0414 21.6253C13.4321 22.016 13.4321 22.6493 13.0414 23.04L12.0814 24L13.0401 24.96ZM12.3334 17H11.6667V17.6667C11.6667 18.2187 11.2187 18.6667 10.6667 18.6667C10.1147 18.6667 9.66675 18.2187 9.66675 17.6667V17H9.00008C8.44808 17 8.00008 16.552 8.00008 16C8.00008 15.448 8.44808 15 9.00008 15H9.66675V14.3333C9.66675 13.7813 10.1147 13.3333 10.6667 13.3333C11.2187 13.3333 11.6667 13.7813 11.6667 14.3333V15H12.3334C12.8854 15 13.3334 15.448 13.3334 16C13.3334 16.552 12.8854 17 12.3334 17ZM23.0001 26.6667H19.6667C19.1147 26.6667 18.6667 26.2187 18.6667 25.6667C18.6667 25.1147 19.1147 24.6667 19.6667 24.6667H23.0001C23.5521 24.6667 24.0001 25.1147 24.0001 25.6667C24.0001 26.2187 23.5521 26.6667 23.0001 26.6667ZM23.0001 23.3333H19.6667C19.1147 23.3333 18.6667 22.8853 18.6667 22.3333C18.6667 21.7813 19.1147 21.3333 19.6667 21.3333H23.0001C23.5521 21.3333 24.0001 21.7813 24.0001 22.3333C24.0001 22.8853 23.5521 23.3333 23.0001 23.3333ZM23.0001 17.3333H19.6667C19.1147 17.3333 18.6667 16.8853 18.6667 16.3333C18.6667 15.7813 19.1147 15.3333 19.6667 15.3333H23.0001C23.5521 15.3333 24.0001 15.7813 24.0001 16.3333C24.0001 16.8853 23.5521 17.3333 23.0001 17.3333ZM25.3334 8.33333C25.3334 9.62 24.2867 10.6667 23.0001 10.6667H9.00008C7.71341 10.6667 6.66675 9.62 6.66675 8.33333V6.33333C6.66675 5.04667 7.71341 4 9.00008 4H23.0001C24.2867 4 25.3334 5.04667 25.3334 6.33333V8.33333Z" fill="white"/>
</g>
<defs>
<clipPath id="clip0">
<rect width="32" height="32" fill="white"/>
</clipPath>
</defs>
</svg>
