<svg width="32" height="32" viewBox="0 0 32 32" fill="none" xmlns="http://www.w3.org/2000/svg">
<path d="M12.3333 0H2.33325C1.04663 0 0 1.04663 0 2.33325V8.33325C0 9.62012 1.04663 10.6667 2.33325 10.6667H12.3333C13.6201 10.6667 14.6667 9.62012 14.6667 8.33325V2.33325C14.6667 1.04663 13.6201 0 12.3333 0Z" fill="white"/>
<path d="M12.3333 13.3333H2.33325C1.04663 13.3333 0 14.3799 0 15.6667V29.6667C0 30.9534 1.04663 32 2.33325 32H12.3333C13.6201 32 14.6667 30.9534 14.6667 29.6667V15.6667C14.6667 14.3799 13.6201 13.3333 12.3333 13.3333Z" fill="white"/>
<path d="M29.6667 21.3333H19.6667C18.3799 21.3333 17.3333 22.3799 17.3333 23.6667V29.6667C17.3333 30.9534 18.3799 32 19.6667 32H29.6667C30.9534 32 32 30.9534 32 29.6667V23.6667C32 22.3799 30.9534 21.3333 29.6667 21.3333Z" fill="white"/>
<path d="M29.6667 0H19.6667C18.3799 0 17.3333 1.04663 17.3333 2.33325V16.3333C17.3333 17.6201 18.3799 18.6667 19.6667 18.6667H29.6667C30.9534 18.6667 32 17.6201 32 16.3333V2.33325C32 1.04663 30.9534 0 29.6667 0V0Z" fill="white"/>
</svg>
