<svg width="32" height="32" viewBox="0 0 32 32" fill="none" xmlns="http://www.w3.org/2000/svg">
<path d="M6.65594 6H17.3439L19.6506 4.15467C20.4359 3.528 20.7293 2.51067 20.3973 1.56133C20.0653 0.612 19.2026 0 18.1999 0H5.79994C4.79727 0 3.93461 0.613333 3.60261 1.56133C3.27061 2.50933 3.56394 3.528 4.34794 4.15333L6.65594 6Z" fill="white"/>
<path d="M22.6667 16.24L21.7867 17.12C21.2267 17.6933 20.4667 18 19.6667 18C18.8667 18 18.1067 17.6933 17.5467 17.12C16.3733 15.9467 16.3733 14.0533 17.5467 12.88L19.7467 10.68C19.0667 9.68 18.32 8.77333 17.52 8H6.48C2.82667 11.5733 0 17.8533 0 23C0 27.48 2.37333 32 7.66667 32H16.6667C21.1867 32 24 28.5467 24 23C24 20.8533 23.5067 18.5067 22.6667 16.24ZM11.4933 19H12.5067C14.0667 19 15.3333 20.2667 15.3333 21.8267C15.3333 23.2267 14.32 24.3867 13 24.6133V25.6667C13 26.2133 12.5467 26.6667 12 26.6667C11.4533 26.6667 11 26.2133 11 25.6667V24.6667H9.66667C9.12 24.6667 8.66667 24.2133 8.66667 23.6667C8.66667 23.12 9.12 22.6667 9.66667 22.6667H12.5067C12.96 22.6667 13.3333 22.2933 13.3333 21.84C13.3333 21.3733 12.96 21 12.5067 21H11.4933C9.93333 21 8.66667 19.7333 8.66667 18.1733C8.66667 16.7733 9.68 15.6133 11 15.3867V14.3333C11 13.7867 11.4533 13.3333 12 13.3333C12.5467 13.3333 13 13.7867 13 14.3333V15.3333H14.3333C14.88 15.3333 15.3333 15.7867 15.3333 16.3333C15.3333 16.88 14.88 17.3333 14.3333 17.3333H11.4933C11.04 17.3333 10.6667 17.7067 10.6667 18.16C10.6667 18.6267 11.04 19 11.4933 19Z" fill="white"/>
<path d="M29.6666 8H26.3333C25.9293 8 25.564 8.244 25.4093 8.61733C25.2547 8.99066 25.34 9.42133 25.6266 9.70666L26.4906 10.5707L25.1933 11.768L23.496 10.7973C23.104 10.5733 22.612 10.64 22.2933 10.96L18.96 14.2933C18.5693 14.684 18.5693 15.3173 18.96 15.708C19.1547 15.9027 19.4107 16.0013 19.6667 16.0013C19.9227 16.0013 20.1787 15.904 20.3733 15.708L23.1667 12.9147L24.836 13.8693C25.216 14.0867 25.6906 14.032 26.0106 13.736L27.9053 11.988L28.9586 13.0413C29.1506 13.232 29.4066 13.3333 29.6666 13.3333C29.796 13.3333 29.9253 13.308 30.0493 13.2573C30.4226 13.1027 30.6666 12.7373 30.6666 12.3333V9C30.6666 8.448 30.2186 8 29.6666 8Z" fill="white"/>
</svg>
