<svg width="32" height="32" viewBox="0 0 32 32" fill="none" xmlns="http://www.w3.org/2000/svg">
<path d="M32 21.6562C32 17.6853 29.7219 14.1414 26.3101 12.4175C26.2041 20.0312 20.0312 26.2041 12.4175 26.3101C14.1414 29.7219 17.6853 32 21.6562 32C23.5181 32 25.3286 31.5042 26.9194 30.562L31.9548 31.9548L30.562 26.9194C31.5042 25.3286 32 23.5181 32 21.6562Z" fill="white"/>
<path d="M24.4375 12.2188C24.4375 5.4812 18.9563 0 12.2188 0C5.4812 0 0 5.4812 0 12.2188C0 14.4146 0.584473 16.5525 1.69434 18.4294L0.0449219 24.3923L6.00806 22.7432C7.88501 23.853 10.0229 24.4375 12.2188 24.4375C18.9563 24.4375 24.4375 18.9563 24.4375 12.2188ZM10.3438 9.375H8.46875C8.46875 7.30713 10.1509 5.625 12.2188 5.625C14.2866 5.625 15.9688 7.30713 15.9688 9.375C15.9688 10.4246 15.5244 11.4333 14.7493 12.1423L13.1562 13.6003V15.0625H11.2812V12.7747L13.4834 10.759C13.877 10.3989 14.0938 9.90747 14.0938 9.375C14.0938 8.34106 13.2527 7.5 12.2188 7.5C11.1848 7.5 10.3438 8.34106 10.3438 9.375ZM11.2812 16.9375H13.1562V18.8125H11.2812V16.9375Z" fill="white"/>
</svg>
