<svg width="32" height="32" viewBox="0 0 32 32" fill="none" xmlns="http://www.w3.org/2000/svg">
<g clip-path="url(#clip0)">
<path d="M31.366 16.6949C30.6591 14.3094 29.3722 12.1129 27.6389 10.3294L28.1529 9.81538C28.5134 9.45488 28.5134 8.87038 28.1529 8.50988L23.4902 3.84726C23.1298 3.48676 22.5453 3.48676 22.1848 3.84726L21.6708 4.36126C19.8871 2.62782 17.6907 1.34101 15.3052 0.634069C12.8503 -0.0935563 10.2286 -0.197119 7.72394 0.334631C7.30156 0.424319 6.99775 0.794694 6.9925 1.22651C6.98725 1.65819 7.282 2.03588 7.702 2.13576L8.60575 2.35057C11.0519 2.93207 13.2847 4.17913 15.0626 5.95707L17.5688 8.46319L17.289 8.74294C16.9285 9.10344 16.9285 9.68794 17.289 10.0484L21.9516 14.7111C22.3121 15.0716 22.8966 15.0716 23.2571 14.7111L23.5369 14.4313L26.043 16.9374C27.8209 18.7154 29.068 20.9481 29.6495 23.3942L29.8643 24.2979C29.9633 24.7143 30.3353 25.0076 30.7623 25.0076C30.7661 25.0076 30.7698 25.0076 30.7736 25.0075C31.2053 25.0023 31.5758 24.6985 31.6654 24.2761C32.1971 21.7714 32.0936 19.1498 31.366 16.6949Z" fill="white"/>
<path d="M25.8475 23.7688C25.8475 22.3055 24.657 21.1148 23.1935 21.1148H23.0781V19.961C23.0781 19.4512 22.6648 19.0378 22.155 19.0378C21.6452 19.0378 21.2319 19.4512 21.2319 19.961V21.1148H19.3857C18.8758 21.1148 18.4625 21.5282 18.4625 22.038V28.9614C18.4625 29.4712 18.8758 29.8845 19.3857 29.8845H21.2319V31.0384C21.2319 31.5482 21.6452 31.9615 22.155 31.9615C22.6648 31.9615 23.0781 31.5482 23.0781 31.0384V29.8845H23.1935C24.6569 29.8845 25.8475 28.694 25.8475 27.2305C25.8475 26.5696 25.6041 25.9647 25.203 25.4997C25.6042 25.0347 25.8475 24.4298 25.8475 23.7688ZM23.1935 28.0383H20.3088V26.4228H23.1935C23.6389 26.4228 24.0013 26.7852 24.0013 27.2306C24.0013 27.676 23.6389 28.0383 23.1935 28.0383ZM23.1935 24.5766H20.3088V22.9612H23.1935C23.6389 22.9612 24.0013 23.3235 24.0013 23.7689C24.0013 24.2142 23.6389 24.5766 23.1935 24.5766Z" fill="white"/>
<path d="M16.2632 11.6338L0.270375 27.6266C-0.090125 27.9871 -0.090125 28.5716 0.270375 28.9321L3.06794 31.7297C3.24819 31.9099 3.48444 32.0001 3.72062 32.0001C3.95681 32.0001 4.19312 31.91 4.37331 31.7297L20.3661 15.7369L16.2632 11.6338Z" fill="white"/>
</g>
<defs>
<clipPath id="clip0">
<rect width="32" height="32" fill="white"/>
</clipPath>
</defs>
</svg>
