<svg width="32" height="32" viewBox="0 0 32 32" fill="none" xmlns="http://www.w3.org/2000/svg">
<g clip-path="url(#clip0)">
<path d="M25.0323 28.1823H6.96774C6.39768 28.1823 5.93548 27.7201 5.93548 27.15V24.0939C5.93548 22.638 6.79445 21.3137 8.12387 20.7201C11.9903 18.9937 11.7784 19.0521 12.0797 19.0521H13.3066C13.7817 19.0521 14.1954 19.3763 14.309 19.8377C14.7417 21.5961 17.2582 21.597 17.6911 19.8377C17.8046 19.3764 18.2184 19.0521 18.6935 19.0521C20.0139 19.0521 20.0817 19.0259 20.3412 19.1417L23.8762 20.7201C25.2055 21.3137 26.0646 22.638 26.0646 24.0939V27.15C26.0645 27.7201 25.6023 28.1823 25.0323 28.1823ZM16.0252 3.81787C12.5485 3.81787 9.71994 6.64639 9.71994 10.1232C9.71994 13.5999 12.5485 16.4285 16.0252 16.4285C19.502 16.4285 22.3305 13.5999 22.3305 10.1232C22.3305 6.64639 19.502 3.81787 16.0252 3.81787ZM6.07858 10.5621C3.88948 10.5621 2.10852 12.3431 2.10852 14.5323C2.10852 16.7214 3.88948 18.5023 6.07858 18.5023C8.26774 18.5023 10.0487 16.7214 10.0487 14.5323C10.0486 12.3431 8.26768 10.5621 6.07858 10.5621ZM25.9214 10.5621C23.7323 10.5621 21.9513 12.3431 21.9513 14.5323C21.9513 16.7214 23.7323 18.5023 25.9214 18.5023C28.1105 18.5023 29.8915 16.7214 29.8915 14.5323C29.8915 12.3431 28.1105 10.5621 25.9214 10.5621ZM30.5097 20.0188C28.3618 19.0595 28.4132 19.0497 28.1194 19.0497C26.5817 19.0497 25.5759 19.039 24.8955 19.0356C24.2192 19.0323 23.9952 19.9393 24.5944 20.2527C25.0851 20.5094 25.383 20.7283 25.7368 21.1143C26.7692 22.2357 26.8654 23.4225 26.8652 24.4064C26.8652 24.7627 27.1539 25.0511 27.5102 25.0511H30.9677C31.5381 25.0511 32 24.5885 32 24.0188V22.3162C32 21.3246 31.4148 20.4233 30.5097 20.0188ZM3.88065 19.0497C3.58813 19.0497 3.64568 19.0562 1.49032 20.0188C0.585161 20.4233 0 21.3246 0 22.3162V24.0188C0 24.5885 0.461935 25.051 1.03226 25.051H4.48955C4.84606 25.051 5.13497 24.7623 5.13452 24.4058C5.13335 23.4184 5.22671 22.2401 6.26323 21.1143C6.61529 20.7301 6.91568 20.5092 7.39548 20.2572C7.99348 19.943 7.77252 19.0386 7.09703 19.0398C6.41258 19.041 5.40684 19.0497 3.88065 19.0497Z" fill="white"/>
</g>
<defs>
<clipPath id="clip0">
<rect width="32" height="32" fill="white"/>
</clipPath>
</defs>
</svg>
