<svg width="32" height="32" viewBox="0 0 32 32" fill="none" xmlns="http://www.w3.org/2000/svg">
<path d="M24.8318 0H4.21631C3.10693 0 2.06396 0.432129 1.2793 1.2168C0.494629 2.00146 0.0625 3.04443 0.0625 4.15381C0.0625 5.59106 0.796387 6.85962 1.90869 7.60571V4.30762C1.90869 2.78076 3.15088 1.53857 4.67798 1.53857H24.3701C25.8972 1.53857 27.1394 2.78076 27.1394 4.30762V7.60889C27.363 7.45874 27.574 7.28564 27.7688 7.09082C28.5535 6.30615 28.9856 5.26318 28.9856 4.15381C28.9856 1.86328 27.1221 0 24.8318 0Z" fill="white"/>
<path d="M24.3701 3.38452H21.6011V9.84619C21.6011 10.356 21.1877 10.7693 20.678 10.7693C20.1682 10.7693 19.7549 10.356 19.7549 9.84619V3.38452H9.29321V9.84619C9.29321 10.356 8.87988 10.7693 8.37012 10.7693C7.86035 10.7693 7.44702 10.356 7.44702 9.84619V3.38452H4.67798C4.16821 3.38452 3.75488 3.79785 3.75488 4.30762V31.0769C3.75488 31.5867 4.16821 32 4.67798 32H24.3701C24.8799 32 25.2932 31.5867 25.2932 31.0769V4.30762C25.2932 3.79785 24.8799 3.38452 24.3701 3.38452ZM8.9856 15.0769H10.5239V13.5386C10.5239 13.0286 10.9373 12.6155 11.447 12.6155C11.9568 12.6155 12.3701 13.0286 12.3701 13.5386V16.9231C12.3701 17.2625 12.6462 17.5386 12.9856 17.5386C13.325 17.5386 13.6011 17.2625 13.6011 16.9231V15.0769C13.6011 13.7197 14.7053 12.6155 16.0625 12.6155C17.4197 12.6155 18.5239 13.7197 18.5239 15.0769H20.0625C20.5723 15.0769 20.9856 15.4902 20.9856 16C20.9856 16.5098 20.5723 16.9231 20.0625 16.9231H18.5239V18.4614C18.5239 18.9714 18.1108 19.3845 17.6011 19.3845C17.0911 19.3845 16.678 18.9714 16.678 18.4614V15.0769C16.678 14.7375 16.4019 14.4614 16.0625 14.4614C15.7231 14.4614 15.447 14.7375 15.447 15.0769V16.9231C15.447 18.2803 14.3428 19.3845 12.9856 19.3845C11.6282 19.3845 10.5239 18.2803 10.5239 16.9231H8.9856C8.47583 16.9231 8.0625 16.5098 8.0625 16C8.0625 15.4902 8.47583 15.0769 8.9856 15.0769ZM21.6011 25.2307C21.6011 25.7405 21.1877 26.1538 20.678 26.1538C19.9993 26.1538 19.447 26.7061 19.447 27.3845C19.447 27.8943 19.0339 28.3076 18.5239 28.3076H10.5239C10.0142 28.3076 9.60107 27.8943 9.60107 27.3845C9.60107 26.7061 9.04883 26.1538 8.37012 26.1538C7.86035 26.1538 7.44702 25.7405 7.44702 25.2307V22.1538C7.44702 21.644 7.86035 21.2307 8.37012 21.2307C8.87988 21.2307 9.29321 21.644 9.29321 22.1538V24.4492C10.2488 24.7502 11.0046 25.5059 11.3057 26.4614H17.7424C18.0435 25.5059 18.7993 24.7502 19.7549 24.4492V22.1538C19.7549 21.644 20.1682 21.2307 20.678 21.2307C21.1877 21.2307 21.6011 21.644 21.6011 22.1538V25.2307Z" fill="white"/>
</svg>
