<svg width="31" height="43" fill="none" xmlns="http://www.w3.org/2000/svg"><path d="M28.37 13.935c-.406-4.578-4.23-6.086-9.15-6.688L19.281.93 15.48.938l-.11 6.11c-.977.009-2.056.04-3.056-.055L12.402.78 8.577.685l-.063 6.317C7.641 6.986.761 6.836.761 6.836l-.047 4.031s2.825 0 2.722.023c1.54.08 2.063.937 2.127 1.683L5.303 29.8c-.112.46-.358 1.277-1.46 1.206.023.103-2.826 0-2.826 0l-.8 4.531s6.88.15 7.752.166l-.166 6.34 3.825.096.063-6.317c1.103.071 2.08.063 3.055.055l-.087 6.214 3.825.095.166-6.34c6.452-.295 10.999-1.78 11.673-7.803.5-4.896-1.747-7.094-5.326-8.006 2.222-.73 3.619-2.682 3.372-6.103zm-5.562 13.563c-.087 4.8-8.19 4.063-10.808 4.016l.126-8.396c2.619.048 10.721-.628 10.682 4.38zm-1.557-11.92c-.079 4.365-6.848 3.755-9.03 3.715l.087-7.626c2.158-.063 8.975-.66 8.943 3.912z" fill="#fff"/></svg>