<svg xmlns="http://www.w3.org/2000/svg" width="512" height="512" viewBox="0 0 900.204 900.205"><g xmlns="http://www.w3.org/2000/svg" fill="#240046"><path d="M219.1 515.652c0-6.7.4-13.3 1-19.8-93-27.101-161.8-88.4-161.8-159.7 0-13.8.4-37.7 1.1-39.9 21.2 52.5 100.6 94.3 193.3 109.2l46.7-74.6c10.101-16.1 22.601-30.5 37.3-42.9 14.101-11.9 30.2-22.1 48-30.2 21.301-9.7 44.5-16.4 69.5-20.1-2.599-3.6-4.199-8-4.199-12.8 0-12 10-22 22-22s22 10 22 22c0 3.4-.801 6.7-2.199 9.6 3.1-.1 6.1-.1 9.199-.1 48.801 0 100 10.3 149.9 29.8-.701-121.9-146.201-221-325.4-221-179.601 0-325.4 99.8-325.4 222.1l-.1 97.3c0 98.6 94.9 182 225.8 210.6-4.501-19.5-6.801-38.7-6.701-57.5zm213.4-407.7c12 0 22 10 22 22s-10 22-22 22-22-10-22-22 9.9-22 22-22zm-86 75c12 0 22 10 22 22s-10 22-22 22-22-10-22-22 10-22 22-22zm-81.6-50.7c12 0 22 10 22 22s-10 22-22 22-22-10-22-22 10-22 22-22zm-50.7 101.4c12 0 22 10 22 22s-10 22-22 22-22-10-22-22 10-22 22-22zm-61.7-59.6c12 0 22 10 22 22s-10 22-22 22-22-10-22-22c0-11.9 10-22 22-22z" data-original="#000000"/><path d="M718.5 331.452c-22.1-13.9-44.699-25.5-67.4-35.1-51.1-21.5-102.6-32.1-149.9-32.1-76.5 0-141.899 27.8-176.299 82.5l-39.3 62.7-12.4 19.8c-14 22.4-21.7 47.4-23.6 73.9-1.8 24.4 1.4 50 9 75.8 22.4 76.2 83.6 154.601 172.6 210.5 72.101 45.2 149.5 67.601 217.9 67.601 76 0 140.801-27.601 175-82.101.5-.8 50.1-79.899 51.9-82.7 64.999-103.7-5.401-265.4-157.501-360.8zm-1.699 235c0 12-10 22-22 22s-22-10-22-22 10-22 22-22 22 10 22 22zm-28.701-160.9c12 0 22 10 22 22s-10 22-22 22-22-10-22-22 10-22 22-22zm-94.7 105.8c0 12-10 22-22 22-8.301 0-15.701-4.8-19.5-11.8-1.6-3.101-2.6-6.601-2.6-10.2 0-12 10-22 22-22a21.39 21.39 0 0114.799 5.899c4.501 4 7.301 9.701 7.301 16.101zm30.799-90.4c0 12-10 22-22 22s-22-10-22-22 10-22 22-22 22 10 22 22zm-105.799-79.3c9.1 0 17.1 5.8 20.4 13.8 1.1 2.601 1.699 5.3 1.699 8.3 0 12-10 22-22 22-7.5 0-14.1-3.899-18.1-9.699-2.5-3.5-3.9-7.801-3.9-12.4-.099-12.001 9.901-22.001 21.901-22.001zm270.7 380.099c-51.199 81.7-199.299 81.101-319.1 5.9-60.5-38-107.1-90.7-131.7-144.1-11.3-24.601-18-49.301-19.3-72.9-1.4-26.5 4-51.5 17.399-72.9 5.101-8.1 13-20.3 17.9-27.5 2.1-3.1 3.7-5.3 4.3-5.699-.3 1.8-.6 3.6-.8 5.5-3.2 28.399 7 62 27 96 12.8 21.899 29.7 43.899 49.6 65 25.2 26.6 55.401 51.5 88.5 72.3 102.699 64.399 230.5 86.6 288 45 .001-.101-14.399 21.7-21.799 33.399zm18.099-192.799c0 12-10 22-22 22s-22-10-22-22 10-22 22-22 22 10 22 22z" data-original="#000000"/></g></svg>