<svg width="32" height="26" fill="none" xmlns="http://www.w3.org/2000/svg"><path d="M20.957 0H9.308l-.966 5.397 10.515.013c5.18 0 6.706 1.882 6.663 4.998-.025 1.596-.717 4.301-1.016 5.18-.798 2.337-2.437 4.998-8.583 4.992L5.7 20.574l-.963 5.404H16.36c4.1 0 5.84-.48 7.69-1.328 4.096-1.9 6.533-5.94 7.511-11.212C33.012 5.584 31.204 0 20.957 0z" fill="#fff"/><path d="M4.282 10.278c-3.054 0-3.49 1.988-3.777 3.19C.125 15.04 0 15.682 0 15.682h11.93c3.053 0 3.49-1.988 3.776-3.19.38-1.571.505-2.213.505-2.213H4.281z" fill="#fff"/></svg>