<svg width="32" height="32" fill="none" xmlns="http://www.w3.org/2000/svg"><path d="M30.91 5.333c0 2.394-2.117 4.334-4.728 4.334-2.611 0-4.727-1.94-4.727-4.334C21.455 2.94 23.57 1 26.182 1c2.61 0 4.727 1.94 4.727 4.333z" fill="#fff"/><path d="M26.182 10.667c-3.209 0-5.818-2.392-5.818-5.334 0-2.94 2.61-5.333 5.818-5.333C29.39 0 32 2.392 32 5.333c0 2.942-2.61 5.334-5.818 5.334zm0-8.667c-2.006 0-3.636 1.496-3.636 3.333 0 1.838 1.63 3.334 3.636 3.334 2.006 0 3.636-1.496 3.636-3.334 0-1.837-1.63-3.333-3.636-3.333zm4.728 24.667c0 2.393-2.117 4.333-4.728 4.333-2.611 0-4.727-1.94-4.727-4.333 0-2.394 2.116-4.334 4.727-4.334 2.61 0 4.727 1.94 4.727 4.334z" fill="#fff"/><path d="M26.182 32c-3.209 0-5.818-2.392-5.818-5.333 0-2.942 2.61-5.334 5.818-5.334 3.209 0 5.818 2.392 5.818 5.334C32 29.607 29.39 32 26.182 32zm0-8.667c-2.006 0-3.636 1.496-3.636 3.334 0 1.837 1.63 3.333 3.636 3.333 2.006 0 3.636-1.496 3.636-3.333 0-1.838-1.63-3.334-3.636-3.334zM10.546 16c0 2.393-2.117 4.333-4.728 4.333-2.61 0-4.727-1.94-4.727-4.333 0-2.393 2.117-4.333 4.727-4.333 2.611 0 4.728 1.94 4.728 4.333z" fill="#fff"/><path d="M5.818 21.333C2.61 21.333 0 18.941 0 16c0-2.941 2.61-5.333 5.818-5.333 3.209 0 5.819 2.392 5.819 5.333 0 2.941-2.61 5.333-5.819 5.333zm0-8.666c-2.006 0-3.636 1.496-3.636 3.333 0 1.837 1.63 3.333 3.636 3.333 2.006 0 3.637-1.496 3.637-3.333 0-1.837-1.63-3.333-3.637-3.333z" fill="#fff"/><path d="M9.253 15.36c-.507 0-.998-.241-1.266-.673-.397-.639-.153-1.454.544-1.82l13.497-7.052c.696-.367 1.585-.143 1.984.498.397.639.152 1.454-.544 1.82L9.97 15.184a1.548 1.548 0 01-.718.175zm13.495 11c-.245 0-.492-.056-.719-.175L8.532 19.132c-.696-.364-.94-1.179-.543-1.819.395-.64 1.285-.865 1.983-.498l13.497 7.053c.697.364.941 1.179.544 1.819-.269.432-.76.673-1.265.673z" fill="#fff"/></svg>