<svg width="16" height="20" fill="none" xmlns="http://www.w3.org/2000/svg"><path fill-rule="evenodd" clip-rule="evenodd" d="M8 12a1 1 0 100 2 1 1 0 000-2zm0 4c-1.654 0-3-1.346-3-3s1.346-3 3-3 3 1.346 3 3-1.346 3-3 3zm5-10H6V4c0-1.103.897-2 2-2s2 .897 2 2a1 1 0 102 0c0-2.206-1.794-4-4-4S4 1.794 4 4v2H3C1.346 6 0 7.346 0 9v8c0 1.654 1.346 3 3 3h10c1.654 0 3-1.346 3-3V9c0-1.654-1.346-3-3-3z" fill="#231F20"/><mask id="a" maskUnits="userSpaceOnUse" x="0" y="0" width="16" height="20"><path fill-rule="evenodd" clip-rule="evenodd" d="M8 12a1 1 0 100 2 1 1 0 000-2zm0 4c-1.654 0-3-1.346-3-3s1.346-3 3-3 3 1.346 3 3-1.346 3-3 3zm5-10H6V4c0-1.103.897-2 2-2s2 .897 2 2a1 1 0 102 0c0-2.206-1.794-4-4-4S4 1.794 4 4v2H3C1.346 6 0 7.346 0 9v8c0 1.654 1.346 3 3 3h10c1.654 0 3-1.346 3-3V9c0-1.654-1.346-3-3-3z" fill="#fff"/></mask><g mask="url(#a)"><path fill="#240046" d="M-4-2h24v24H-4z"/></g></svg>