<svg width="96" height="96" viewBox="0 0 96 96" fill="none" xmlns="http://www.w3.org/2000/svg">
<path d="M96 48C96 21.4903 74.5097 0 48 0C21.4903 0 0 21.4903 0 48C0 74.5097 21.4903 96 48 96C74.5097 96 96 74.5097 96 48Z" fill="#000A09"/>
<g style="mix-blend-mode:luminosity">
<path d="M96 48C96 21.4903 74.5097 0 48 0C21.4903 0 0 21.4903 0 48C0 74.5097 21.4903 96 48 96C74.5097 96 96 74.5097 96 48Z" fill="#FF8500"/>
<path d="M70.0637 42.8445C71.0165 36.0157 65.9347 32.5219 58.9471 29.9809L61.1704 20.77L55.6121 19.4996L53.3888 28.3929C51.9595 28.0752 50.3714 27.7576 48.9421 27.2812L51.1654 18.2291L45.6071 16.7998L43.3838 26.0107C42.1133 25.6931 32.1084 23.1522 32.1084 23.1522L30.6791 29.0281C30.6791 29.0281 34.8081 29.9809 34.6493 29.9809C36.8726 30.6162 37.349 32.0455 37.1902 33.1571L30.9967 58.2489C30.6791 58.8842 30.0438 59.9958 28.4557 59.5194C28.4557 59.6782 24.3267 58.5666 24.3267 58.5666L21.627 64.9189C21.627 64.9189 31.6319 67.4599 32.9024 67.7775L30.5203 76.9884L36.0786 78.4177L38.3019 69.2068C39.89 69.6832 41.3193 70.0008 42.7486 70.3184L40.5252 79.3705L46.0835 80.7998L48.4657 71.5889C57.9942 73.3358 65.1406 72.7006 68.158 64.1249C70.5401 57.1373 67.9992 53.167 63.0761 50.6261C66.5699 50.3085 69.2696 47.9264 70.0637 42.8445ZM57.359 60.7899C55.6121 67.7775 44.019 63.9661 40.2076 63.0132L43.225 50.7849C47.0364 51.7378 59.1059 53.4847 57.359 60.7899ZM59.1059 42.8445C57.5177 49.1968 47.8304 46.0206 44.6543 45.2266L47.354 34.11C50.5302 34.7452 60.694 36.1745 59.1059 42.8445Z" fill="white"/>
</g>
</svg>
