<svg width="96" height="96" viewBox="0 0 96 96" fill="none" xmlns="http://www.w3.org/2000/svg">
<path d="M96 48C96 21.4903 74.5097 0 48 0C21.4903 0 0 21.4903 0 48C0 74.5097 21.4903 96 48 96C74.5097 96 96 74.5097 96 48Z" fill="#000A09"/>
<g style="mix-blend-mode:luminosity">
<path d="M48 96C74.5097 96 96 74.5097 96 48C96 21.4903 74.5097 0 48 0C21.4903 0 0 21.4903 0 48C0 74.5097 21.4903 96 48 96Z" fill="#00B4A1"/>
<path d="M57.2581 24.0117H35.4301L33.6241 34.1127L53.3101 34.1427C63.0031 34.1427 65.8801 37.6617 65.7871 43.5027C65.7451 46.4967 64.4401 51.5607 63.8881 53.1927C62.3971 57.5727 59.3251 62.5587 47.8111 62.5437L28.6771 62.5317L26.8711 72.6447H48.6421C56.3191 72.6447 59.5891 71.7477 63.0421 70.1547C70.7041 66.6207 75.2671 59.0517 77.1001 49.1727C79.8181 34.4727 76.4281 24.0117 57.2551 24.0117H57.2581Z" fill="white"/>
<path d="M47.4207 47.3939C48.1317 44.4389 48.3567 43.2539 48.3567 43.2539H26.0187C20.3067 43.2539 19.4907 46.9739 18.9477 49.2239C18.2367 52.1669 18.0117 53.3669 18.0117 53.3669H40.3527C46.0617 53.3669 46.8777 49.6469 47.4207 47.3939Z" fill="white"/>
</g>
</svg>
