<svg width="96" height="96" viewBox="0 0 96 96" fill="none" xmlns="http://www.w3.org/2000/svg">
<path d="M96 48C96 21.4903 74.5097 0 48 0C21.4903 0 0 21.4903 0 48C0 74.5097 21.4903 96 48 96C74.5097 96 96 74.5097 96 48Z" fill="#000A09"/>
<g style="mix-blend-mode:luminosity">
<path d="M96 48C96 21.4903 74.5097 0 48 0C21.4903 0 0 21.4903 0 48C0 74.5097 21.4903 96 48 96C74.5097 96 96 74.5097 96 48Z" fill="#7B2CBF"/>
<path d="M47.9941 61.2046L28.3506 49.5933L47.9939 17L67.6377 49.5932L47.9941 61.2046Z" fill="white"/>
<path d="M47.9941 80.9996L67.6494 53.3184L47.9942 64.9238L28.3506 53.3181L47.9941 80.9996Z" fill="white"/>
</g>
</svg>
