<svg width="96" height="96" viewBox="0 0 96 96" fill="none" xmlns="http://www.w3.org/2000/svg">
<path d="M96 48C96 21.4903 74.5097 0 48 0C21.4903 0 0 21.4903 0 48C0 74.5097 21.4903 96 48 96C74.5097 96 96 74.5097 96 48Z" fill="#000A09"/>
<g style="mix-blend-mode:luminosity">
<path d="M96 48C96 21.4903 74.5097 0 48 0C21.4903 0 0 21.4903 0 48C0 74.5097 21.4903 96 48 96C74.5097 96 96 74.5097 96 48Z" fill="#008CC9"/>
<path d="M47.7618 49.3173L42.991 65.4157H68.5088C69.23 65.4157 69.818 66.0037 69.818 66.7248C69.818 66.8469 69.7958 66.9689 69.7625 67.091L67.5436 74.7352C67.3217 75.4896 66.6338 76 65.8572 76H26.8816L33.4718 53.7441L26.1826 55.963L27.7913 50.7596L35.0916 48.5407L44.3446 17.2759C44.5554 16.5214 45.2433 16 46.0199 16H55.8942C56.6153 16 57.2033 16.5769 57.2033 17.3092C57.2033 17.4312 57.1922 17.5533 57.1589 17.6642L49.3927 44.1028L56.6819 41.8839L55.1175 47.176L47.7618 49.3173Z" fill="white"/>
</g>
</svg>
