<svg width="104" height="48" viewBox="0 0 104 48" fill="none" xmlns="http://www.w3.org/2000/svg">
<path d="M18.4 28.4C18 28.1 17.5 27.9 17 27.8C16.5 27.6 16 27.6 15.5 27.6C15.2 27.6 14.9 27.6 14.6 27.7C14.3 27.8 14.1 27.9 13.9 28C13.7 28.1 13.5 28.3 13.4 28.5C13.3 28.7 13.2 28.9 13.2 29.1C13.2 29.3 13.2 29.5 13.3 29.6C13.4 29.7 13.5 29.9 13.7 30C13.9 30.1 14.1 30.2 14.4 30.3C14.7 30.4 15 30.4 15.3 30.5L16 30.6C16.4 30.7 16.8 30.7 17.2 30.9C17.6 31 17.9 31.2 18.2 31.4C18.5 31.6 18.8 31.9 18.9 32.2C19.1 32.5 19.2 32.9 19.2 33.4C19.2 33.9 19.1 34.4 18.9 34.8C18.7 35.2 18.4 35.5 18 35.8C17.6 36.1 17.2 36.3 16.7 36.4C16.2 36.5 15.7 36.6 15.1 36.6C14.8 36.6 14.4 36.6 14 36.5C13.6 36.4 13.3 36.4 12.9 36.2C12.5 36.1 12.2 35.9 11.9 35.8C11.6 35.6 11.3 35.4 11 35.2L11.9 33.9C12.1 34.1 12.3 34.2 12.5 34.3C12.7 34.4 13 34.6 13.3 34.7C13.6 34.8 13.9 34.9 14.2 34.9C14.5 35 14.8 35 15.1 35C15.4 35 15.7 35 16 34.9C16.3 34.8 16.5 34.7 16.7 34.6C16.9 34.5 17.1 34.3 17.2 34.1C17.3 33.9 17.4 33.7 17.4 33.5C17.4 33.1 17.2 32.8 16.8 32.6C16.4 32.4 15.8 32.2 15.1 32.1L14.6 32C14.2 31.9 13.9 31.9 13.5 31.7C13.1 31.6 12.8 31.4 12.5 31.2C12.2 31 12 30.7 11.8 30.4C11.6 30.1 11.5 29.7 11.5 29.2C11.5 28.7 11.6 28.2 11.8 27.9C12 27.5 12.3 27.2 12.7 26.9C13.1 26.6 13.5 26.4 14 26.3C14.5 26.2 15 26.1 15.5 26.1C16.2 26.1 16.9 26.2 17.5 26.4C18.1 26.6 18.6 26.9 19.2 27.2L18.4 28.4ZM24 29.2C24.5 29.2 24.9 29.3 25.3 29.5C25.7 29.7 26 29.9 26.3 30.2C26.6 30.5 26.8 30.9 27 31.3C27.2 31.7 27.2 32.2 27.2 32.8C27.2 32.9 27.2 33 27.2 33.1C27.2 33.2 27.2 33.3 27.2 33.4H22.1C22.1 33.7 22.2 34 22.4 34.2C22.5 34.4 22.7 34.6 22.9 34.7C23.1 34.8 23.3 34.9 23.5 35C23.7 35.1 24 35.1 24.2 35.1C24.5 35.1 24.9 35 25.2 34.9C25.5 34.8 25.9 34.6 26.2 34.4L27 35.5C26.6 35.9 26.1 36.1 25.7 36.3C25.2 36.4 24.7 36.5 24.2 36.5C23.7 36.5 23.2 36.4 22.8 36.2C22.4 36 22 35.8 21.7 35.5C21.4 35.2 21.1 34.8 21 34.4C20.8 34 20.7 33.5 20.7 32.9C20.7 32.4 20.8 31.9 21 31.4C21.2 31 21.4 30.6 21.7 30.2C22 29.9 22.4 29.6 22.8 29.5C23 29.3 23.4 29.2 24 29.2ZM23.9 30.6C23.6 30.6 23.4 30.6 23.2 30.7C23 30.8 22.8 30.9 22.7 31.1C22.5 31.3 22.4 31.4 22.3 31.6C22.2 31.8 22.1 32 22.1 32.3H25.7C25.6 31.8 25.4 31.3 25.1 31C24.8 30.7 24.4 30.6 23.9 30.6ZM31.9 29.2C32.4 29.2 32.9 29.3 33.3 29.5C33.7 29.7 34.1 30 34.4 30.3L33.4 31.3C33.2 31.1 32.9 30.9 32.6 30.8C32.3 30.7 32 30.6 31.7 30.6C31.4 30.6 31.1 30.7 30.9 30.8C30.6 30.9 30.4 31.1 30.3 31.3C30.1 31.5 30 31.7 29.9 32C29.8 32.3 29.7 32.6 29.7 32.9C29.7 33.2 29.8 33.5 29.9 33.8C30 34.1 30.1 34.3 30.3 34.5C30.5 34.7 30.7 34.8 30.9 35C31.1 35.1 31.4 35.2 31.7 35.2C32 35.2 32.3 35.1 32.6 35C32.9 34.9 33.1 34.7 33.4 34.5L34.3 35.5C34 35.9 33.6 36.1 33.2 36.3C32.8 36.5 32.3 36.6 31.8 36.6C31.3 36.6 30.8 36.5 30.3 36.3C29.9 36.1 29.5 35.9 29.2 35.5C28.9 35.2 28.6 34.8 28.5 34.3C28.3 33.9 28.2 33.4 28.2 32.9C28.2 32.4 28.3 31.9 28.5 31.5C28.7 31.1 28.9 30.7 29.2 30.3C29.5 30 29.9 29.7 30.3 29.5C30.9 29.3 31.4 29.2 31.9 29.2ZM42.3 33.4C42.3 33.9 42.2 34.4 42 34.8C41.8 35.2 41.6 35.5 41.3 35.8C41 36.1 40.7 36.2 40.3 36.4C39.9 36.5 39.5 36.6 39.1 36.6C38.7 36.6 38.3 36.5 37.9 36.4C37.5 36.3 37.2 36.1 36.9 35.8C36.6 35.6 36.4 35.2 36.2 34.8C36 34.4 35.9 33.9 35.9 33.4V29.4H37.4V33.2C37.4 33.5 37.4 33.8 37.5 34C37.6 34.2 37.7 34.4 37.9 34.6C38.1 34.7 38.2 34.8 38.4 34.9C38.6 35 38.8 35 39.1 35C39.3 35 39.6 35 39.8 34.9C40 34.8 40.2 34.7 40.3 34.6C40.5 34.5 40.6 34.3 40.7 34C40.8 33.8 40.8 33.5 40.8 33.2V29.4H42.3V33.4ZM47.8 29.2C48 29.2 48.2 29.2 48.4 29.2C48.6 29.2 48.8 29.3 48.9 29.3L48.5 30.8C48.3 30.7 48.2 30.7 47.9 30.6C47.7 30.6 47.5 30.5 47.3 30.5C47.1 30.5 46.8 30.5 46.6 30.6C46.4 30.7 46.2 30.8 46.1 31C46 31.2 45.8 31.4 45.8 31.6C45.7 31.8 45.7 32.1 45.7 32.4V36.2H44.2V29.3H45.7V30.1C45.9 29.8 46.2 29.5 46.6 29.4C46.9 29.3 47.3 29.2 47.8 29.2ZM52.8 29.2C53.3 29.2 53.7 29.3 54.1 29.5C54.5 29.7 54.8 29.9 55.1 30.2C55.4 30.5 55.6 30.9 55.8 31.3C56 31.7 56 32.2 56 32.8C56 32.9 56 33 56 33.1C56 33.2 56 33.3 56 33.4H51C51 33.7 51.1 34 51.3 34.2C51.4 34.4 51.6 34.6 51.8 34.7C52 34.8 52.2 34.9 52.4 35C52.6 35.1 52.9 35.1 53.1 35.1C53.4 35.1 53.8 35 54.1 34.9C54.4 34.8 54.8 34.6 55.1 34.4L55.8 35.5C55.4 35.9 54.9 36.1 54.5 36.3C54 36.4 53.5 36.5 53 36.5C52.5 36.5 52 36.4 51.6 36.2C51.2 36 50.8 35.8 50.5 35.5C50.2 35.2 49.9 34.8 49.8 34.4C49.6 34 49.5 33.5 49.5 32.9C49.5 32.4 49.6 31.9 49.8 31.4C50 31 50.2 30.6 50.5 30.2C50.8 29.9 51.2 29.6 51.6 29.5C51.8 29.3 52.3 29.2 52.8 29.2ZM52.8 30.6C52.5 30.6 52.3 30.6 52.1 30.7C51.9 30.8 51.7 30.9 51.6 31.1C51.4 31.3 51.3 31.4 51.2 31.6C51.1 31.8 51 32 51 32.3H54.6C54.5 31.8 54.3 31.3 54 31C53.7 30.7 53.3 30.6 52.8 30.6ZM62.6 26C63 26 63.5 26 63.9 26.1C64.3 26.2 64.7 26.3 65.1 26.5C65.5 26.7 65.8 26.9 66.1 27.2C66.4 27.5 66.6 27.8 66.8 28.1L65.4 29C65.1 28.5 64.7 28.2 64.2 27.9C63.7 27.6 63.2 27.5 62.6 27.5C62.1 27.5 61.6 27.6 61.2 27.8C60.8 28 60.4 28.2 60.1 28.6C59.8 28.9 59.5 29.3 59.4 29.8C59.2 30.3 59.1 30.7 59.1 31.3C59.1 31.8 59.2 32.3 59.4 32.8C59.6 33.3 59.8 33.6 60.1 34C60.4 34.3 60.8 34.6 61.2 34.7C61.6 34.9 62.1 35 62.6 35C63.2 35 63.7 34.9 64.2 34.6C64.7 34.3 65.1 34 65.4 33.5L66.7 34.5C66.5 34.8 66.2 35.1 65.9 35.4C65.6 35.7 65.3 35.9 64.9 36C64.5 36.2 64.2 36.3 63.8 36.4C63.4 36.5 63 36.5 62.5 36.5C61.7 36.5 61 36.4 60.4 36.1C59.8 35.8 59.2 35.5 58.7 35C58.2 34.5 57.9 34 57.6 33.3C57.3 32.7 57.2 32 57.2 31.2C57.2 30.4 57.3 29.7 57.6 29.1C57.9 28.5 58.2 27.9 58.7 27.4C59.2 26.9 59.7 26.6 60.4 26.3C61.1 26.2 61.8 26 62.6 26ZM71.5 29.2C72 29.2 72.5 29.3 73 29.5C73.5 29.7 73.8 29.9 74.2 30.3C74.5 30.6 74.8 31 75 31.5C75.2 31.9 75.3 32.4 75.3 32.9C75.3 33.4 75.2 33.9 75 34.3C74.8 34.7 74.6 35.1 74.2 35.5C73.9 35.8 73.5 36.1 73 36.3C72.5 36.5 72.1 36.6 71.5 36.6C71 36.6 70.5 36.5 70 36.3C69.5 36.1 69.2 35.9 68.8 35.5C68.5 35.2 68.2 34.8 68 34.3C67.8 33.9 67.7 33.4 67.7 32.9C67.7 32.4 67.8 31.9 68 31.5C68.2 31.1 68.4 30.7 68.8 30.3C69.1 30 69.5 29.7 70 29.5C70.5 29.3 71 29.2 71.5 29.2ZM71.5 30.6C71.2 30.6 70.9 30.7 70.6 30.8C70.3 30.9 70.1 31.1 69.9 31.3C69.7 31.5 69.6 31.7 69.4 32C69.3 32.3 69.2 32.6 69.2 32.9C69.2 33.2 69.3 33.5 69.4 33.8C69.5 34.1 69.7 34.3 69.9 34.5C70.1 34.7 70.3 34.8 70.6 35C70.9 35.1 71.2 35.2 71.5 35.2C71.8 35.2 72.1 35.1 72.4 35C72.7 34.9 72.9 34.7 73.1 34.5C73.3 34.3 73.4 34.1 73.6 33.8C73.7 33.5 73.8 33.2 73.8 32.9C73.8 32.6 73.7 32.3 73.6 32C73.5 31.7 73.3 31.5 73.1 31.3C72.9 31.1 72.7 31 72.4 30.8C72.1 30.7 71.8 30.6 71.5 30.6ZM79.8 29.2C80.3 29.2 80.7 29.3 81.1 29.5C81.5 29.7 81.8 29.9 82 30.2V25.9H83.5V36.3H82V35.5C81.8 35.8 81.5 36.1 81.1 36.2C80.7 36.4 80.3 36.5 79.8 36.5C79.3 36.5 78.9 36.4 78.4 36.2C78 36 77.6 35.8 77.3 35.4C77 35.1 76.7 34.7 76.6 34.2C76.4 33.8 76.3 33.3 76.3 32.7C76.3 32.2 76.4 31.7 76.6 31.2C76.8 30.8 77 30.4 77.3 30C77.6 29.7 78 29.4 78.4 29.2C78.8 29.3 79.3 29.2 79.8 29.2ZM79.9 30.6C79.6 30.6 79.3 30.7 79 30.8C78.7 30.9 78.5 31.1 78.3 31.3C78.1 31.5 78 31.7 77.9 32C77.8 32.3 77.8 32.6 77.8 32.9C77.8 33.2 77.8 33.5 77.9 33.8C78 34.1 78.1 34.3 78.3 34.5C78.5 34.7 78.7 34.9 79 35C79.3 35.1 79.5 35.2 79.9 35.2C80.2 35.2 80.5 35.1 80.8 35C81.1 34.9 81.3 34.7 81.5 34.5C81.7 34.3 81.8 34.1 81.9 33.8C82 33.5 82.1 33.2 82.1 32.9C82.1 32.6 82 32.3 81.9 32C81.8 31.7 81.7 31.5 81.5 31.3C81.3 31.1 81.1 30.9 80.8 30.8C80.5 30.7 80.3 30.6 79.9 30.6ZM88.5 29.2C89 29.2 89.4 29.3 89.8 29.5C90.2 29.7 90.5 29.9 90.8 30.2C91.1 30.5 91.3 30.9 91.5 31.3C91.7 31.7 91.7 32.2 91.7 32.8C91.7 32.9 91.7 33 91.7 33.1C91.7 33.2 91.7 33.3 91.7 33.4H86.6C86.6 33.7 86.7 34 86.9 34.2C87 34.4 87.2 34.6 87.4 34.7C87.6 34.8 87.8 34.9 88 35C88.2 35.1 88.5 35.1 88.7 35.1C89 35.1 89.4 35 89.7 34.9C90 34.8 90.4 34.6 90.7 34.4L91.4 35.5C91 35.9 90.5 36.1 90.1 36.3C89.6 36.4 89.1 36.5 88.6 36.5C88.1 36.5 87.6 36.4 87.2 36.2C86.8 36 86.4 35.8 86.1 35.5C85.8 35.2 85.5 34.8 85.4 34.4C85.2 34 85.1 33.5 85.1 32.9C85.1 32.4 85.2 31.9 85.4 31.4C85.6 31 85.8 30.6 86.1 30.2C86.4 29.9 86.8 29.6 87.2 29.5C87.5 29.3 88 29.2 88.5 29.2ZM92.4 36.3V36H92.5V35.9H92.1V36H92.2L92.4 36.3ZM93.1 36.3V35.9H93L92.9 36.2L92.8 35.9H92.7V36.3H92.8V36L92.9 36.3H93L93.1 36V36.3ZM88.4 30.6C88.1 30.6 87.9 30.6 87.7 30.7C87.5 30.8 87.3 30.9 87.2 31.1C87 31.3 86.9 31.4 86.8 31.6C86.7 31.8 86.6 32 86.6 32.3H90.2C90.1 31.8 89.9 31.3 89.6 31C89.3 30.7 88.9 30.6 88.4 30.6Z" fill="#AAAAAA"/>
<path d="M23.3996 22.1H21.6996V13.5L18.6996 21H16.8996L13.7996 13.5V22H12.0996V11.6H14.6996L17.6996 19.1L20.6996 11.6H23.2996V22.1H23.3996ZM32.2996 22.1H30.6996V21.2C30.4996 21.5 30.0996 21.8 29.7996 22C29.3996 22.2 28.9996 22.3 28.4996 22.3C27.9996 22.3 27.4996 22.2 27.0996 22C26.6996 21.8 26.2996 21.6 25.9996 21.2C25.6996 20.9 25.3996 20.5 25.1996 20C24.9996 19.5 24.8996 19 24.8996 18.5C24.8996 18 24.9996 17.4 25.1996 17C25.3996 16.5 25.5996 16.1 25.9996 15.8C26.2996 15.5 26.6996 15.2 27.0996 15C27.4996 14.8 27.9996 14.7 28.4996 14.7C28.9996 14.7 29.4996 14.8 29.7996 15C30.1996 15.2 30.4996 15.4 30.6996 15.8V14.9H32.2996V22.1ZM28.6996 16.2C28.3996 16.2 28.0996 16.3 27.7996 16.4C27.4996 16.5 27.2996 16.7 27.0996 16.9C26.8996 17.1 26.7996 17.3 26.6996 17.6C26.5996 17.9 26.5996 18.2 26.5996 18.5C26.5996 18.8 26.5996 19.1 26.6996 19.4C26.7996 19.7 26.8996 19.9 27.0996 20.1C27.2996 20.3 27.4996 20.5 27.7996 20.6C28.0996 20.7 28.3996 20.8 28.6996 20.8C28.9996 20.8 29.2996 20.7 29.5996 20.6C29.8996 20.5 30.0996 20.3 30.2996 20.1C30.4996 19.9 30.5996 19.7 30.6996 19.4C30.7996 19.1 30.8996 18.8 30.8996 18.5C30.8996 18.2 30.7996 17.9 30.6996 17.6C30.5996 17.3 30.3996 17.1 30.2996 16.9C30.0996 16.7 29.8996 16.5 29.5996 16.4C29.2996 16.2 28.9996 16.2 28.6996 16.2ZM39.4996 16.7C39.3996 16.6 39.2996 16.6 39.0996 16.5C38.8996 16.4 38.7996 16.4 38.5996 16.3C38.3996 16.2 38.1996 16.2 37.9996 16.2C37.7996 16.2 37.5996 16.1 37.2996 16.1C36.8996 16.1 36.4996 16.2 36.2996 16.3C36.0996 16.5 35.8996 16.7 35.8996 16.9C35.8996 17 35.8996 17.1 35.9996 17.2C36.0996 17.3 36.0996 17.4 36.2996 17.4C36.3996 17.5 36.4996 17.5 36.6996 17.5C36.7996 17.5 36.9996 17.6 37.1996 17.6L37.8996 17.7C38.6996 17.8 39.2996 18 39.6996 18.4C40.0996 18.7 40.3996 19.2 40.3996 19.8C40.3996 20.1 40.2996 20.5 40.1996 20.7C40.0996 21 39.7996 21.2 39.5996 21.4C39.2996 21.6 38.9996 21.8 38.5996 21.9C38.1996 22 37.6996 22.1 37.1996 22.1C36.9996 22.1 36.7996 22.1 36.5996 22.1C36.3996 22.1 36.0996 22 35.7996 22C35.4996 21.9 35.1996 21.8 34.9996 21.7C34.6996 21.6 34.3996 21.4 34.1996 21.2L34.8996 20C34.9996 20.1 35.1996 20.2 35.2996 20.3C35.4996 20.4 35.5996 20.5 35.7996 20.5C35.9996 20.6 36.1996 20.6 36.3996 20.7C36.5996 20.7 36.8996 20.8 37.1996 20.8C37.6996 20.8 38.0996 20.7 38.3996 20.6C38.6996 20.4 38.7996 20.2 38.7996 20C38.7996 19.8 38.6996 19.6 38.4996 19.5C38.2996 19.4 37.9996 19.3 37.5996 19.2L36.8996 19.1C36.0996 19 35.4996 18.8 35.0996 18.4C34.6996 18 34.4996 17.6 34.4996 17C34.4996 16.6 34.5996 16.3 34.6996 16C34.7996 15.7 34.9996 15.5 35.2996 15.3C35.5996 15.1 35.8996 15 36.1996 14.8C36.5996 14.7 36.9996 14.6 37.3996 14.6C37.9996 14.6 38.4996 14.7 38.9996 14.8C39.4996 14.9 39.8996 15.1 40.2996 15.4L39.4996 16.7ZM46.8996 16.3H44.1996V19.4C44.1996 19.6 44.1996 19.8 44.2996 20C44.3996 20.2 44.3996 20.3 44.4996 20.4C44.5996 20.5 44.6996 20.6 44.8996 20.6C44.9996 20.6 45.1996 20.7 45.2996 20.7C45.4996 20.7 45.7996 20.7 45.9996 20.6C46.2996 20.5 46.4996 20.4 46.6996 20.3L47.2996 21.5C46.9996 21.7 46.6996 21.9 46.2996 22C45.8996 22.1 45.4996 22.2 45.0996 22.2C44.2996 22.2 43.6996 22 43.1996 21.5C42.6996 21 42.4996 20.3 42.4996 19.4V16.2H41.0996V14.8H42.4996V12.6H44.0996V14.8H46.7996V16.3H46.8996ZM51.6996 14.7C52.1996 14.7 52.6996 14.8 53.0996 15C53.4996 15.2 53.8996 15.4 54.1996 15.8C54.4996 16.1 54.6996 16.5 54.8996 17C55.0996 17.5 55.1996 18 55.1996 18.5C55.1996 18.6 55.1996 18.7 55.1996 18.8C55.1996 18.9 55.1996 19 55.1996 19.1H49.8996C49.8996 19.4 49.9996 19.7 50.1996 19.9C50.2996 20.1 50.4996 20.3 50.6996 20.5C50.8996 20.6 51.0996 20.8 51.2996 20.8C51.4996 20.9 51.7996 20.9 51.9996 20.9C52.3996 20.9 52.6996 20.8 53.0996 20.7C53.4996 20.6 53.7996 20.4 54.0996 20.1L54.8996 21.2C54.4996 21.6 53.9996 21.8 53.4996 22C52.9996 22.1 52.4996 22.2 51.8996 22.2C51.3996 22.2 50.8996 22.1 50.3996 21.9C49.9996 21.7 49.5996 21.5 49.1996 21.1C48.8996 20.8 48.5996 20.4 48.3996 19.9C48.1996 19.4 48.0996 18.9 48.0996 18.4C48.0996 17.8 48.1996 17.3 48.3996 16.9C48.5996 16.4 48.7996 16 49.0996 15.7C49.3996 15.4 49.7996 15.1 50.1996 14.9C50.6996 14.8 51.1996 14.7 51.6996 14.7ZM51.6996 16.1C51.3996 16.1 51.1996 16.1 50.9996 16.2C50.7996 16.3 50.5996 16.4 50.3996 16.6C50.1996 16.8 50.0996 16.9 49.9996 17.2C49.8996 17.4 49.7996 17.7 49.7996 17.9H53.4996C53.3996 17.3 53.1996 16.9 52.8996 16.6C52.5996 16.2 52.1996 16.1 51.6996 16.1ZM60.4996 14.7C60.6996 14.7 60.9996 14.7 61.0996 14.7C61.2996 14.7 61.4996 14.8 61.6996 14.9L61.2996 16.4C61.0996 16.3 60.8996 16.3 60.6996 16.2C60.4996 16.2 60.2996 16.1 60.0996 16.1C59.8996 16.1 59.5996 16.1 59.3996 16.2C59.1996 16.3 58.9996 16.4 58.8996 16.6C58.7996 16.8 58.5996 17 58.4996 17.2C58.3996 17.4 58.3996 17.7 58.3996 18V21.9H56.7996V14.7H58.2996V15.5C58.4996 15.2 58.7996 14.9 59.1996 14.7C59.6996 14.8 60.0996 14.7 60.4996 14.7ZM65.8996 14.7C66.3996 14.7 66.8996 14.8 67.3996 15C67.8996 15.2 68.2996 15.5 68.5996 15.9L67.5996 17C67.2996 16.8 67.0996 16.6 66.7996 16.4C66.4996 16.3 66.1996 16.2 65.8996 16.2C65.5996 16.2 65.2996 16.3 65.0996 16.4C64.7996 16.5 64.5996 16.7 64.3996 16.9C64.1996 17.1 64.0996 17.3 63.9996 17.6C63.8996 17.9 63.7996 18.2 63.7996 18.5C63.7996 18.8 63.8996 19.1 63.9996 19.4C64.0996 19.7 64.2996 19.9 64.3996 20.1C64.5996 20.3 64.7996 20.5 65.0996 20.6C65.3996 20.7 65.5996 20.8 65.8996 20.8C66.1996 20.8 66.5996 20.7 66.8996 20.6C67.1996 20.5 67.4996 20.3 67.6996 20.1L68.6996 21.2C68.3996 21.6 67.9996 21.9 67.4996 22.1C66.9996 22.3 66.4996 22.4 65.9996 22.4C65.3996 22.4 64.8996 22.3 64.4996 22.1C63.9996 21.9 63.5996 21.6 63.2996 21.3C62.9996 21 62.6996 20.6 62.4996 20.1C62.2996 19.6 62.1996 19.1 62.1996 18.6C62.1996 18.1 62.2996 17.6 62.4996 17.1C62.6996 16.6 62.8996 16.2 63.2996 15.9C63.5996 15.6 63.9996 15.3 64.4996 15.1C64.7996 14.8 65.2996 14.7 65.8996 14.7ZM76.8996 22.1H75.2996V21.2C75.0996 21.5 74.6996 21.8 74.3996 22C73.9996 22.2 73.5996 22.3 73.0996 22.3C72.5996 22.3 72.0996 22.2 71.6996 22C71.2996 21.8 70.8996 21.6 70.5996 21.2C70.2996 20.9 69.9996 20.5 69.7996 20C69.5996 19.5 69.4996 19 69.4996 18.5C69.4996 18 69.5996 17.4 69.7996 17C69.9996 16.5 70.1996 16.1 70.5996 15.8C70.8996 15.5 71.2996 15.2 71.6996 15C72.0996 14.8 72.5996 14.7 73.0996 14.7C73.5996 14.7 74.0996 14.8 74.3996 15C74.7996 15.2 75.0996 15.4 75.2996 15.8V14.9H76.8996V22.1ZM73.2996 16.2C72.9996 16.2 72.6996 16.3 72.3996 16.4C72.0996 16.5 71.8996 16.7 71.6996 16.9C71.4996 17.1 71.3996 17.3 71.2996 17.6C71.1996 17.9 71.1996 18.2 71.1996 18.5C71.1996 18.8 71.2996 19.1 71.2996 19.4C71.3996 19.7 71.4996 19.9 71.6996 20.1C71.8996 20.3 72.0996 20.5 72.3996 20.6C72.6996 20.7 72.9996 20.8 73.2996 20.8C73.5996 20.8 73.8996 20.7 74.1996 20.6C74.4996 20.5 74.6996 20.3 74.8996 20.1C75.0996 19.9 75.1996 19.7 75.2996 19.4C75.3996 19.1 75.4996 18.8 75.4996 18.5C75.4996 18.2 75.3996 17.9 75.2996 17.6C75.1996 17.3 74.9996 17.1 74.8996 16.9C74.6996 16.7 74.4996 16.5 74.1996 16.4C73.8996 16.2 73.5996 16.2 73.2996 16.2ZM82.7996 14.7C82.9996 14.7 83.2996 14.7 83.3996 14.7C83.5996 14.7 83.7996 14.8 83.9996 14.9L83.5996 16.4C83.3996 16.3 83.1996 16.3 82.9996 16.2C82.7996 16.2 82.5996 16.1 82.3996 16.1C82.1996 16.1 81.8996 16.1 81.6996 16.2C81.4996 16.3 81.2996 16.4 81.1996 16.6C81.0996 16.8 80.8996 17 80.7996 17.2C80.6996 17.4 80.6996 17.7 80.6996 18V21.9H79.0996V14.7H80.5996V15.5C80.7996 15.2 81.0996 14.9 81.4996 14.7C81.9996 14.8 82.3996 14.7 82.7996 14.7ZM87.9996 14.7C88.4996 14.7 88.9996 14.8 89.2996 15C89.6996 15.2 89.9996 15.4 90.1996 15.8V11.3H91.7996V22.1H90.1996V21.2C89.9996 21.5 89.5996 21.8 89.2996 22C88.8996 22.2 88.4996 22.3 87.9996 22.3C87.4996 22.3 86.9996 22.2 86.5996 22C86.1996 21.8 85.7996 21.6 85.4996 21.2C85.1996 20.9 84.8996 20.5 84.6996 20C84.4996 19.5 84.3996 19 84.3996 18.5C84.3996 18 84.4996 17.4 84.6996 17C84.8996 16.5 85.0996 16.1 85.4996 15.8C85.7996 15.5 86.1996 15.2 86.5996 15C86.9996 14.8 87.4996 14.7 87.9996 14.7ZM93.5996 21.4C93.6996 21.4 93.6996 21.4 93.7996 21.4C93.8996 21.4 93.8996 21.5 93.8996 21.5L93.9996 21.6C93.9996 21.7 93.9996 21.7 93.9996 21.8C93.9996 21.9 93.9996 21.9 93.9996 22C93.9996 22.1 93.8996 22.1 93.8996 22.1L93.7996 22.2C93.6996 22.2 93.6996 22.2 93.5996 22.2C93.4996 22.2 93.4996 22.2 93.3996 22.2C93.2996 22.2 93.2996 22.1 93.2996 22.1L93.1996 22C93.1996 21.9 93.1996 21.9 93.1996 21.8C93.1996 21.7 93.1996 21.7 93.1996 21.6C93.1996 21.5 93.2996 21.5 93.2996 21.5L93.3996 21.4C93.4996 21.4 93.4996 21.4 93.5996 21.4ZM93.5996 22.2H93.6996C93.6996 22.2 93.7996 22.2 93.7996 22.1L93.8996 22V21.9V21.8C93.8996 21.8 93.8996 21.7 93.7996 21.7L93.6996 21.6H93.5996H93.4996C93.4996 21.6 93.3996 21.6 93.3996 21.7L93.2996 21.8V21.9V22C93.2996 22 93.2996 22.1 93.3996 22.1L93.4996 22.2H93.5996ZM93.5996 21.6C93.6996 21.6 93.6996 21.6 93.6996 21.6V21.7V21.8H93.5996L93.6996 22H93.5996L93.4996 21.8V22H93.3996V21.6H93.5996ZM93.4996 21.7V21.8H93.5996C93.5996 21.8 93.5996 21.8 93.6996 21.8C93.6996 21.8 93.6996 21.8 93.5996 21.8H93.4996V21.7ZM88.1996 16.2C87.8996 16.2 87.5996 16.3 87.2996 16.4C86.9996 16.5 86.7996 16.7 86.5996 16.9C86.3996 17.1 86.2996 17.3 86.1996 17.6C85.9996 17.9 85.9996 18.2 85.9996 18.5C85.9996 18.8 86.0996 19.1 86.0996 19.4C86.1996 19.7 86.2996 19.9 86.4996 20.1C86.6996 20.3 86.8996 20.5 87.1996 20.6C87.4996 20.7 87.7996 20.8 88.0996 20.8C88.3996 20.8 88.6996 20.7 88.9996 20.6C89.2996 20.5 89.4996 20.3 89.6996 20.1C89.8996 19.9 89.9996 19.7 90.0996 19.4C90.1996 19.1 90.2996 18.8 90.2996 18.5C90.2996 18.2 90.1996 17.9 90.0996 17.6C89.9996 17.3 89.7996 17.1 89.6996 16.9C89.4996 16.7 89.2996 16.5 88.9996 16.4C88.7996 16.2 88.4996 16.2 88.1996 16.2Z" fill="#AAAAAA"/>
<g style="mix-blend-mode:luminosity">
<path d="M18.4 28.4C18 28.1 17.5 27.9 17 27.8C16.5 27.6 16 27.6 15.5 27.6C15.2 27.6 14.9 27.6 14.6 27.7C14.3 27.8 14.1 27.9 13.9 28C13.7 28.1 13.5 28.3 13.4 28.5C13.3 28.7 13.2 28.9 13.2 29.1C13.2 29.3 13.2 29.5 13.3 29.6C13.4 29.7 13.5 29.9 13.7 30C13.9 30.1 14.1 30.2 14.4 30.3C14.7 30.4 15 30.4 15.3 30.5L16 30.6C16.4 30.7 16.8 30.7 17.2 30.9C17.6 31 17.9 31.2 18.2 31.4C18.5 31.6 18.8 31.9 18.9 32.2C19.1 32.5 19.2 32.9 19.2 33.4C19.2 33.9 19.1 34.4 18.9 34.8C18.7 35.2 18.4 35.5 18 35.8C17.6 36.1 17.2 36.3 16.7 36.4C16.2 36.5 15.7 36.6 15.1 36.6C14.8 36.6 14.4 36.6 14 36.5C13.6 36.4 13.3 36.4 12.9 36.2C12.5 36.1 12.2 35.9 11.9 35.8C11.6 35.6 11.3 35.4 11 35.2L11.9 33.9C12.1 34.1 12.3 34.2 12.5 34.3C12.7 34.4 13 34.6 13.3 34.7C13.6 34.8 13.9 34.9 14.2 34.9C14.5 35 14.8 35 15.1 35C15.4 35 15.7 35 16 34.9C16.3 34.8 16.5 34.7 16.7 34.6C16.9 34.5 17.1 34.3 17.2 34.1C17.3 33.9 17.4 33.7 17.4 33.5C17.4 33.1 17.2 32.8 16.8 32.6C16.4 32.4 15.8 32.2 15.1 32.1L14.6 32C14.2 31.9 13.9 31.9 13.5 31.7C13.1 31.6 12.8 31.4 12.5 31.2C12.2 31 12 30.7 11.8 30.4C11.6 30.1 11.5 29.7 11.5 29.2C11.5 28.7 11.6 28.2 11.8 27.9C12 27.5 12.3 27.2 12.7 26.9C13.1 26.6 13.5 26.4 14 26.3C14.5 26.2 15 26.1 15.5 26.1C16.2 26.1 16.9 26.2 17.5 26.4C18.1 26.6 18.6 26.9 19.2 27.2L18.4 28.4ZM24 29.2C24.5 29.2 24.9 29.3 25.3 29.5C25.7 29.7 26 29.9 26.3 30.2C26.6 30.5 26.8 30.9 27 31.3C27.2 31.7 27.2 32.2 27.2 32.8C27.2 32.9 27.2 33 27.2 33.1C27.2 33.2 27.2 33.3 27.2 33.4H22.1C22.1 33.7 22.2 34 22.4 34.2C22.5 34.4 22.7 34.6 22.9 34.7C23.1 34.8 23.3 34.9 23.5 35C23.7 35.1 24 35.1 24.2 35.1C24.5 35.1 24.9 35 25.2 34.9C25.5 34.8 25.9 34.6 26.2 34.4L27 35.5C26.6 35.9 26.1 36.1 25.7 36.3C25.2 36.4 24.7 36.5 24.2 36.5C23.7 36.5 23.2 36.4 22.8 36.2C22.4 36 22 35.8 21.7 35.5C21.4 35.2 21.1 34.8 21 34.4C20.8 34 20.7 33.5 20.7 32.9C20.7 32.4 20.8 31.9 21 31.4C21.2 31 21.4 30.6 21.7 30.2C22 29.9 22.4 29.6 22.8 29.5C23 29.3 23.4 29.2 24 29.2ZM23.9 30.6C23.6 30.6 23.4 30.6 23.2 30.7C23 30.8 22.8 30.9 22.7 31.1C22.5 31.3 22.4 31.4 22.3 31.6C22.2 31.8 22.1 32 22.1 32.3H25.7C25.6 31.8 25.4 31.3 25.1 31C24.8 30.7 24.4 30.6 23.9 30.6ZM31.9 29.2C32.4 29.2 32.9 29.3 33.3 29.5C33.7 29.7 34.1 30 34.4 30.3L33.4 31.3C33.2 31.1 32.9 30.9 32.6 30.8C32.3 30.7 32 30.6 31.7 30.6C31.4 30.6 31.1 30.7 30.9 30.8C30.6 30.9 30.4 31.1 30.3 31.3C30.1 31.5 30 31.7 29.9 32C29.8 32.3 29.7 32.6 29.7 32.9C29.7 33.2 29.8 33.5 29.9 33.8C30 34.1 30.1 34.3 30.3 34.5C30.5 34.7 30.7 34.8 30.9 35C31.1 35.1 31.4 35.2 31.7 35.2C32 35.2 32.3 35.1 32.6 35C32.9 34.9 33.1 34.7 33.4 34.5L34.3 35.5C34 35.9 33.6 36.1 33.2 36.3C32.8 36.5 32.3 36.6 31.8 36.6C31.3 36.6 30.8 36.5 30.3 36.3C29.9 36.1 29.5 35.9 29.2 35.5C28.9 35.2 28.6 34.8 28.5 34.3C28.3 33.9 28.2 33.4 28.2 32.9C28.2 32.4 28.3 31.9 28.5 31.5C28.7 31.1 28.9 30.7 29.2 30.3C29.5 30 29.9 29.7 30.3 29.5C30.9 29.3 31.4 29.2 31.9 29.2ZM42.3 33.4C42.3 33.9 42.2 34.4 42 34.8C41.8 35.2 41.6 35.5 41.3 35.8C41 36.1 40.7 36.2 40.3 36.4C39.9 36.5 39.5 36.6 39.1 36.6C38.7 36.6 38.3 36.5 37.9 36.4C37.5 36.3 37.2 36.1 36.9 35.8C36.6 35.6 36.4 35.2 36.2 34.8C36 34.4 35.9 33.9 35.9 33.4V29.4H37.4V33.2C37.4 33.5 37.4 33.8 37.5 34C37.6 34.2 37.7 34.4 37.9 34.6C38.1 34.7 38.2 34.8 38.4 34.9C38.6 35 38.8 35 39.1 35C39.3 35 39.6 35 39.8 34.9C40 34.8 40.2 34.7 40.3 34.6C40.5 34.5 40.6 34.3 40.7 34C40.8 33.8 40.8 33.5 40.8 33.2V29.4H42.3V33.4ZM47.8 29.2C48 29.2 48.2 29.2 48.4 29.2C48.6 29.2 48.8 29.3 48.9 29.3L48.5 30.8C48.3 30.7 48.2 30.7 47.9 30.6C47.7 30.6 47.5 30.5 47.3 30.5C47.1 30.5 46.8 30.5 46.6 30.6C46.4 30.7 46.2 30.8 46.1 31C46 31.2 45.8 31.4 45.8 31.6C45.7 31.8 45.7 32.1 45.7 32.4V36.2H44.2V29.3H45.7V30.1C45.9 29.8 46.2 29.5 46.6 29.4C46.9 29.3 47.3 29.2 47.8 29.2ZM52.8 29.2C53.3 29.2 53.7 29.3 54.1 29.5C54.5 29.7 54.8 29.9 55.1 30.2C55.4 30.5 55.6 30.9 55.8 31.3C56 31.7 56 32.2 56 32.8C56 32.9 56 33 56 33.1C56 33.2 56 33.3 56 33.4H51C51 33.7 51.1 34 51.3 34.2C51.4 34.4 51.6 34.6 51.8 34.7C52 34.8 52.2 34.9 52.4 35C52.6 35.1 52.9 35.1 53.1 35.1C53.4 35.1 53.8 35 54.1 34.9C54.4 34.8 54.8 34.6 55.1 34.4L55.8 35.5C55.4 35.9 54.9 36.1 54.5 36.3C54 36.4 53.5 36.5 53 36.5C52.5 36.5 52 36.4 51.6 36.2C51.2 36 50.8 35.8 50.5 35.5C50.2 35.2 49.9 34.8 49.8 34.4C49.6 34 49.5 33.5 49.5 32.9C49.5 32.4 49.6 31.9 49.8 31.4C50 31 50.2 30.6 50.5 30.2C50.8 29.9 51.2 29.6 51.6 29.5C51.8 29.3 52.3 29.2 52.8 29.2ZM52.8 30.6C52.5 30.6 52.3 30.6 52.1 30.7C51.9 30.8 51.7 30.9 51.6 31.1C51.4 31.3 51.3 31.4 51.2 31.6C51.1 31.8 51 32 51 32.3H54.6C54.5 31.8 54.3 31.3 54 31C53.7 30.7 53.3 30.6 52.8 30.6ZM62.6 26C63 26 63.5 26 63.9 26.1C64.3 26.2 64.7 26.3 65.1 26.5C65.5 26.7 65.8 26.9 66.1 27.2C66.4 27.5 66.6 27.8 66.8 28.1L65.4 29C65.1 28.5 64.7 28.2 64.2 27.9C63.7 27.6 63.2 27.5 62.6 27.5C62.1 27.5 61.6 27.6 61.2 27.8C60.8 28 60.4 28.2 60.1 28.6C59.8 28.9 59.5 29.3 59.4 29.8C59.2 30.3 59.1 30.7 59.1 31.3C59.1 31.8 59.2 32.3 59.4 32.8C59.6 33.3 59.8 33.6 60.1 34C60.4 34.3 60.8 34.6 61.2 34.7C61.6 34.9 62.1 35 62.6 35C63.2 35 63.7 34.9 64.2 34.6C64.7 34.3 65.1 34 65.4 33.5L66.7 34.5C66.5 34.8 66.2 35.1 65.9 35.4C65.6 35.7 65.3 35.9 64.9 36C64.5 36.2 64.2 36.3 63.8 36.4C63.4 36.5 63 36.5 62.5 36.5C61.7 36.5 61 36.4 60.4 36.1C59.8 35.8 59.2 35.5 58.7 35C58.2 34.5 57.9 34 57.6 33.3C57.3 32.7 57.2 32 57.2 31.2C57.2 30.4 57.3 29.7 57.6 29.1C57.9 28.5 58.2 27.9 58.7 27.4C59.2 26.9 59.7 26.6 60.4 26.3C61.1 26.2 61.8 26 62.6 26ZM71.5 29.2C72 29.2 72.5 29.3 73 29.5C73.5 29.7 73.8 29.9 74.2 30.3C74.5 30.6 74.8 31 75 31.5C75.2 31.9 75.3 32.4 75.3 32.9C75.3 33.4 75.2 33.9 75 34.3C74.8 34.7 74.6 35.1 74.2 35.5C73.9 35.8 73.5 36.1 73 36.3C72.5 36.5 72.1 36.6 71.5 36.6C71 36.6 70.5 36.5 70 36.3C69.5 36.1 69.2 35.9 68.8 35.5C68.5 35.2 68.2 34.8 68 34.3C67.8 33.9 67.7 33.4 67.7 32.9C67.7 32.4 67.8 31.9 68 31.5C68.2 31.1 68.4 30.7 68.8 30.3C69.1 30 69.5 29.7 70 29.5C70.5 29.3 71 29.2 71.5 29.2ZM71.5 30.6C71.2 30.6 70.9 30.7 70.6 30.8C70.3 30.9 70.1 31.1 69.9 31.3C69.7 31.5 69.6 31.7 69.4 32C69.3 32.3 69.2 32.6 69.2 32.9C69.2 33.2 69.3 33.5 69.4 33.8C69.5 34.1 69.7 34.3 69.9 34.5C70.1 34.7 70.3 34.8 70.6 35C70.9 35.1 71.2 35.2 71.5 35.2C71.8 35.2 72.1 35.1 72.4 35C72.7 34.9 72.9 34.7 73.1 34.5C73.3 34.3 73.4 34.1 73.6 33.8C73.7 33.5 73.8 33.2 73.8 32.9C73.8 32.6 73.7 32.3 73.6 32C73.5 31.7 73.3 31.5 73.1 31.3C72.9 31.1 72.7 31 72.4 30.8C72.1 30.7 71.8 30.6 71.5 30.6ZM79.8 29.2C80.3 29.2 80.7 29.3 81.1 29.5C81.5 29.7 81.8 29.9 82 30.2V25.9H83.5V36.3H82V35.5C81.8 35.8 81.5 36.1 81.1 36.2C80.7 36.4 80.3 36.5 79.8 36.5C79.3 36.5 78.9 36.4 78.4 36.2C78 36 77.6 35.8 77.3 35.4C77 35.1 76.7 34.7 76.6 34.2C76.4 33.8 76.3 33.3 76.3 32.7C76.3 32.2 76.4 31.7 76.6 31.2C76.8 30.8 77 30.4 77.3 30C77.6 29.7 78 29.4 78.4 29.2C78.8 29.3 79.3 29.2 79.8 29.2ZM79.9 30.6C79.6 30.6 79.3 30.7 79 30.8C78.7 30.9 78.5 31.1 78.3 31.3C78.1 31.5 78 31.7 77.9 32C77.8 32.3 77.8 32.6 77.8 32.9C77.8 33.2 77.8 33.5 77.9 33.8C78 34.1 78.1 34.3 78.3 34.5C78.5 34.7 78.7 34.9 79 35C79.3 35.1 79.5 35.2 79.9 35.2C80.2 35.2 80.5 35.1 80.8 35C81.1 34.9 81.3 34.7 81.5 34.5C81.7 34.3 81.8 34.1 81.9 33.8C82 33.5 82.1 33.2 82.1 32.9C82.1 32.6 82 32.3 81.9 32C81.8 31.7 81.7 31.5 81.5 31.3C81.3 31.1 81.1 30.9 80.8 30.8C80.5 30.7 80.3 30.6 79.9 30.6ZM88.5 29.2C89 29.2 89.4 29.3 89.8 29.5C90.2 29.7 90.5 29.9 90.8 30.2C91.1 30.5 91.3 30.9 91.5 31.3C91.7 31.7 91.7 32.2 91.7 32.8C91.7 32.9 91.7 33 91.7 33.1C91.7 33.2 91.7 33.3 91.7 33.4H86.6C86.6 33.7 86.7 34 86.9 34.2C87 34.4 87.2 34.6 87.4 34.7C87.6 34.8 87.8 34.9 88 35C88.2 35.1 88.5 35.1 88.7 35.1C89 35.1 89.4 35 89.7 34.9C90 34.8 90.4 34.6 90.7 34.4L91.4 35.5C91 35.9 90.5 36.1 90.1 36.3C89.6 36.4 89.1 36.5 88.6 36.5C88.1 36.5 87.6 36.4 87.2 36.2C86.8 36 86.4 35.8 86.1 35.5C85.8 35.2 85.5 34.8 85.4 34.4C85.2 34 85.1 33.5 85.1 32.9C85.1 32.4 85.2 31.9 85.4 31.4C85.6 31 85.8 30.6 86.1 30.2C86.4 29.9 86.8 29.6 87.2 29.5C87.5 29.3 88 29.2 88.5 29.2ZM92.4 36.3V36H92.5V35.9H92.1V36H92.2L92.4 36.3ZM93.1 36.3V35.9H93L92.9 36.2L92.8 35.9H92.7V36.3H92.8V36L92.9 36.3H93L93.1 36V36.3ZM88.4 30.6C88.1 30.6 87.9 30.6 87.7 30.7C87.5 30.8 87.3 30.9 87.2 31.1C87 31.3 86.9 31.4 86.8 31.6C86.7 31.8 86.6 32 86.6 32.3H90.2C90.1 31.8 89.9 31.3 89.6 31C89.3 30.7 88.9 30.6 88.4 30.6Z" fill="#F59E1F"/>
<path d="M23.3996 22.1H21.6996V13.5L18.6996 21H16.8996L13.7996 13.5V22H12.0996V11.6H14.6996L17.6996 19.1L20.6996 11.6H23.2996V22.1H23.3996ZM32.2996 22.1H30.6996V21.2C30.4996 21.5 30.0996 21.8 29.7996 22C29.3996 22.2 28.9996 22.3 28.4996 22.3C27.9996 22.3 27.4996 22.2 27.0996 22C26.6996 21.8 26.2996 21.6 25.9996 21.2C25.6996 20.9 25.3996 20.5 25.1996 20C24.9996 19.5 24.8996 19 24.8996 18.5C24.8996 18 24.9996 17.4 25.1996 17C25.3996 16.5 25.5996 16.1 25.9996 15.8C26.2996 15.5 26.6996 15.2 27.0996 15C27.4996 14.8 27.9996 14.7 28.4996 14.7C28.9996 14.7 29.4996 14.8 29.7996 15C30.1996 15.2 30.4996 15.4 30.6996 15.8V14.9H32.2996V22.1ZM28.6996 16.2C28.3996 16.2 28.0996 16.3 27.7996 16.4C27.4996 16.5 27.2996 16.7 27.0996 16.9C26.8996 17.1 26.7996 17.3 26.6996 17.6C26.5996 17.9 26.5996 18.2 26.5996 18.5C26.5996 18.8 26.5996 19.1 26.6996 19.4C26.7996 19.7 26.8996 19.9 27.0996 20.1C27.2996 20.3 27.4996 20.5 27.7996 20.6C28.0996 20.7 28.3996 20.8 28.6996 20.8C28.9996 20.8 29.2996 20.7 29.5996 20.6C29.8996 20.5 30.0996 20.3 30.2996 20.1C30.4996 19.9 30.5996 19.7 30.6996 19.4C30.7996 19.1 30.8996 18.8 30.8996 18.5C30.8996 18.2 30.7996 17.9 30.6996 17.6C30.5996 17.3 30.3996 17.1 30.2996 16.9C30.0996 16.7 29.8996 16.5 29.5996 16.4C29.2996 16.2 28.9996 16.2 28.6996 16.2ZM39.4996 16.7C39.3996 16.6 39.2996 16.6 39.0996 16.5C38.8996 16.4 38.7996 16.4 38.5996 16.3C38.3996 16.2 38.1996 16.2 37.9996 16.2C37.7996 16.2 37.5996 16.1 37.2996 16.1C36.8996 16.1 36.4996 16.2 36.2996 16.3C36.0996 16.5 35.8996 16.7 35.8996 16.9C35.8996 17 35.8996 17.1 35.9996 17.2C36.0996 17.3 36.0996 17.4 36.2996 17.4C36.3996 17.5 36.4996 17.5 36.6996 17.5C36.7996 17.5 36.9996 17.6 37.1996 17.6L37.8996 17.7C38.6996 17.8 39.2996 18 39.6996 18.4C40.0996 18.7 40.3996 19.2 40.3996 19.8C40.3996 20.1 40.2996 20.5 40.1996 20.7C40.0996 21 39.7996 21.2 39.5996 21.4C39.2996 21.6 38.9996 21.8 38.5996 21.9C38.1996 22 37.6996 22.1 37.1996 22.1C36.9996 22.1 36.7996 22.1 36.5996 22.1C36.3996 22.1 36.0996 22 35.7996 22C35.4996 21.9 35.1996 21.8 34.9996 21.7C34.6996 21.6 34.3996 21.4 34.1996 21.2L34.8996 20C34.9996 20.1 35.1996 20.2 35.2996 20.3C35.4996 20.4 35.5996 20.5 35.7996 20.5C35.9996 20.6 36.1996 20.6 36.3996 20.7C36.5996 20.7 36.8996 20.8 37.1996 20.8C37.6996 20.8 38.0996 20.7 38.3996 20.6C38.6996 20.4 38.7996 20.2 38.7996 20C38.7996 19.8 38.6996 19.6 38.4996 19.5C38.2996 19.4 37.9996 19.3 37.5996 19.2L36.8996 19.1C36.0996 19 35.4996 18.8 35.0996 18.4C34.6996 18 34.4996 17.6 34.4996 17C34.4996 16.6 34.5996 16.3 34.6996 16C34.7996 15.7 34.9996 15.5 35.2996 15.3C35.5996 15.1 35.8996 15 36.1996 14.8C36.5996 14.7 36.9996 14.6 37.3996 14.6C37.9996 14.6 38.4996 14.7 38.9996 14.8C39.4996 14.9 39.8996 15.1 40.2996 15.4L39.4996 16.7ZM46.8996 16.3H44.1996V19.4C44.1996 19.6 44.1996 19.8 44.2996 20C44.3996 20.2 44.3996 20.3 44.4996 20.4C44.5996 20.5 44.6996 20.6 44.8996 20.6C44.9996 20.6 45.1996 20.7 45.2996 20.7C45.4996 20.7 45.7996 20.7 45.9996 20.6C46.2996 20.5 46.4996 20.4 46.6996 20.3L47.2996 21.5C46.9996 21.7 46.6996 21.9 46.2996 22C45.8996 22.1 45.4996 22.2 45.0996 22.2C44.2996 22.2 43.6996 22 43.1996 21.5C42.6996 21 42.4996 20.3 42.4996 19.4V16.2H41.0996V14.8H42.4996V12.6H44.0996V14.8H46.7996V16.3H46.8996ZM51.6996 14.7C52.1996 14.7 52.6996 14.8 53.0996 15C53.4996 15.2 53.8996 15.4 54.1996 15.8C54.4996 16.1 54.6996 16.5 54.8996 17C55.0996 17.5 55.1996 18 55.1996 18.5C55.1996 18.6 55.1996 18.7 55.1996 18.8C55.1996 18.9 55.1996 19 55.1996 19.1H49.8996C49.8996 19.4 49.9996 19.7 50.1996 19.9C50.2996 20.1 50.4996 20.3 50.6996 20.5C50.8996 20.6 51.0996 20.8 51.2996 20.8C51.4996 20.9 51.7996 20.9 51.9996 20.9C52.3996 20.9 52.6996 20.8 53.0996 20.7C53.4996 20.6 53.7996 20.4 54.0996 20.1L54.8996 21.2C54.4996 21.6 53.9996 21.8 53.4996 22C52.9996 22.1 52.4996 22.2 51.8996 22.2C51.3996 22.2 50.8996 22.1 50.3996 21.9C49.9996 21.7 49.5996 21.5 49.1996 21.1C48.8996 20.8 48.5996 20.4 48.3996 19.9C48.1996 19.4 48.0996 18.9 48.0996 18.4C48.0996 17.8 48.1996 17.3 48.3996 16.9C48.5996 16.4 48.7996 16 49.0996 15.7C49.3996 15.4 49.7996 15.1 50.1996 14.9C50.6996 14.8 51.1996 14.7 51.6996 14.7ZM51.6996 16.1C51.3996 16.1 51.1996 16.1 50.9996 16.2C50.7996 16.3 50.5996 16.4 50.3996 16.6C50.1996 16.8 50.0996 16.9 49.9996 17.2C49.8996 17.4 49.7996 17.7 49.7996 17.9H53.4996C53.3996 17.3 53.1996 16.9 52.8996 16.6C52.5996 16.2 52.1996 16.1 51.6996 16.1ZM60.4996 14.7C60.6996 14.7 60.9996 14.7 61.0996 14.7C61.2996 14.7 61.4996 14.8 61.6996 14.9L61.2996 16.4C61.0996 16.3 60.8996 16.3 60.6996 16.2C60.4996 16.2 60.2996 16.1 60.0996 16.1C59.8996 16.1 59.5996 16.1 59.3996 16.2C59.1996 16.3 58.9996 16.4 58.8996 16.6C58.7996 16.8 58.5996 17 58.4996 17.2C58.3996 17.4 58.3996 17.7 58.3996 18V21.9H56.7996V14.7H58.2996V15.5C58.4996 15.2 58.7996 14.9 59.1996 14.7C59.6996 14.8 60.0996 14.7 60.4996 14.7ZM65.8996 14.7C66.3996 14.7 66.8996 14.8 67.3996 15C67.8996 15.2 68.2996 15.5 68.5996 15.9L67.5996 17C67.2996 16.8 67.0996 16.6 66.7996 16.4C66.4996 16.3 66.1996 16.2 65.8996 16.2C65.5996 16.2 65.2996 16.3 65.0996 16.4C64.7996 16.5 64.5996 16.7 64.3996 16.9C64.1996 17.1 64.0996 17.3 63.9996 17.6C63.8996 17.9 63.7996 18.2 63.7996 18.5C63.7996 18.8 63.8996 19.1 63.9996 19.4C64.0996 19.7 64.2996 19.9 64.3996 20.1C64.5996 20.3 64.7996 20.5 65.0996 20.6C65.3996 20.7 65.5996 20.8 65.8996 20.8C66.1996 20.8 66.5996 20.7 66.8996 20.6C67.1996 20.5 67.4996 20.3 67.6996 20.1L68.6996 21.2C68.3996 21.6 67.9996 21.9 67.4996 22.1C66.9996 22.3 66.4996 22.4 65.9996 22.4C65.3996 22.4 64.8996 22.3 64.4996 22.1C63.9996 21.9 63.5996 21.6 63.2996 21.3C62.9996 21 62.6996 20.6 62.4996 20.1C62.2996 19.6 62.1996 19.1 62.1996 18.6C62.1996 18.1 62.2996 17.6 62.4996 17.1C62.6996 16.6 62.8996 16.2 63.2996 15.9C63.5996 15.6 63.9996 15.3 64.4996 15.1C64.7996 14.8 65.2996 14.7 65.8996 14.7ZM76.8996 22.1H75.2996V21.2C75.0996 21.5 74.6996 21.8 74.3996 22C73.9996 22.2 73.5996 22.3 73.0996 22.3C72.5996 22.3 72.0996 22.2 71.6996 22C71.2996 21.8 70.8996 21.6 70.5996 21.2C70.2996 20.9 69.9996 20.5 69.7996 20C69.5996 19.5 69.4996 19 69.4996 18.5C69.4996 18 69.5996 17.4 69.7996 17C69.9996 16.5 70.1996 16.1 70.5996 15.8C70.8996 15.5 71.2996 15.2 71.6996 15C72.0996 14.8 72.5996 14.7 73.0996 14.7C73.5996 14.7 74.0996 14.8 74.3996 15C74.7996 15.2 75.0996 15.4 75.2996 15.8V14.9H76.8996V22.1ZM73.2996 16.2C72.9996 16.2 72.6996 16.3 72.3996 16.4C72.0996 16.5 71.8996 16.7 71.6996 16.9C71.4996 17.1 71.3996 17.3 71.2996 17.6C71.1996 17.9 71.1996 18.2 71.1996 18.5C71.1996 18.8 71.2996 19.1 71.2996 19.4C71.3996 19.7 71.4996 19.9 71.6996 20.1C71.8996 20.3 72.0996 20.5 72.3996 20.6C72.6996 20.7 72.9996 20.8 73.2996 20.8C73.5996 20.8 73.8996 20.7 74.1996 20.6C74.4996 20.5 74.6996 20.3 74.8996 20.1C75.0996 19.9 75.1996 19.7 75.2996 19.4C75.3996 19.1 75.4996 18.8 75.4996 18.5C75.4996 18.2 75.3996 17.9 75.2996 17.6C75.1996 17.3 74.9996 17.1 74.8996 16.9C74.6996 16.7 74.4996 16.5 74.1996 16.4C73.8996 16.2 73.5996 16.2 73.2996 16.2ZM82.7996 14.7C82.9996 14.7 83.2996 14.7 83.3996 14.7C83.5996 14.7 83.7996 14.8 83.9996 14.9L83.5996 16.4C83.3996 16.3 83.1996 16.3 82.9996 16.2C82.7996 16.2 82.5996 16.1 82.3996 16.1C82.1996 16.1 81.8996 16.1 81.6996 16.2C81.4996 16.3 81.2996 16.4 81.1996 16.6C81.0996 16.8 80.8996 17 80.7996 17.2C80.6996 17.4 80.6996 17.7 80.6996 18V21.9H79.0996V14.7H80.5996V15.5C80.7996 15.2 81.0996 14.9 81.4996 14.7C81.9996 14.8 82.3996 14.7 82.7996 14.7ZM87.9996 14.7C88.4996 14.7 88.9996 14.8 89.2996 15C89.6996 15.2 89.9996 15.4 90.1996 15.8V11.3H91.7996V22.1H90.1996V21.2C89.9996 21.5 89.5996 21.8 89.2996 22C88.8996 22.2 88.4996 22.3 87.9996 22.3C87.4996 22.3 86.9996 22.2 86.5996 22C86.1996 21.8 85.7996 21.6 85.4996 21.2C85.1996 20.9 84.8996 20.5 84.6996 20C84.4996 19.5 84.3996 19 84.3996 18.5C84.3996 18 84.4996 17.4 84.6996 17C84.8996 16.5 85.0996 16.1 85.4996 15.8C85.7996 15.5 86.1996 15.2 86.5996 15C86.9996 14.8 87.4996 14.7 87.9996 14.7ZM93.5996 21.4C93.6996 21.4 93.6996 21.4 93.7996 21.4C93.8996 21.4 93.8996 21.5 93.8996 21.5L93.9996 21.6C93.9996 21.7 93.9996 21.7 93.9996 21.8C93.9996 21.9 93.9996 21.9 93.9996 22C93.9996 22.1 93.8996 22.1 93.8996 22.1L93.7996 22.2C93.6996 22.2 93.6996 22.2 93.5996 22.2C93.4996 22.2 93.4996 22.2 93.3996 22.2C93.2996 22.2 93.2996 22.1 93.2996 22.1L93.1996 22C93.1996 21.9 93.1996 21.9 93.1996 21.8C93.1996 21.7 93.1996 21.7 93.1996 21.6C93.1996 21.5 93.2996 21.5 93.2996 21.5L93.3996 21.4C93.4996 21.4 93.4996 21.4 93.5996 21.4ZM93.5996 22.2H93.6996C93.6996 22.2 93.7996 22.2 93.7996 22.1L93.8996 22V21.9V21.8C93.8996 21.8 93.8996 21.7 93.7996 21.7L93.6996 21.6H93.5996H93.4996C93.4996 21.6 93.3996 21.6 93.3996 21.7L93.2996 21.8V21.9V22C93.2996 22 93.2996 22.1 93.3996 22.1L93.4996 22.2H93.5996ZM93.5996 21.6C93.6996 21.6 93.6996 21.6 93.6996 21.6V21.7V21.8H93.5996L93.6996 22H93.5996L93.4996 21.8V22H93.3996V21.6H93.5996ZM93.4996 21.7V21.8H93.5996C93.5996 21.8 93.5996 21.8 93.6996 21.8C93.6996 21.8 93.6996 21.8 93.5996 21.8H93.4996V21.7ZM88.1996 16.2C87.8996 16.2 87.5996 16.3 87.2996 16.4C86.9996 16.5 86.7996 16.7 86.5996 16.9C86.3996 17.1 86.2996 17.3 86.1996 17.6C85.9996 17.9 85.9996 18.2 85.9996 18.5C85.9996 18.8 86.0996 19.1 86.0996 19.4C86.1996 19.7 86.2996 19.9 86.4996 20.1C86.6996 20.3 86.8996 20.5 87.1996 20.6C87.4996 20.7 87.7996 20.8 88.0996 20.8C88.3996 20.8 88.6996 20.7 88.9996 20.6C89.2996 20.5 89.4996 20.3 89.6996 20.1C89.8996 19.9 89.9996 19.7 90.0996 19.4C90.1996 19.1 90.2996 18.8 90.2996 18.5C90.2996 18.2 90.1996 17.9 90.0996 17.6C89.9996 17.3 89.7996 17.1 89.6996 16.9C89.4996 16.7 89.2996 16.5 88.9996 16.4C88.7996 16.2 88.4996 16.2 88.1996 16.2Z" fill="#E41522"/>
</g>
</svg>
