<svg width="72" height="72" viewBox="0 0 72 72" fill="none" xmlns="http://www.w3.org/2000/svg">
<path d="M62.272 49.583C60.1493 45.5855 55.2415 43.9448 51.142 45.9442L46.8011 48.0613C47.4359 48.8415 48 49.6842 48.3989 50.6404C49.1404 52.416 49.3774 54.3112 49.1158 56.163L62.272 49.583Z" fill="#240046"/>
<path d="M33.8906 17.0159C33.8906 25.613 40.3433 32.8421 48.6562 33.8909C48.6562 33.4922 48.6562 27.5546 48.6562 27.1742C46.2063 26.3005 44.4375 23.981 44.4375 21.2346H48.6562C48.6562 22.3984 49.6018 23.344 50.7656 23.344C51.9294 23.344 52.875 22.3984 52.875 21.2346C52.875 20.0708 51.9294 19.1252 50.7656 19.1252C47.2762 19.1252 44.4375 16.2866 44.4375 12.7971C44.4375 10.0507 46.2063 7.73124 48.6562 6.85754C48.6562 6.45831 48.6562 0.377682 48.6562 0.000244141C40.3433 1.04903 33.8906 8.41848 33.8906 17.0159Z" fill="#240046"/>
<path d="M48.6562 12.7971C48.6562 13.9609 49.6018 14.9065 50.7656 14.9065C54.2551 14.9065 57.0938 17.7451 57.0938 21.2346C57.0938 23.981 55.325 26.3005 52.875 27.1742V33.8909C61.1879 32.8421 67.6406 25.613 67.6406 17.0159C67.6406 8.41848 61.1879 1.04903 52.875 0.000244141V6.85754C55.325 7.73124 57.0938 10.0507 57.0938 12.7971H52.875C52.875 11.6333 51.9294 10.6877 50.7656 10.6877C49.6018 10.6877 48.6562 11.6332 48.6562 12.7971Z" fill="#240046"/>
<path d="M19.125 17.0159C19.125 26.3355 26.6801 33.8909 36 33.8909C36.6839 33.8909 37.3338 33.7688 37.9963 33.6898C32.9708 29.8305 29.6719 23.8268 29.6719 17.0159C29.6719 10.205 32.9708 4.06065 37.9963 0.201338C37.3338 0.122307 36.6839 0.000244141 36 0.000244141C26.6801 0.000244141 19.125 7.69595 19.125 17.0159Z" fill="#240046"/>
<path d="M23.2307 0.201338C22.5682 0.122307 21.9182 0.000244141 21.2344 0.000244141C11.9145 0.000244141 4.35938 7.69595 4.35938 17.0159C4.35938 26.3355 11.9145 33.8909 21.2344 33.8909C21.9182 33.8909 22.5682 33.7688 23.2307 33.6898C18.2052 29.8305 14.9062 23.8268 14.9062 17.0159C14.9062 10.2048 18.2052 4.06065 23.2307 0.201338Z" fill="#240046"/>
<path d="M0 42.3284H8.4375V67.6409H0V42.3284Z" fill="#240046"/>
<path d="M64.6435 53.1149L44.0153 63.4303L29.3342 57.786L30.8462 53.8474L43.7929 58.8242L44.4937 57.166C45.8731 53.9025 44.3048 50.1426 41.0153 48.8266L27.3331 43.3534C23.5328 41.8331 19.1232 42.0103 15.462 43.8402L12.6562 45.2427V62.7416L31.2415 70.2596C35.4479 71.9426 39.9777 72.4154 44.5695 71.6328C47.0164 71.2158 49.3671 70.3275 51.587 69.2176L72 58.9397L71.9997 57.5578C71.9876 53.8584 67.9523 51.4603 64.6435 53.1149Z" fill="#240046"/>
</svg>
