<svg width="72" height="72" viewBox="0 0 72 72" fill="none" xmlns="http://www.w3.org/2000/svg">
<circle cx="36" cy="36" r="36" fill="#240046"/>
<path d="M48.2812 30.2211C47.9287 26.2147 44.6007 24.8958 40.3199 24.3685L40.3747 18.8414L37.0675 18.8487L36.9713 24.1952C36.1221 24.2022 35.1831 24.2301 34.3132 24.1468L34.3886 18.71L31.0607 18.627L31.006 24.1541C30.2465 24.1403 24.2604 24.0089 24.2604 24.0089L24.2194 27.5363C24.2194 27.5363 26.6773 27.536 26.5875 27.5569C27.927 27.6262 28.3827 28.376 28.438 29.0287L28.2116 44.1032C28.115 44.5059 27.901 45.2211 26.9413 45.1587C26.962 45.249 24.4834 45.159 24.4834 45.159L23.7864 49.1238C23.7864 49.1238 29.7725 49.2552 30.5319 49.269L30.3875 54.8169L33.7154 54.8999L33.7701 49.3728C34.7298 49.4352 35.579 49.4282 36.4282 49.4212L36.3528 54.858L39.6807 54.941L39.8252 49.3931C45.4384 49.1356 49.3944 47.8368 49.9808 42.5666C50.4154 38.2824 48.4613 36.3592 45.3473 35.561C47.2805 34.922 48.4955 33.2138 48.2812 30.2211ZM43.4423 42.0881C43.3668 46.289 36.3174 45.6439 34.039 45.6024L34.1488 38.2562C36.4272 38.2976 43.4765 37.7067 43.4423 42.0881ZM42.0881 31.659C42.0194 35.478 36.13 34.9439 34.2313 34.9094L34.3066 28.2366C36.1846 28.1809 42.1154 27.6595 42.0881 31.659Z" fill="white"/>
</svg>
