<svg width="72" height="72" viewBox="0 0 72 72" fill="none" xmlns="http://www.w3.org/2000/svg">
<path d="M4.93408 17.9717C4.93408 22.416 7.31573 26.5807 11.1487 28.8409C13.6098 30.2924 13.613 33.8689 11.1487 35.3223C7.31573 37.5826 4.93408 41.7487 4.93408 46.1915V54.912H28.9891C28.9115 54.1369 28.872 53.3506 28.872 52.5543C28.872 48.6155 29.8376 44.8997 31.5473 41.6287C30.5322 39.0254 28.6644 36.7779 26.1953 35.3223C23.7329 33.8702 23.732 30.2936 26.1953 28.8409C30.0282 26.5807 32.4098 22.416 32.4098 17.9717V9.25269H4.93408V17.9717ZM12.799 48.8979C11.6301 48.8979 10.6814 47.9492 10.6814 46.7802C10.6814 45.6099 11.6301 44.6626 12.799 44.6626C13.968 44.6626 14.9167 45.6099 14.9167 46.7802C14.9167 47.9492 13.968 48.8979 12.799 48.8979ZM24.0635 17.8362C25.2338 17.8362 26.1811 18.7849 26.1811 19.9539C26.1811 21.1242 25.2338 22.0715 24.0635 22.0715C22.8946 22.0715 21.9458 21.1242 21.9458 19.9539C21.9458 18.7849 22.8946 17.8362 24.0635 17.8362ZM23.6753 47.2009C23.6753 48.3699 22.7266 49.3186 21.5576 49.3186C20.3887 49.3186 19.44 48.3699 19.44 47.2009C19.44 46.0306 20.3887 45.0833 21.5576 45.0833C22.7266 45.0833 23.6753 46.0306 23.6753 47.2009ZM18.672 35.5426C19.8409 35.5426 20.7896 36.4899 20.7896 37.6602C20.7896 38.8292 19.8409 39.7779 18.672 39.7779C17.503 39.7779 16.5543 38.8292 16.5543 37.6602C16.5543 36.4899 17.503 35.5426 18.672 35.5426ZM14.6047 14.4409C15.7736 14.4409 16.7223 15.3896 16.7223 16.5586C16.7223 17.7275 15.7736 18.6762 14.6047 18.6762C13.4357 18.6762 12.487 17.7275 12.487 16.5586C12.487 15.3896 13.4357 14.4409 14.6047 14.4409Z" fill="#240046"/>
<path d="M0.936 5.01741H36.408C36.9179 5.01741 37.344 4.60024 37.344 4.08141V0.936C37.344 0.420706 36.9233 0 36.408 0H0.936C0.420706 0 0 0.420706 0 0.936V4.08141C0 4.59925 0.424941 5.01741 0.936 5.01741Z" fill="#240046"/>
<path d="M29.8052 59.1472C28.499 59.1472 1.80325 59.1472 0.936 59.1472C0.426494 59.1472 0 59.5613 0 60.0832V63.2272C0 63.7439 0.420706 64.1646 0.936 64.1646H31.92C31.046 62.6279 30.3244 60.927 29.8052 59.1472Z" fill="#240046"/>
<path d="M52.5544 33.1072C41.8241 33.1072 33.1073 41.8374 33.1073 52.5542C33.1073 63.2855 41.8398 71.9999 52.5544 71.9999C63.2767 71.9999 72 63.2766 72 52.5542C72 41.8305 63.2767 33.1072 52.5544 33.1072ZM54.672 62.5622V64.8211C54.672 65.99 53.7233 66.9387 52.5544 66.9387C51.384 66.9387 50.4367 65.99 50.4367 64.8211V62.5622C48.9226 62.5622 47.5859 62.2627 46.1704 61.2804C45.2104 60.614 44.9718 59.294 45.6381 58.334C46.3045 57.3726 47.6245 57.134 48.5859 57.8018C49.0252 58.1092 49.585 58.322 50.1318 58.3269H54.7214C54.7313 58.3269 54.7412 58.3269 54.7511 58.3284C55.7565 58.3284 56.5793 57.5139 56.5793 56.5001C56.5793 55.4907 55.7591 54.6719 54.7511 54.6719C52.8193 54.6719 51.7471 54.6719 50.3577 54.6719C47.0132 54.6719 44.2941 51.9514 44.2941 48.6084C44.2941 45.3514 46.8777 42.5448 50.4367 42.5448V40.286C50.4367 39.1171 51.384 38.1684 52.5544 38.1684C53.7233 38.1684 54.672 39.1171 54.672 40.286V42.5462C56.5412 42.5745 58.3595 43.3891 59.6697 44.7867C60.4687 45.6408 60.4264 46.9806 59.5722 47.7796C58.7915 48.5124 57.6042 48.5378 56.7939 47.8827C56.5449 47.6808 55.8731 46.7925 54.593 46.7801H50.3562C49.3618 46.7801 48.5294 47.5813 48.5294 48.6084C48.5294 49.6164 49.3482 50.4366 50.3577 50.4366H54.7299H54.7511C58.0941 50.4366 60.8146 53.1556 60.8146 56.5001C60.8146 59.7247 58.2633 62.5622 54.672 62.5622Z" fill="#240046"/>
</svg>
