<svg width="72" height="72" viewBox="0 0 72 72" fill="none" xmlns="http://www.w3.org/2000/svg">
<g clip-path="url(#clip0)">
<path d="M13.1879 13.5467H30.9313C31.0705 12.9521 31.0376 13.0954 33.2695 5.41587C34.0589 2.70045 32.0242 0 29.2055 0H14.9165C12.1002 0 10.0629 2.69848 10.8511 5.41587C13.0935 13.1295 13.0441 12.9229 13.1879 13.5467Z" fill="#240046"/>
<path d="M13.6958 17.7803C13.7042 19.4002 13.5025 21.0202 13.0989 22.5781H31.0215C30.6179 21.0202 30.4175 19.4002 30.4246 17.7803H13.6958Z" fill="#240046"/>
<path d="M39.7832 62.9358H38.0898C36.9209 62.9358 35.9731 63.8835 35.9731 65.0525V71.9669H41.8998V65.0525C41.8998 63.8835 40.9521 62.9358 39.7832 62.9358Z" fill="#240046"/>
<path d="M32.705 26.811H11.4141C10.3789 28.6798 9.06809 30.268 7.59136 31.558C-3.66569 41.5147 -2.20081 59.8882 10.8454 67.7334H2.13316C0.96475 67.7334 0.0164795 68.6817 0.0164795 69.8501C0.0164795 71.0185 0.96475 71.9668 2.13316 71.9668H31.7398V62.9356C31.7398 60.6016 33.6392 58.7023 35.9732 58.7023H41.8998V38.6799C38.6739 31.9445 35.6276 32.0988 32.705 26.811ZM14.5016 39.5337C14.5016 37.6329 15.9946 36.0863 17.8276 36.0863C19.6621 36.0863 21.155 37.6329 21.155 39.5337C21.155 41.4344 19.6621 42.9796 17.8276 42.9796C15.9946 42.9796 14.5016 41.4344 14.5016 39.5337ZM19.0002 55.1801C17.4871 55.1801 16.4417 53.6142 17.067 52.2055L24.1409 36.2542C24.6151 35.186 25.8653 34.7034 26.9335 35.1775C28.0018 35.6517 28.4844 36.9019 28.0102 37.9701L20.9363 53.9214C20.5863 54.7102 19.813 55.1801 19.0002 55.1801ZM28.0088 54.1274C26.1744 54.1274 24.6828 52.5823 24.6828 50.6815C24.6828 48.7807 26.1744 47.2341 28.0088 47.2341C29.8433 47.2341 31.3348 48.7807 31.3348 50.6815C31.3348 52.5823 29.8433 54.1274 28.0088 54.1274Z" fill="#240046"/>
<path d="M49.6366 39.5332H48.2495C47.0805 39.5332 46.1328 40.4809 46.1328 41.6499V72H51.7533V41.6499C51.7533 40.4809 50.8057 39.5332 49.6366 39.5332Z" fill="#240046"/>
<path d="M59.8688 29.2791H58.4817C57.3127 29.2791 56.365 30.2268 56.365 31.3957V71.9999H61.9855V31.3957C61.9855 30.2268 61.0378 29.2791 59.8688 29.2791Z" fill="#240046"/>
<path d="M69.8667 19.1912H68.4796C67.3106 19.1912 66.3629 20.1389 66.3629 21.3078V71.9669H71.9834V21.3078C71.9834 20.1389 71.0357 19.1912 69.8667 19.1912Z" fill="#240046"/>
</g>
<defs>
<clipPath id="clip0">
<rect width="72" height="72" fill="white"/>
</clipPath>
</defs>
</svg>
