<svg width="32" height="32" fill="none" xmlns="http://www.w3.org/2000/svg"><path d="M3.429 14.17l9.559 7.252 2.67-2.025a.571.571 0 01.69 0l2.666 2.023 9.557-7.25V3.284H3.43V14.17zM16 6.14a5.149 5.149 0 015.143 5.143v1.143a1.71 1.71 0 01-3.162.908 2.852 2.852 0 11.876-2.051v1.143a.571.571 0 101.143 0v-1.143a4 4 0 10-4 4h1.714a.571.571 0 110 1.143H16A5.143 5.143 0 0116 6.14z" fill="#008CC9"/><path d="M16 12.997a1.714 1.714 0 100-3.429 1.714 1.714 0 000 3.429zM.374 11.854l1.912 1.45v-2.9l-1.912 1.45zM0 31.275l12.042-9.136L0 13.005v18.27zm29.714-17.971l1.912-1.45-1.912-1.449v2.9zM32 13.005l-12.042 9.134L32 31.275v-18.27zm-16 7.566L1.127 31.854h29.746L16 20.571zM13.179 2.14h5.642L16 0l-2.821 2.14z" fill="#008CC9"/></svg>