<svg width="32" height="32" fill="none" xmlns="http://www.w3.org/2000/svg"><path d="M16 4.688A2.816 2.816 0 0013.187 7.5 2.816 2.816 0 0016 10.313 2.816 2.816 0 0018.813 7.5 2.816 2.816 0 0016 4.687z" fill="#008CC9"/><path d="M16 0c-4.136 0-7.5 3.365-7.5 7.5 0 1.418.398 2.8 1.152 3.995L16 21.625l6.348-10.13A7.481 7.481 0 0023.5 7.5C23.5 3.364 20.136 0 16 0zm0 12.188A4.693 4.693 0 0111.312 7.5 4.693 4.693 0 0116 2.812 4.693 4.693 0 0120.688 7.5 4.693 4.693 0 0116 12.188zM11.437 32h9.123l-.721-5.688H12.14L11.437 32zm.937-7.563h3.183L12.9 20.226l-.527 4.211zm9.116.001h7.385l-2.343-5.625h-5.764l.721 5.625zm-18.365 0h7.36l.703-5.625h-5.72l-2.343 5.625zm13.318 0h3.155l-.533-4.158-2.622 4.157zm-6.193 1.875H2.345L0 32h9.548l.703-5.688zm19.407 0H21.73L22.45 32H32l-2.343-5.688z" fill="#008CC9"/></svg>