<svg width="96" height="40" fill="none" xmlns="http://www.w3.org/2000/svg"><path d="M20 19.563c4.448 0 8.053-4.38 8.053-9.782S26.87 0 20 0c-6.869 0-8.053 4.38-8.053 9.781 0 5.402 3.606 9.782 8.053 9.782zM4.79 34.497c-.002-.329-.003-.092 0 0zm30.42.258c.004-.09.001-.626 0 0z" fill="#240046"/><path d="M35.193 34.102c-.15-9.41-1.378-12.092-10.783-13.789 0 0-1.324 1.687-4.41 1.687-3.086 0-4.41-1.687-4.41-1.687-9.302 1.679-10.606 4.32-10.777 13.484-.014.748-.02.787-.023.7v.989S7.03 40 20 40s15.21-4.514 15.21-4.514v-.731c-.003.053-.008-.05-.017-.653z" fill="#240046"/><g opacity=".5" fill="#240046"><path d="M56 23.65c3.558 0 6.442-3.503 6.442-7.825S61.495 8 56 8s-6.443 3.503-6.443 7.825S52.442 23.65 56 23.65zM43.832 35.598c-.002-.263-.003-.074 0 0zm24.336.206c.003-.072 0-.5 0 0z"/><path d="M68.154 35.282c-.12-7.528-1.102-9.674-8.626-11.031 0 0-1.06 1.35-3.528 1.35-2.469 0-3.528-1.35-3.528-1.35-7.442 1.343-8.485 3.456-8.622 10.786-.011.599-.016.63-.019.561.001.13.002.371.002.79 0 0 1.79 3.612 12.167 3.612 10.376 0 12.167-3.611 12.167-3.611v-.585c-.001.043-.005-.04-.013-.522z"/></g><g opacity=".5" clip-path="url(#clip0)" fill="#240046"><path d="M84 27.738c2.668 0 4.832-2.628 4.832-5.87 0-3.24-.71-5.868-4.832-5.868-4.121 0-4.832 2.628-4.832 5.869 0 3.241 2.164 5.869 4.832 5.869zm-9.126 8.961c-.001-.198-.002-.056 0 0zm18.252.154c.002-.054 0-.376 0 0zm-.011-.391c-.09-5.647-.826-7.256-6.47-8.274 0 0-.794 1.012-2.645 1.012-1.852 0-2.646-1.012-2.646-1.012-5.582 1.007-6.364 2.592-6.467 8.09-.008.45-.012.473-.013.42v.594S76.218 40 84 40c7.782 0 9.125-2.708 9.125-2.708v-.439c0 .032-.004-.03-.01-.391z"/></g><defs><clipPath id="clip0"><path fill="#fff" transform="translate(72 16)" d="M0 0h24v24H0z"/></clipPath></defs></svg>