<svg width="64" height="64" fill="none" xmlns="http://www.w3.org/2000/svg"><g clip-path="url(#clip0)" fill="#240046"><path d="M56.666 24h-14v5H56c1.472 0 2.666 1.12 2.666 2.501v1.251c0 1.381-1.194 2.501-2.666 2.501s-2.667 1.12-2.667 2.502v12.501c0 1.381 1.195 2.501 2.667 2.501 1.472 0 2.666 1.12 2.666 2.502v1.25c0 1.382-1.194 2.499-2.666 2.499H42.379a10.057 10.057 0 01-2.816 5h17.103c4.046 0 7.334-3.083 7.334-6.875v-26.25c0-3.8-3.288-6.883-7.334-6.883z"/><path d="M33.125 0H6.875C3.083 0 0 3.288 0 7.333v49.334C0 60.712 3.083 64 6.875 64h26.25C36.917 64 40 60.712 40 56.667V7.333C40 3.288 36.917 0 33.125 0zM35 56c0 1.472-1.12 2.667-2.501 2.667H7.5C6.12 58.667 5 57.472 5 56V8c0-1.472 1.12-2.667 2.501-2.667h1.251c1.381 0 2.501 1.195 2.501 2.667 0 1.472 1.12 2.667 2.502 2.667h12.501c1.381 0 2.501-1.195 2.501-2.667 0-1.472 1.12-2.667 2.502-2.667h1.25c1.382 0 2.502 1.195 2.502 2.667v48H35zm27.422-45.114A2.666 2.666 0 0060 9.334h-1.98c-1.493-4.742-5.57-8-10.685-8a2.666 2.666 0 100 5.333c2.25 0 3.864 1.112 4.856 2.667H52a2.666 2.666 0 00-2.024 4.402l4 4.667c.022.024.054.032.075.056 1.099 1.197 2.859 1.133 3.899 0 .021-.024.053-.032.074-.056l4-4.667c.68-.792.832-1.904.398-2.85z"/></g><defs><clipPath id="clip0"><path fill="#fff" d="M0 0h64v64H0z"/></clipPath></defs></svg>