<svg width="40" height="40" fill="none" xmlns="http://www.w3.org/2000/svg"><g clip-path="url(#clip0)"><path d="M31.29 35.228H8.71a1.29 1.29 0 01-1.29-1.29v-3.82a4.624 4.624 0 012.735-4.218c4.833-2.158 4.568-2.085 4.945-2.085h1.533a1.29 1.29 0 011.253.982c.541 2.198 3.687 2.2 4.228 0a1.29 1.29 0 011.253-.982c1.65 0 1.735-.033 2.06.112l4.418 1.973a4.624 4.624 0 012.736 4.217v3.82a1.29 1.29 0 01-1.29 1.29zM20.032 4.772c-4.346 0-7.882 3.536-7.882 7.882s3.536 7.881 7.882 7.881 7.881-3.535 7.881-7.881-3.535-7.882-7.881-7.882zm-12.434 8.43a4.968 4.968 0 00-4.962 4.963 4.968 4.968 0 004.962 4.963 4.968 4.968 0 004.963-4.963 4.968 4.968 0 00-4.963-4.962zm24.804 0a4.968 4.968 0 00-4.963 4.963 4.968 4.968 0 004.963 4.963 4.968 4.968 0 004.962-4.963 4.968 4.968 0 00-4.962-4.962zm5.735 11.821c-2.685-1.199-2.62-1.21-2.988-1.21-1.922 0-3.18-.014-4.03-.019-.845-.004-1.125 1.13-.376 1.522.613.32.986.594 1.428 1.077 1.29 1.401 1.41 2.885 1.41 4.115 0 .445.361.806.807.806h4.322a1.29 1.29 0 001.29-1.29v-2.129a3.15 3.15 0 00-1.863-2.872zm-33.286-1.21c-.366 0-.294.007-2.988 1.21A3.15 3.15 0 000 27.895v2.128c0 .712.577 1.29 1.29 1.29h4.322a.806.806 0 00.806-.806c-.001-1.234.115-2.707 1.411-4.114.44-.48.816-.757 1.415-1.072.748-.392.472-1.523-.373-1.521-.855.001-2.112.012-4.02.012z" fill="#240046"/></g><defs><clipPath id="clip0"><path fill="#fff" d="M0 0h40v40H0z"/></clipPath></defs></svg>