<svg width="32" height="32" viewBox="0 0 32 32" fill="none" xmlns="http://www.w3.org/2000/svg">
<path d="M29.096 0.02C29.0627 0.0173333 29.0347 0 29 0H14.6667C12.4614 0 10.6667 1.79467 10.6667 4V5.33333C10.6667 6.06933 11.264 6.66667 12 6.66667C12.736 6.66667 13.3334 6.06933 13.3334 5.33333V4C13.3334 3.26533 13.932 2.66667 14.6667 2.66667H20.8787L20.472 2.80267C19.392 3.176 18.6667 4.19333 18.6667 5.33333V25.3333H14.6667C13.932 25.3333 13.3334 24.7347 13.3334 24V21.3333C13.3334 20.5973 12.736 20 12 20C11.264 20 10.6667 20.5973 10.6667 21.3333V24C10.6667 26.2053 12.4614 28 14.6667 28H18.6667V29.3333C18.6667 30.804 19.8627 32 21.3334 32C21.6187 32 21.8894 31.9587 22.1827 31.868L30.1934 29.1973C31.2747 28.824 32 27.8067 32 26.6667V2.66667C32 1.112 30.66 -0.106667 29.096 0.02Z" fill="white"/>
<path d="M14.276 12.3907L8.94267 7.05736C8.56133 6.67603 7.988 6.56136 7.48933 6.76803C6.992 6.9747 6.66667 7.46136 6.66667 8.00003V12H1.33333C0.597333 12 0 12.5974 0 13.3334C0 14.0694 0.597333 14.6667 1.33333 14.6667H6.66667V18.6667C6.66667 19.2054 6.992 19.692 7.48933 19.8987C7.988 20.1054 8.56133 19.9907 8.94267 19.6094L14.276 14.276C14.7973 13.7547 14.7973 12.912 14.276 12.3907Z" fill="white"/>
</svg>
