<svg width="192" height="91" viewBox="0 0 192 91" fill="none" xmlns="http://www.w3.org/2000/svg">
<path d="M20.2307 75.144C18.364 75.144 17.4307 75.5813 17.4307 76.456V82.152C17.4307 83.1547 18.4547 83.656 20.5027 83.656H26.6467C27.052 83.656 27.2547 83.88 27.2547 84.328C27.2547 84.776 27.052 85 26.6467 85H20.2787C17.2814 85 15.7827 84.0667 15.7827 82.2V76.456C15.7827 74.696 17.2494 73.816 20.1827 73.816H26.6467C27.052 73.816 27.2547 74.04 27.2547 74.488C27.2547 74.9253 27.052 75.144 26.6467 75.144H20.2307ZM41.7183 76.6C41.7183 75.6293 40.8063 75.144 38.9823 75.144H31.7983V79.24H39.2703C40.9023 79.24 41.7183 78.8453 41.7183 78.056V76.6ZM43.3663 77.896C43.3663 79.6773 41.9476 80.568 39.1103 80.568H35.0303L42.0863 83.656C42.2463 83.72 42.3583 83.8107 42.4223 83.928C42.497 84.0347 42.5343 84.1467 42.5343 84.264C42.5343 84.4667 42.465 84.6533 42.3263 84.824C42.1876 84.9947 42.0116 85.08 41.7983 85.08C41.7023 85.08 41.5956 85.048 41.4783 84.984L31.7983 80.456V84.376C31.7983 84.8453 31.5263 85.08 30.9823 85.08C30.4063 85.08 30.1183 84.8453 30.1183 84.376V74.36C30.1183 73.9973 30.2996 73.816 30.6623 73.816H38.7263C41.8196 73.816 43.3663 74.776 43.3663 76.696V77.896ZM51.2366 78.952L56.1806 73.992C56.3299 73.8427 56.5166 73.768 56.7406 73.768C56.9539 73.768 57.1512 73.8427 57.3326 73.992C57.5139 74.1413 57.6046 74.312 57.6046 74.504C57.6046 74.6533 57.5352 74.8027 57.3966 74.952L52.0846 80.28L52.0686 84.392C52.0152 84.8507 51.7432 85.08 51.2526 85.08C50.6979 85.08 50.4206 84.8453 50.4206 84.376V80.28L45.1086 74.952C44.9592 74.8027 44.8846 74.6533 44.8846 74.504C44.8846 74.312 44.9699 74.1467 45.1406 74.008C45.3112 73.8587 45.5032 73.784 45.7166 73.784C45.8126 73.784 45.9086 73.8 46.0046 73.832C46.1112 73.8533 46.2019 73.9067 46.2766 73.992L51.2366 78.952ZM71.8297 76.456C71.8297 75.5813 70.9657 75.144 69.2377 75.144H61.7977V79.528H69.1257C70.9284 79.528 71.8297 79.0747 71.8297 78.168V76.456ZM73.4777 78.264C73.4777 80.0133 71.963 80.888 68.9337 80.888H61.7977V84.376C61.7977 84.8453 61.515 85.08 60.9497 85.08C60.395 85.08 60.1177 84.8453 60.1177 84.376V74.36C60.1177 73.9973 60.299 73.816 60.6617 73.816H68.9977C71.9844 73.816 73.4777 74.648 73.4777 76.312V78.264ZM81.4257 75.144V84.376C81.4257 84.8453 81.143 85.08 80.5777 85.08C80.023 85.08 79.7457 84.8453 79.7457 84.376V75.144H75.1537C74.7377 75.144 74.5297 74.9147 74.5297 74.456C74.5297 74.0293 74.7377 73.816 75.1537 73.816H86.0177C86.4124 73.816 86.6097 74.0293 86.6097 74.456C86.6097 74.9147 86.4124 75.144 86.0177 75.144H81.4257ZM99.9756 76.824C99.9756 75.704 99.0689 75.144 97.2556 75.144H93.2556C91.3249 75.144 90.3596 75.704 90.3596 76.824V82.056C90.3596 83.1227 91.3249 83.656 93.2556 83.656H97.1596C99.0369 83.656 99.9756 83.1227 99.9756 82.056V76.824ZM101.64 82.072C101.64 84.024 99.9969 85 96.7116 85H93.5916C90.3169 85 88.6796 84.0347 88.6796 82.104V76.744C88.6796 74.792 90.3169 73.816 93.5916 73.816H96.7116C99.9969 73.816 101.64 74.792 101.64 76.744V82.072ZM110.262 85C106.806 85 105.078 84.0453 105.078 82.136V74.424C105.078 73.9653 105.355 73.736 105.91 73.736C106.475 73.736 106.758 73.9653 106.758 74.424V82.136C106.758 83.1493 107.899 83.656 110.182 83.656H116.694C117.12 83.656 117.334 83.896 117.334 84.376C117.334 84.792 117.12 85 116.694 85H110.262ZM123.225 80.6H129.993L126.649 75.256L123.225 80.6ZM130.921 81.96H122.345L120.489 84.728C120.404 84.8453 120.303 84.936 120.185 85C120.068 85.0533 119.961 85.08 119.865 85.08C119.641 85.08 119.444 85.0107 119.273 84.872C119.103 84.7227 119.017 84.5413 119.017 84.328C119.017 84.1893 119.055 84.0507 119.129 83.912L125.545 74.296C125.684 74.0933 125.844 73.944 126.025 73.848C126.217 73.752 126.415 73.704 126.617 73.704C126.82 73.704 127.012 73.752 127.193 73.848C127.385 73.944 127.545 74.0933 127.673 74.296L134.121 83.896C134.185 83.9707 134.223 84.0507 134.233 84.136C134.255 84.2107 134.265 84.2747 134.265 84.328C134.265 84.552 134.18 84.728 134.009 84.856C133.849 84.984 133.657 85.048 133.433 85.048C133.327 85.048 133.209 85.0213 133.081 84.968C132.964 84.904 132.857 84.8133 132.761 84.696L130.921 81.96ZM139.75 78.952L144.694 73.992C144.844 73.8427 145.03 73.768 145.254 73.768C145.468 73.768 145.665 73.8427 145.846 73.992C146.028 74.1413 146.118 74.312 146.118 74.504C146.118 74.6533 146.049 74.8027 145.91 74.952L140.598 80.28L140.582 84.392C140.529 84.8507 140.257 85.08 139.766 85.08C139.212 85.08 138.934 84.8453 138.934 84.376V80.28L133.622 74.952C133.473 74.8027 133.398 74.6533 133.398 74.504C133.398 74.312 133.484 74.1467 133.654 74.008C133.825 73.8587 134.017 73.784 134.23 73.784C134.326 73.784 134.422 73.8 134.518 73.832C134.625 73.8533 134.716 73.9067 134.79 73.992L139.75 78.952ZM150.311 78.776H160.151C160.535 78.776 160.727 79.0053 160.727 79.464C160.727 79.912 160.535 80.136 160.151 80.136H150.311V82.232C150.311 83.1813 151.218 83.656 153.031 83.656H160.151C160.557 83.656 160.759 83.88 160.759 84.328C160.759 84.776 160.557 85 160.151 85H152.967C150.077 85 148.631 84.104 148.631 82.312V76.584C148.631 75.6667 149.005 74.9787 149.751 74.52C150.498 74.0507 151.623 73.816 153.127 73.816H155.079C155.463 73.816 155.655 74.0453 155.655 74.504C155.655 74.9307 155.463 75.144 155.079 75.144H153.767C151.463 75.144 150.311 75.624 150.311 76.584V78.776ZM175.067 76.6C175.067 75.6293 174.155 75.144 172.331 75.144H165.147V79.24H172.619C174.251 79.24 175.067 78.8453 175.067 78.056V76.6ZM176.715 77.896C176.715 79.6773 175.296 80.568 172.459 80.568H168.379L175.435 83.656C175.595 83.72 175.707 83.8107 175.771 83.928C175.846 84.0347 175.883 84.1467 175.883 84.264C175.883 84.4667 175.814 84.6533 175.675 84.824C175.536 84.9947 175.36 85.08 175.147 85.08C175.051 85.08 174.944 85.048 174.827 84.984L165.147 80.456V84.376C165.147 84.8453 164.875 85.08 164.331 85.08C163.755 85.08 163.467 84.8453 163.467 84.376V74.36C163.467 73.9973 163.648 73.816 164.011 73.816H172.075C175.168 73.816 176.715 74.776 176.715 76.696V77.896Z" fill="white"/>
<path d="M55.1736 48.8803C70.3027 32.5165 70.4036 6.32757 70.4036 6.32757C70.4036 6.32757 45.9751 6.66948 30.846 23.0332C15.7168 39.397 15.6159 65.586 15.6159 65.586C15.6159 65.586 40.0444 65.244 55.1736 48.8803Z" fill="#FF8500"/>
<path d="M90.5004 48.8804C105.63 32.5166 105.73 6.32765 105.73 6.32765C105.73 6.32765 81.302 6.66956 66.1728 23.0333C51.0436 39.3971 50.9428 65.586 50.9428 65.586C50.9428 65.586 75.3712 65.2441 90.5004 48.8804Z" fill="#7B2CBF"/>
<path d="M125.827 48.8803C140.956 32.5165 141.057 6.32757 141.057 6.32757C141.057 6.32757 116.629 6.66948 101.5 23.0332C86.3704 39.397 86.2696 65.586 86.2696 65.586C86.2696 65.586 110.698 65.244 125.827 48.8803Z" fill="#008CC9"/>
<path d="M161.154 48.8803C176.283 32.5165 176.384 6.32758 176.384 6.32758C176.384 6.32758 151.956 6.66949 136.826 23.0332C121.697 39.397 121.596 65.586 121.596 65.586C121.596 65.586 146.025 65.244 161.154 48.8803Z" fill="#00B4A1"/>
<path d="M49.399 31.8757C49.155 29.1185 46.8517 28.2109 43.889 27.848L43.9269 24.0443L41.638 24.0493L41.5715 27.7287C40.9837 27.7336 40.3339 27.7527 39.7318 27.6955L39.784 23.9539L37.4808 23.8968L37.4429 27.7004C36.9173 27.6909 32.7744 27.6005 32.7744 27.6005L32.7459 30.028C32.7459 30.028 34.447 30.0278 34.3849 30.0422C35.3119 30.0899 35.6274 30.6059 35.6656 31.0551L35.5089 41.4291C35.4421 41.7063 35.294 42.1984 34.6298 42.1555C34.6441 42.2176 32.9286 42.1557 32.9286 42.1557L32.4463 44.8842C32.4463 44.8842 36.5892 44.9746 37.1148 44.9841L37.0148 48.8021L39.318 48.8592L39.3559 45.0556C40.0201 45.0985 40.6079 45.0937 41.1956 45.0889L41.1434 48.8304L43.4466 48.8875L43.5466 45.0695C47.4315 44.8924 50.1694 43.9985 50.5753 40.3716C50.876 37.4233 49.5236 36.0998 47.3685 35.5505C48.7064 35.1108 49.5473 33.9352 49.399 31.8757ZM46.05 40.0424C45.9978 42.9333 41.1189 42.4894 39.542 42.4609L39.618 37.4053C41.1949 37.4338 46.0737 37.0272 46.05 40.0424ZM45.1128 32.8652C45.0653 35.4934 40.9892 35.1258 39.6751 35.102L39.7273 30.51C41.027 30.4716 45.1317 30.1128 45.1128 32.8652Z" fill="white"/>
<path d="M77.8773 41.0293L69.9915 36.368L77.8771 23.2838L85.763 36.368L77.8773 41.0293Z" fill="white"/>
<path d="M77.8772 48.9758L85.7676 37.8634L77.8773 42.5223L69.9915 37.8633L77.8772 48.9758Z" fill="white"/>
<path d="M111.505 36.2571L109.59 42.7196H119.834C120.123 42.7196 120.359 42.9557 120.359 43.2452C120.359 43.2942 120.35 43.3432 120.337 43.3922L119.446 46.4609C119.357 46.7637 119.081 46.9686 118.769 46.9686H103.123L105.768 38.0342L102.842 38.9249L103.488 36.8361L106.419 35.9453L110.133 23.3943C110.218 23.0915 110.494 22.8821 110.806 22.8821H114.77C115.059 22.8821 115.295 23.1137 115.295 23.4077C115.295 23.4567 115.291 23.5057 115.277 23.5502L112.16 34.1638L115.086 33.273L114.458 35.3975L111.505 36.2571Z" fill="white"/>
<path d="M153.316 25.6923H143.964L143.188 30.0258L151.63 30.0358C155.788 30.0358 157.014 31.547 156.979 34.0491C156.959 35.3301 156.404 37.5019 156.164 38.2075C155.523 40.084 154.207 42.2207 149.273 42.2157L141.066 42.2107L140.293 46.5493H149.626C152.918 46.5493 154.314 46.164 155.801 45.4834C159.088 43.9572 161.045 40.7145 161.831 36.4811C162.994 30.1759 161.543 25.6923 153.316 25.6923Z" fill="white"/>
<path d="M139.928 33.944C137.476 33.944 137.125 35.5403 136.895 36.5061C136.59 37.7671 136.49 38.2825 136.49 38.2825H146.068C148.52 38.2825 148.87 36.6862 149.1 35.7204C149.405 34.4594 149.506 33.944 149.506 33.944H139.928Z" fill="white"/>
</svg>
