<svg width="1200" height="810" viewBox="0 0 1200 810" fill="none" xmlns="http://www.w3.org/2000/svg">
<path d="M775.915 183.421C798.638 183.421 817.059 165.001 817.059 142.278C817.059 119.555 798.638 101.134 775.915 101.134C753.192 101.134 734.772 119.555 734.772 142.278C734.772 165.001 753.192 183.421 775.915 183.421Z" fill="#F2F2F2"/>
<path d="M904.641 476.744L226.289 61.7151L24.9859 390.739L703.339 805.767L904.641 476.744Z" fill="#F2F2F2"/>
<path d="M871.702 550.112C865.274 535.326 855.373 522.34 835.573 511.411C825.339 505.625 814.347 501.298 802.916 498.554C810.607 494.98 817.681 490.206 823.873 484.411C832.976 476.274 839.875 465.969 843.93 454.453C847.664 442.751 849.19 430.456 848.431 418.196C847.016 396.595 842.773 375.638 831.459 360.595C820.144 345.552 804.201 333.98 783.115 325.88C766.915 319.709 750.329 315.852 724.615 314.437V232.279L673.185 264.422V314.566H632.042V261.851L579.327 232.279V314.566H467.34L503.34 376.281C514.462 376.294 521.996 377.322 525.841 379.238C529.429 380.774 532.38 383.498 534.198 386.952C535.869 390.167 536.641 397.753 536.641 409.453V632.141C536.641 643.713 535.869 651.17 534.198 654.513C532.526 657.856 531.626 660.813 527.641 662.613C523.655 664.413 523.526 664.285 512.469 664.285H512.341L467.34 726H579.199V808.287H631.913V726H673.057V808.287H724.486V725.486C757.915 723.814 781.701 719.443 800.858 712.242C825.673 702.985 844.702 689.485 858.331 671.742C871.959 653.999 877.488 626.87 878.645 605.913C879.545 587.269 877.488 563.226 871.702 550.112ZM631.913 383.995H631.926V382.285H667.875C688.1 382.285 755.498 375.548 756.617 430.59C757.748 485.632 667.875 483.382 667.875 483.382H631.926V479.139H631.913V383.995ZM631.913 540.854H673.057C681.414 540.854 710.163 542.127 720.629 542.603C724.896 542.758 729.12 543.511 733.178 544.84C734.656 545.342 736.058 545.907 737.575 546.537C743.917 548.587 749.899 551.615 755.305 555.512C758.83 557.84 761.93 560.753 764.472 564.126C765.574 565.648 766.587 567.232 767.507 568.871C769.941 572.99 771.748 577.449 772.868 582.101C774.094 586.594 774.729 591.227 774.758 595.884C774.758 605.9 772.907 614.193 768.342 621.213C762.158 631.576 752.014 638.917 740.596 644.099C711.076 657.522 673.057 656.57 673.057 656.57H631.913V540.854Z" fill="#00B4A1"/>
<path d="M1026.18 611.741C1034.51 611.741 1041.26 604.989 1041.26 596.66C1041.26 588.332 1034.51 581.58 1026.18 581.58C1017.85 581.58 1011.1 588.332 1011.1 596.66C1011.1 604.989 1017.85 611.741 1026.18 611.741Z" fill="#FF8500"/>
<path d="M1145.07 760.823V589.115" stroke="#3F3D56" stroke-width="2" stroke-miterlimit="10"/>
<path d="M1145.07 613.397C1158.48 613.397 1169.35 602.525 1169.35 589.115C1169.35 575.704 1158.48 564.833 1145.07 564.833C1131.66 564.833 1120.78 575.704 1120.78 589.115C1120.78 602.525 1131.66 613.397 1145.07 613.397Z" fill="#3F3D56"/>
<path d="M1097.24 685.256C1062.17 739.044 1071.78 807.455 1071.78 807.455C1071.78 807.455 1138.26 788.659 1173.33 734.871C1208.41 681.083 1198.8 612.672 1198.8 612.672C1198.8 612.672 1132.32 631.468 1097.24 685.256Z" fill="#3F3D56"/>
<path d="M1071.59 806.83C1071.59 806.83 1070.74 806.693 1069.17 806.375C1067.91 806.121 1066.19 805.758 1064.08 805.258C1045.24 800.816 995.156 785.801 962.41 746.324C921.426 696.892 923.152 627.83 923.152 627.83C923.152 627.83 985.819 638.013 1027.11 682.404C1028.9 684.311 1030.64 686.289 1032.34 688.335C1068 731.346 1071.32 789.217 1071.58 803.523C1071.62 805.667 1071.59 806.83 1071.59 806.83Z" fill="#7B2CBF"/>
<path d="M1046.32 685.256C1081.39 739.044 1071.78 807.455 1071.78 807.455C1071.78 807.455 1005.3 788.659 970.229 734.871C935.155 681.083 944.765 612.672 944.765 612.672C944.765 612.672 1011.24 631.468 1046.32 685.256Z" stroke="#3F3D56" stroke-width="2" stroke-miterlimit="10"/>
<path opacity="0.1" d="M1071.58 803.523C1070.66 804.64 1069.84 805.594 1069.17 806.375C1067.68 808.074 1066.83 808.964 1066.83 808.964C1066.83 808.964 1065.81 807.674 1064.08 805.258C1054.61 792.051 1024.13 745.089 1026.49 690.843C1026.61 687.999 1026.82 685.187 1027.11 682.404C1028.9 684.312 1030.64 686.289 1032.34 688.336C1068 731.346 1071.32 789.217 1071.58 803.523Z" fill="black"/>
<path d="M1123.59 694.766C1120.82 758.919 1073.2 808.965 1073.2 808.965C1073.2 808.965 1030.07 754.997 1032.84 690.844C1035.61 626.69 1083.24 576.645 1083.24 576.645C1083.24 576.645 1126.36 630.612 1123.59 694.766Z" fill="#7B2CBF"/>
<path d="M1073.2 807.148L1083.67 579.261" stroke="#3F3D56" stroke-width="2" stroke-miterlimit="10"/>
<path d="M73.8932 807.398H1161.65" stroke="#3F3D56" stroke-width="2" stroke-miterlimit="10"/>
<path d="M304.918 529.482C335.26 529.482 359.857 504.885 359.857 474.543C359.857 444.201 335.26 419.604 304.918 419.604C274.576 419.604 249.979 444.201 249.979 474.543C249.979 504.885 274.576 529.482 304.918 529.482Z" fill="#7B2CBF"/>
<path d="M211.536 658.781C241.878 658.781 266.475 634.184 266.475 603.842C266.475 573.5 241.878 548.903 211.536 548.903C181.194 548.903 156.597 573.5 156.597 603.842C156.597 634.184 181.194 658.781 211.536 658.781Z" fill="#7B2CBF"/>
<path d="M96.6042 762.04C126.946 762.04 151.543 737.443 151.543 707.101C151.543 676.759 126.946 652.162 96.6042 652.162C66.2622 652.162 41.6652 676.759 41.6652 707.101C41.6652 737.443 66.2622 762.04 96.6042 762.04Z" fill="#7B2CBF"/>
<path d="M96.5554 806.456V706.799" stroke="#3F3D56" stroke-width="2" stroke-miterlimit="10"/>
<path d="M96.5554 720.891C104.339 720.891 110.648 714.582 110.648 706.798C110.648 699.015 104.339 692.706 96.5554 692.706C88.7721 692.706 82.4624 699.015 82.4624 706.798C82.4624 714.582 88.7721 720.891 96.5554 720.891Z" fill="#3F3D56"/>
<path d="M96.5553 768.219C96.5553 768.219 94.5421 724.918 53.2699 729.951L96.5553 768.219Z" fill="#3F3D56"/>
<path d="M304.953 807.155V474.745" stroke="#3F3D56" stroke-width="2" stroke-miterlimit="10"/>
<path d="M304.953 488.68C312.736 488.68 319.046 482.371 319.046 474.588C319.046 466.804 312.736 460.495 304.953 460.495C297.169 460.495 290.86 466.804 290.86 474.588C290.86 482.371 297.169 488.68 304.953 488.68Z" fill="#3F3D56"/>
<path d="M261.667 729.181C269.451 729.181 275.76 722.871 275.76 715.088C275.76 707.305 269.451 700.995 261.667 700.995C253.884 700.995 247.574 707.305 247.574 715.088C247.574 722.871 253.884 729.181 261.667 729.181Z" fill="#3F3D56"/>
<path d="M304.953 546.575C304.953 546.575 302.939 503.274 261.667 508.307L304.953 546.575Z" fill="#3F3D56"/>
<path d="M304.953 669.329C304.953 669.329 302.939 626.028 261.667 631.061L304.953 669.329Z" fill="#3F3D56"/>
<path d="M304.953 803.281C304.953 803.281 314.012 719.114 261.667 715.088" stroke="#3F3D56" stroke-width="2" stroke-miterlimit="10"/>
<path d="M348.244 729.181C356.028 729.181 362.337 722.871 362.337 715.088C362.337 707.305 356.028 700.995 348.244 700.995C340.461 700.995 334.151 707.305 334.151 715.088C334.151 722.871 340.461 729.181 348.244 729.181Z" fill="#3F3D56"/>
<path d="M304.959 803.281C304.959 803.281 295.899 719.114 348.244 715.088" stroke="#3F3D56" stroke-width="2" stroke-miterlimit="10"/>
<path d="M349.103 596.984C356.886 596.984 363.196 590.674 363.196 582.891C363.196 575.107 356.886 568.798 349.103 568.798C341.319 568.798 335.01 575.107 335.01 582.891C335.01 590.674 341.319 596.984 349.103 596.984Z" fill="#3F3D56"/>
<path d="M305.817 666.594C305.817 666.594 296.758 586.917 349.103 582.891" stroke="#3F3D56" stroke-width="2" stroke-miterlimit="10"/>
<path d="M211.586 806.686V603.78" stroke="#3F3D56" stroke-width="2" stroke-miterlimit="10"/>
<path d="M211.586 617.873C219.37 617.873 225.679 611.563 225.679 603.78C225.679 595.997 219.37 589.687 211.586 589.687C203.803 589.687 197.493 595.997 197.493 603.78C197.493 611.563 203.803 617.873 211.586 617.873Z" fill="#3F3D56"/>
<path d="M211.586 661.174C211.586 661.174 209.573 617.873 168.301 622.906L211.586 661.174Z" fill="#3F3D56"/>
<path d="M211.586 802.812C211.586 802.812 220.646 719.543 168.301 715.517" stroke="#3F3D56" stroke-width="2" stroke-miterlimit="10"/>
<path d="M168.301 729.61C176.084 729.61 182.394 723.3 182.394 715.517C182.394 707.734 176.084 701.424 168.301 701.424C160.517 701.424 154.208 707.734 154.208 715.517C154.208 723.3 160.517 729.61 168.301 729.61Z" fill="#3F3D56"/>
<path d="M985.489 498.425C998.271 498.425 1008.63 488.064 1008.63 475.282C1008.63 462.5 998.271 452.139 985.489 452.139C972.708 452.139 962.346 462.5 962.346 475.282C962.346 488.064 972.708 498.425 985.489 498.425Z" fill="#F2F2F2"/>
<path opacity="0.1" d="M740.596 644.099C711.076 657.522 673.057 656.57 673.057 656.57H631.914V648.714C648.679 644.034 671.861 641.141 697.486 641.141C711.908 641.091 726.316 642.079 740.596 644.099Z" fill="black"/>
<path opacity="0.1" d="M790.058 666.856C790.058 681.063 748.606 692.571 697.486 692.571C646.365 692.571 604.913 681.063 604.913 666.856C604.913 659.772 615.225 653.356 631.913 648.714V656.57H673.057C673.057 656.57 711.076 657.522 740.596 644.099C770.001 648.393 790.058 656.969 790.058 666.856Z" fill="black"/>
<path d="M709.31 506.744H669.921V546.202H709.31V506.744Z" fill="#2F2E41"/>
<path d="M684.569 534.648C684.569 534.648 687.829 546.059 682.124 546.874C678.583 547.426 675.228 548.824 672.343 550.949L682.939 564.805H702.5L714.726 552.579C714.726 552.579 698.425 540.353 701.685 533.018C704.945 525.682 684.569 534.648 684.569 534.648Z" fill="#FFB9B9"/>
<path opacity="0.1" d="M684.569 534.648C684.569 534.648 687.829 546.059 682.124 546.874C678.583 547.426 675.228 548.824 672.343 550.949L682.939 564.805H702.5L714.726 552.579C714.726 552.579 698.425 540.353 701.685 533.018C704.945 525.682 684.569 534.648 684.569 534.648Z" fill="black"/>
<path d="M689.459 676.469L708.206 682.989L721.246 683.805L720.431 672.394L693.535 664.439L689.459 676.469Z" fill="#FFB9B9"/>
<path d="M713.504 674.024C713.504 674.024 713.504 685.435 715.134 685.435C716.764 685.435 738.771 682.99 745.291 685.435C751.812 687.88 761.593 678.914 756.702 674.024C751.812 669.134 743.835 661.798 738.857 663.428C733.88 665.058 713.503 669.133 713.503 669.133L713.504 674.024Z" fill="#240046"/>
<path d="M653.596 663.428C653.596 663.428 643.815 682.99 650.336 684.62C656.856 686.25 664.192 683.805 665.007 682.99C665.822 682.175 677.233 678.914 678.863 680.544C680.493 682.175 680.493 674.024 680.493 674.024L653.596 663.428Z" fill="#240046"/>
<path d="M661.747 636.531C661.747 636.531 646.261 657.723 657.671 663.428C669.082 669.134 723.692 669.134 727.767 663.428C731.842 657.723 733.473 639.791 727.767 638.161C722.062 636.531 661.747 636.531 661.747 636.531Z" fill="#240046"/>
<path opacity="0.3" d="M661.747 636.531C661.747 636.531 646.261 657.723 657.671 663.428C669.082 669.134 723.692 669.134 727.767 663.428C731.842 657.723 733.473 639.791 727.767 638.161C722.062 636.531 661.747 636.531 661.747 636.531Z" fill="black"/>
<path d="M691.089 540.353C701.443 540.353 709.836 531.96 709.836 521.607C709.836 511.253 701.443 502.86 691.089 502.86C680.736 502.86 672.343 511.253 672.343 521.607C672.343 531.96 680.736 540.353 691.089 540.353Z" fill="#FFB9B9"/>
<path d="M661.747 550.949L678.048 547.689C678.048 547.689 682.124 560.73 695.165 558.285C708.206 555.839 711.466 547.689 711.466 547.689C711.466 547.689 721.247 551.764 722.062 551.764C722.877 551.764 733.473 555.839 733.473 558.285C733.473 560.73 721.247 585.182 721.247 585.182L722.877 629.195L662.562 627.565L666.637 584.367L661.747 550.949Z" fill="#7B2CBF"/>
<path d="M652.781 572.141C652.781 572.141 647.891 615.339 651.151 618.599C654.411 621.86 667.452 630.825 667.452 630.825V621.045L660.932 608.819L667.452 580.291L652.781 572.141Z" fill="#FFB9B9"/>
<path d="M737.141 570.918C737.141 570.918 734.288 615.339 734.288 616.969C734.288 618.599 726.952 624.305 724.507 624.305C722.062 624.305 720.432 620.23 720.432 620.23L726.137 613.709L722.062 580.291L737.141 570.918Z" fill="#FFB9B9"/>
<path d="M729.397 633.271C729.397 633.271 766.075 612.894 766.89 633.271C767.706 653.647 748.144 661.798 748.144 661.798C748.144 661.798 697.61 676.951 695.572 671.412C693.534 665.873 689.459 656.908 692.719 656.093C695.98 655.277 700.055 653.647 701.685 655.277C703.315 656.908 723.692 643.051 723.692 643.051L729.397 633.271Z" fill="#240046"/>
<path opacity="0.2" d="M746.514 630.826C746.514 630.826 739.178 634.086 736.733 636.531C734.288 638.976 723.692 643.051 723.692 643.051" stroke="black" stroke-width="2" stroke-miterlimit="10"/>
<path d="M666.637 552.579L661.747 550.949C661.747 550.949 643.815 569.696 649.521 574.586C655.226 579.476 658.487 581.106 660.117 582.737C661.747 584.367 669.898 585.182 669.898 585.182L666.637 552.579Z" fill="#7B2CBF"/>
<path d="M726.137 556.654L733.473 558.285C733.473 558.285 739.178 570.511 740.808 572.141C742.438 573.771 738.363 572.956 735.918 576.216C733.473 579.476 731.028 585.182 726.137 585.182C721.247 585.182 714.726 577.031 714.726 577.031L726.137 556.654Z" fill="#7B2CBF"/>
<path d="M663.377 640.606C663.377 640.606 632.404 618.6 621.809 634.901C611.213 651.202 667.452 673.209 675.603 676.469C683.754 679.73 691.089 682.99 691.089 682.99C691.089 682.99 698.425 665.058 698.425 661.798C698.425 658.538 692.719 658.538 691.089 658.538C689.459 658.538 682.124 656.908 680.493 654.462C678.863 652.017 663.377 640.606 663.377 640.606Z" fill="#240046"/>
<path opacity="0.2" d="M646.26 634.901C646.26 634.901 654.411 641.421 661.747 643.051C669.082 644.682 671.528 648.757 671.528 648.757" stroke="black" stroke-width="2" stroke-miterlimit="10"/>
<path d="M657.755 604.255L658.406 638.765C658.427 639.905 658.898 640.99 659.717 641.784C660.535 642.578 661.634 643.016 662.774 643.003L726.995 642.282C728.09 642.27 729.138 641.842 729.93 641.087C730.721 640.331 731.197 639.303 731.26 638.211L733.209 604.422C733.243 603.835 733.157 603.247 732.955 602.694C732.754 602.141 732.441 601.635 732.038 601.208C731.634 600.78 731.147 600.439 730.607 600.206C730.066 599.973 729.484 599.853 728.896 599.853H662.074C661.5 599.853 660.931 599.967 660.402 600.19C659.873 600.412 659.393 600.737 658.991 601.147C658.588 601.557 658.272 602.043 658.06 602.577C657.848 603.11 657.744 603.681 657.755 604.255Z" fill="#575A89"/>
<path d="M650.326 551.154C652.075 547.295 654.426 543.672 655.546 539.586C656.888 534.687 656.366 529.504 656.206 524.428C655.951 519.938 656.333 515.435 657.342 511.052C658.366 506.649 660.666 502.645 663.954 499.542C672.495 491.917 688.128 491.369 698.558 494.543C702.669 495.795 707.049 498.178 708.069 502.353C708.223 502.984 708.292 503.633 708.464 504.259C709.318 507.367 712.498 509.334 713.645 512.347C715.13 516.244 712.841 520.482 712.542 524.641C712.193 529.496 714.58 534.084 716.932 538.345C718.331 540.879 719.785 543.578 719.646 546.469C719.53 548.05 719.05 549.582 718.242 550.946C716.743 553.419 714.641 555.471 712.132 556.909C709.623 558.347 706.79 559.125 703.898 559.168C702.019 559.319 700.139 558.875 698.525 557.9C695.98 556.147 695.235 552.618 695.765 549.573C696.295 546.529 697.841 543.775 699.051 540.932C699.423 540.059 699.758 539.172 700.068 538.276C703.823 536.18 706.716 532.824 708.237 528.802C709.759 524.779 709.809 520.349 708.381 516.292C706.953 512.236 704.137 508.815 700.431 506.633C696.725 504.451 692.367 503.649 688.128 504.368C683.888 505.088 680.038 507.282 677.259 510.564C674.48 513.845 672.95 518.004 672.939 522.304C672.928 526.605 674.437 530.771 677.2 534.066C679.962 537.362 683.8 539.576 688.037 540.316C688.95 544.916 688.535 549.681 686.84 554.054C685.299 557.612 683.364 560.986 681.072 564.113C680.134 565.715 678.884 567.114 677.396 568.225C676.416 568.806 675.363 569.255 674.266 569.562C669.662 571.043 664.814 572.234 660.024 571.568C655.234 570.902 650.49 568.013 648.858 563.461C647.428 559.472 648.577 555.014 650.326 551.154Z" fill="#240046"/>
<path d="M690.181 522.354C701.169 522.354 710.076 517.307 710.076 511.081C710.076 504.854 701.169 499.807 690.181 499.807C679.193 499.807 670.286 504.854 670.286 511.081C670.286 517.307 679.193 522.354 690.181 522.354Z" fill="#240046"/>
<path d="M82.9064 579.426C95.688 579.426 106.05 569.065 106.05 556.283C106.05 543.502 95.688 533.14 82.9064 533.14C70.1248 533.14 59.7632 543.502 59.7632 556.283C59.7632 569.065 70.1248 579.426 82.9064 579.426Z" fill="#F2F2F2"/>
<path d="M775.292 150.562L762.664 143.098L775.292 122.145L787.92 143.098L775.292 150.562Z" fill="#7B2CBF"/>
<path d="M775.292 163.288L787.928 145.493L775.292 152.953L762.664 145.492L775.292 163.288Z" fill="#7B2CBF"/>
<path d="M984.768 475.856L982.723 482.756H993.659C993.968 482.756 994.22 483.008 994.22 483.317C994.22 483.369 994.211 483.422 994.197 483.474L993.246 486.75C993.151 487.073 992.856 487.292 992.523 487.292H975.819L978.643 477.754L975.519 478.705L976.209 476.475L979.337 475.524L983.303 462.124C983.393 461.801 983.688 461.577 984.021 461.577H988.253C988.562 461.577 988.814 461.825 988.814 462.138C988.814 462.191 988.809 462.243 988.795 462.291L985.467 473.622L988.591 472.671L987.92 474.939L984.768 475.856Z" fill="#7B2CBF"/>
<path d="M87.499 543.934H76.0411L75.0909 549.243L85.433 549.256C90.5274 549.256 92.0294 551.107 91.9865 554.172C91.962 555.742 91.2815 558.402 90.9872 559.267C90.2025 561.566 88.5902 564.183 82.5455 564.177L72.4916 564.171L71.5444 569.486H82.9777C87.0116 569.486 88.722 569.014 90.5428 568.18C94.5705 566.311 96.9675 562.338 97.93 557.152C99.3553 549.427 97.5775 543.934 87.499 543.934Z" fill="#7B2CBF"/>
<path d="M71.0969 554.044C68.093 554.044 67.6638 555.999 67.3818 557.182C67.0079 558.727 66.8853 559.359 66.8853 559.359H78.619C81.6229 559.359 82.0521 557.403 82.3341 556.22C82.708 554.675 82.8306 554.044 82.8306 554.044H71.0969Z" fill="#7B2CBF"/>
</svg>
