<svg width="32" height="32" viewBox="0 0 32 32" fill="none" xmlns="http://www.w3.org/2000/svg">
<path d="M14.0796 16.2195C18.5856 16.2192 20.2068 11.7076 20.6313 8.00152C21.1541 3.43608 18.9951 0 14.0796 0C9.16465 0 7.0046 3.43582 7.52784 8.00152C7.95268 11.7076 9.57349 16.2198 14.0796 16.2195Z" fill="white"/>
<path d="M23.9324 18.0975C24.0774 18.0975 24.2215 18.1019 24.3645 18.1098C24.1501 17.8039 23.9019 17.5341 23.6114 17.3172C22.7456 16.671 21.6242 16.459 20.6329 16.0694C20.1503 15.8799 19.7182 15.6916 19.3126 15.4772C17.9435 16.9787 16.1581 17.7641 14.0791 17.7643C12.0007 17.7643 10.2155 16.9789 8.84654 15.4772C8.44089 15.6917 8.00868 15.8799 7.52623 16.0694C6.5349 16.459 5.4136 16.671 4.54771 17.3172C3.0503 18.4349 2.66332 20.9491 2.35927 22.6642C2.10834 24.0799 1.93977 25.5247 1.89056 26.9627C1.85244 28.0766 2.40241 28.2327 3.33428 28.569C4.50107 28.9898 5.70583 29.3022 6.9187 29.5583C9.26102 30.053 11.6755 30.4331 14.0795 30.45C15.2443 30.4417 16.4116 30.3478 17.5719 30.1973C16.7127 28.9525 16.2088 27.4447 16.2088 25.8211C16.2089 21.5623 19.6736 18.0975 23.9324 18.0975Z" fill="white"/>
<path d="M23.9324 19.6423C20.52 19.6423 17.7535 22.4088 17.7535 25.8212C17.7535 29.2335 20.52 32 23.9324 32C27.3449 32 30.1113 29.2335 30.1113 25.8212C30.1113 22.4087 27.3448 19.6423 23.9324 19.6423ZM26.6357 26.8812H24.9925V28.5243C24.9925 29.1098 24.5179 29.5845 23.9325 29.5845C23.347 29.5845 22.8723 29.1098 22.8723 28.5243V26.8812H21.2292C20.6437 26.8812 20.169 26.4066 20.169 25.821C20.169 25.2355 20.6436 24.7609 21.2292 24.7609H22.8723V23.1178C22.8723 22.5323 23.347 22.0576 23.9325 22.0576C24.518 22.0576 24.9925 22.5323 24.9925 23.1178V24.7609H26.6357C27.2212 24.7609 27.6959 25.2355 27.6959 25.821C27.6958 26.4067 27.2213 26.8812 26.6357 26.8812Z" fill="white"/>
</svg>
